<?xml version="1.0" standalone="no"?>
<!DOCTYPE svg PUBLIC "-//W3C//DTD SVG 1.1//EN" "http://www.w3.org/Graphics/SVG/1.1/DTD/svg11.dtd" >
<svg xmlns="http://www.w3.org/2000/svg" xmlns:xlink="http://www.w3.org/1999/xlink" version="1.1">
<metadata>
Created by FontForge 20190801 at Tue Aug 28 16:39:13 2018
 By Jimmy Wärting
Copyright (c) 2015 by Fontfabric LLC. All rights reserved.
</metadata>
<defs>
<font id="Muller-RegularItalic" horiz-adv-x="630" >
  <font-face 
    font-family="Muller"
    font-weight="400"
    font-style="italic"
    font-stretch="normal"
    units-per-em="1000"
    panose-1="0 0 5 0 0 0 0 0 0 0"
    ascent="767"
    descent="-233"
    x-height="480"
    cap-height="700"
    bbox="-577 -241 1231 964"
    underline-thickness="50"
    underline-position="-100"
    slope="-9"
    unicode-range="U+0020-25CA"
  />
<missing-glyph horiz-adv-x="251" 
 />
    <glyph glyph-name="f_f" unicode="ff" horiz-adv-x="692" 
d="M130 406h-90l12 74h90l9 56q12 79 70.5 122.5t140.5 43.5q43 0 76.5 -10t70.5 -31q52 61 147 61q65 0 120 -23l-11 -72q-19 9 -45.5 15t-51.5 6q-51 0 -83.5 -23t-42.5 -83l-10 -62h180l-12 -74h-180l-64 -406h-80l64 406h-230l-64 -406h-80zM452 480l11 71q4 24 12 48
q-25 15 -51 22t-61 7q-54 0 -89.5 -24t-43.5 -74l-8 -50h230z" />
    <glyph glyph-name="f_f_i" unicode="ffi" horiz-adv-x="875" 
d="M130 406h-90l12 74h90l9 56q12 79 70 122.5t141 43.5q44 0 78.5 -10.5t73.5 -33.5q29 32 71 48t90 16q40 0 74 -9t69 -27l-12 -78q-32 21 -63 30.5t-67 9.5q-116 0 -134 -108l-10 -60h297l-76 -480h-80l64 406h-217l-64 -406h-80l64 406h-230l-64 -406h-80zM452 480
l11 66q5 28 13 49q-26 17 -51 25t-62 8q-54 0 -89.5 -24t-43.5 -74l-8 -50h230z" />
    <glyph glyph-name="f_f_l" unicode="ffl" horiz-adv-x="886" 
d="M876 710l-113 -710h-80l99 624q-49 24 -106 24q-117 0 -134 -108l-10 -60h150l-12 -74h-150l-64 -406h-80l64 406h-230l-64 -406h-80l64 406h-90l12 74h90l9 56q12 79 71 122.5t140 43.5q43 0 78 -10.5t73 -33.5q29 32 70 48t88 16q73 0 130 -28zM476 596
q-25 17 -50.5 24.5t-62.5 7.5q-51 0 -88 -24t-45 -74l-8 -50h230l11 66q5 30 13 50z" />
    <glyph glyph-name="f_i" unicode="fi" horiz-adv-x="565" 
d="M130 406h-90l12 74h90l11 66q12 80 68.5 123t138.5 43q79 0 148 -36l-13 -77q-32 20 -63.5 29.5t-67.5 9.5q-54 0 -88.5 -23.5t-43.5 -74.5l-10 -60h297l-76 -480h-80l64 406h-217l-64 -406h-80z" />
    <glyph glyph-name="f_l" unicode="fl" horiz-adv-x="575" 
d="M564 700l-111 -700h-80l99 614q-51 24 -108 24q-54 0 -88.5 -23.5t-43.5 -74.5l-10 -60h150l-12 -74h-150l-64 -406h-80l64 406h-90l12 74h90l11 66q12 79 70 122.5t141 43.5q62 0 130 -30z" />
    <glyph glyph-name=".notdef" horiz-adv-x="251" 
 />
    <glyph glyph-name="space" unicode=" " horiz-adv-x="251" 
 />
    <glyph glyph-name="A" unicode="A" horiz-adv-x="718" 
d="M377 700h94l193 -700h-87l-45 169h-378l-98 -169h-94zM511 247l-91 340q-5 16 -6 29q-8 -18 -16 -31l-199 -338h312z" />
    <glyph glyph-name="Aacute" unicode="&#xc1;" horiz-adv-x="718" 
d="M377 700h94l193 -700h-87l-45 169h-378l-98 -169h-94zM511 247l-91 340q-5 16 -6 29q-8 -18 -16 -31l-199 -338h312zM491 917h102l-127 -147h-89z" />
    <glyph glyph-name="Abreve" unicode="&#x102;" horiz-adv-x="718" 
d="M377 700h94l193 -700h-87l-45 169h-378l-98 -169h-94zM511 247l-91 340q-5 16 -6 29q-8 -18 -16 -31l-199 -338h312zM302 816l12 78q33 -24 63 -34t68 -10t73.5 10t75.5 34l-12 -78q-66 -42 -145 -42q-83 0 -135 42z" />
    <glyph glyph-name="Acircumflex" unicode="&#xc2;" horiz-adv-x="718" 
d="M377 700h94l193 -700h-87l-45 169h-378l-98 -169h-94zM511 247l-91 340q-5 16 -6 29q-8 -18 -16 -31l-199 -338h312zM417 917h72l109 -146h-86l-65 86l-91 -86h-94z" />
    <glyph glyph-name="Adieresis" unicode="&#xc4;" horiz-adv-x="718" 
d="M377 700h94l193 -700h-87l-45 169h-378l-98 -169h-94zM511 247l-91 340q-5 16 -6 29q-8 -18 -16 -31l-199 -338h312zM296.5 797q-14.5 15 -14.5 36q0 23 18.5 41t41.5 18q21 0 36 -15.5t15 -36.5q0 -24 -18 -41t-42 -17q-22 0 -36.5 15zM498.5 797q-14.5 15 -14.5 36
q0 23 18.5 41t41.5 18q21 0 36 -15.5t15 -36.5q0 -24 -18 -41t-42 -17q-22 0 -36.5 15z" />
    <glyph glyph-name="Agrave" unicode="&#xc0;" horiz-adv-x="718" 
d="M377 700h94l193 -700h-87l-45 169h-378l-98 -169h-94zM511 247l-91 340q-5 16 -6 29q-8 -18 -16 -31l-199 -338h312zM330 917h98l68 -147h-85z" />
    <glyph glyph-name="Amacron" unicode="&#x100;" horiz-adv-x="718" 
d="M377 700h94l193 -700h-87l-45 169h-378l-98 -169h-94zM511 247l-91 340q-5 16 -6 29q-8 -18 -16 -31l-199 -338h312zM302 857h300l-12 -73h-300z" />
    <glyph glyph-name="Aogonek" unicode="&#x104;" horiz-adv-x="718" 
d="M496 -209.5q-23 21.5 -23 55.5q0 36 26.5 78.5t74.5 81.5l1 1l-43 162h-378l-98 -169h-94l415 700h94l193 -700q-46 -28 -77.5 -64.5t-35.5 -65.5q-1 -3 -1 -8q0 -13 9 -20.5t26 -7.5q27 0 54 17l-10 -68q-31 -14 -67 -14q-43 0 -66 21.5zM511 247l-91 340q-5 16 -6 29
q-8 -18 -16 -31l-199 -338h312z" />
    <glyph glyph-name="Aring" unicode="&#xc5;" horiz-adv-x="718" 
d="M377 700h94l193 -700h-87l-45 169h-378l-98 -169h-94zM511 247l-91 340q-5 16 -6 29q-8 -18 -16 -31l-199 -338h312zM364 770.5q-30 26.5 -30 70.5q0 36 18.5 64.5t48.5 43.5t63 15q43 0 72.5 -26.5t29.5 -69.5q0 -12 -1 -18q-8 -48 -45 -77t-83 -29q-43 0 -73 26.5z
M486.5 816q20.5 17 20.5 47q0 20 -13 33t-31 13q-25 0 -44.5 -14.5t-23.5 -40.5q-1 -4 -1 -11q0 -20 12.5 -32t31.5 -12q28 0 48.5 17z" />
    <glyph glyph-name="Atilde" unicode="&#xc3;" horiz-adv-x="718" 
d="M377 700h94l193 -700h-87l-45 169h-378l-98 -169h-94zM511 247l-91 340q-5 16 -6 29q-8 -18 -16 -31l-199 -338h312zM469 769.5q-21 6.5 -47 18.5q-14 7 -28.5 12t-25.5 5q-18 0 -27.5 -9.5t-8.5 -26.5h-69q1 52 28.5 79t64.5 27q23 0 43.5 -6.5t46.5 -18.5
q38 -17 56 -17q38 0 36 36h69q-1 -53 -28.5 -79.5t-65.5 -26.5q-23 0 -44 6.5z" />
    <glyph glyph-name="AE" unicode="&#xc6;" horiz-adv-x="1006" 
d="M536 700h478l-12 -80h-357l-36 -227h327l-13 -80h-327l-37 -233h364l-13 -80h-448l27 171h-303l-144 -171h-101zM501 247l58 367l-309 -367h251z" />
    <glyph glyph-name="B" unicode="B" horiz-adv-x="693" 
d="M158 700h285q92 0 152.5 -41t60.5 -115q0 -18 -2 -28q-10 -61 -48 -98.5t-88 -50.5q46 -13 80.5 -49t34.5 -98q0 -15 -3 -33q-17 -105 -99.5 -146t-186.5 -41h-297zM412 402q63 0 105.5 28t51.5 86q2 14 2 21q0 45 -37 64t-107 19h-198l-34 -218h217zM336 80
q84 0 141.5 24t70.5 102q2 16 2 23q0 56 -44 74.5t-105 18.5h-219l-38 -242h192z" />
    <glyph glyph-name="C" unicode="C" horiz-adv-x="646" 
d="M215 23.5q-73 35.5 -118.5 106t-45.5 169.5q0 34 6 71q17 105 82 183t155.5 118.5t180.5 40.5q108 0 186 -48l-12 -81q-31 24 -73.5 36.5t-91.5 12.5q-76 0 -150 -31t-127 -92.5t-67 -148.5q-5 -32 -5 -55q0 -79 37 -132t95.5 -79t122.5 -26q52 0 101.5 13.5t88.5 38.5
l-14 -91q-42 -21 -93.5 -31t-105.5 -10q-79 0 -152 35.5z" />
    <glyph glyph-name="Cacute" unicode="&#x106;" horiz-adv-x="646" 
d="M215 23.5q-73 35.5 -118.5 106t-45.5 169.5q0 34 6 71q17 105 82 183t155.5 118.5t180.5 40.5q108 0 186 -48l-12 -81q-31 24 -73.5 36.5t-91.5 12.5q-76 0 -150 -31t-127 -92.5t-67 -148.5q-5 -32 -5 -55q0 -79 37 -132t95.5 -79t122.5 -26q52 0 101.5 13.5t88.5 38.5
l-14 -91q-42 -21 -93.5 -31t-105.5 -10q-79 0 -152 35.5zM549 917h102l-127 -147h-89z" />
    <glyph glyph-name="Ccaron" unicode="&#x10c;" horiz-adv-x="646" 
d="M215 23.5q-73 35.5 -118.5 106t-45.5 169.5q0 34 6 71q17 105 82 183t155.5 118.5t180.5 40.5q108 0 186 -48l-12 -81q-31 24 -73.5 36.5t-91.5 12.5q-76 0 -150 -31t-127 -92.5t-67 -148.5q-5 -32 -5 -55q0 -79 37 -132t95.5 -79t122.5 -26q52 0 101.5 13.5t88.5 38.5
l-14 -91q-42 -21 -93.5 -31t-105.5 -10q-79 0 -152 35.5zM341 907h88l63 -86l89 86h96l-155 -146h-72z" />
    <glyph glyph-name="Ccedilla" unicode="&#xc7;" horiz-adv-x="646" 
d="M220 -212l11 65q18 -9 42 -14.5t46 -5.5q37 0 57 9.5t20 26.5q0 14 -16.5 21t-43.5 7q-21 0 -51 -5l37 99q-72 10 -133.5 48t-99.5 104.5t-38 155.5q0 34 6 71q17 105 82 183t155.5 118.5t180.5 40.5q108 0 186 -48l-12 -81q-31 24 -73.5 36.5t-91.5 12.5q-76 0 -150 -31
t-127 -92.5t-67 -148.5q-5 -32 -5 -55q0 -79 37 -132t95.5 -79t122.5 -26q52 0 101.5 13.5t88.5 38.5l-14 -91q-72 -36 -178 -41l-19 -46q43 2 69 -17t26 -54q0 -8 -1 -12q-7 -46 -44 -68.5t-94 -22.5q-53 0 -105 20z" />
    <glyph glyph-name="Cdotaccent" unicode="&#x10a;" horiz-adv-x="646" 
d="M215 23.5q-73 35.5 -118.5 106t-45.5 169.5q0 34 6 71q17 105 82 183t155.5 118.5t180.5 40.5q108 0 186 -48l-12 -81q-31 24 -73.5 36.5t-91.5 12.5q-76 0 -150 -31t-127 -92.5t-67 -148.5q-5 -32 -5 -55q0 -79 37 -132t95.5 -79t122.5 -26q52 0 101.5 13.5t88.5 38.5
l-14 -91q-42 -21 -93.5 -31t-105.5 -10q-79 0 -152 35.5zM448.5 781.5q-15.5 13.5 -15.5 37.5q0 32 19 49t46 17q24 0 39.5 -13.5t15.5 -36.5q0 -33 -18.5 -50t-46.5 -17q-24 0 -39.5 13.5z" />
    <glyph glyph-name="D" unicode="D" horiz-adv-x="739" 
d="M158 700h228q103 0 175 -36.5t109 -101.5t37 -150q0 -38 -5 -67q-25 -157 -132 -251t-291 -94h-232zM288 80q140 0 224.5 72.5t105.5 202.5q5 35 5 60q0 99 -62 152t-184 53h-148l-85 -540h144z" />
    <glyph glyph-name="Eth" unicode="&#xd0;" horiz-adv-x="743" 
d="M100 311h-81l12 76h81l50 313h228q103 0 175 -36.5t109 -101.5t37 -150q0 -38 -5 -67q-25 -157 -132 -251t-291 -94h-232zM292 80q140 0 224.5 72.5t105.5 202.5q5 35 5 60q0 99 -62 152t-184 53h-148l-37 -233h212l-12 -76h-212l-36 -231h144z" />
    <glyph glyph-name="Dcaron" unicode="&#x10e;" horiz-adv-x="739" 
d="M158 700h228q103 0 175 -36.5t109 -101.5t37 -150q0 -38 -5 -67q-25 -157 -132 -251t-291 -94h-232zM288 80q140 0 224.5 72.5t105.5 202.5q5 35 5 60q0 99 -62 152t-184 53h-148l-85 -540h144zM253 907h88l63 -86l89 86h96l-155 -146h-72z" />
    <glyph glyph-name="Dcroat" unicode="&#x110;" horiz-adv-x="743" 
d="M100 311h-81l12 76h81l50 313h228q103 0 175 -36.5t109 -101.5t37 -150q0 -38 -5 -67q-25 -157 -132 -251t-291 -94h-232zM292 80q140 0 224.5 72.5t105.5 202.5q5 35 5 60q0 99 -62 152t-184 53h-148l-37 -233h212l-12 -76h-212l-36 -231h144z" />
    <glyph glyph-name="E" unicode="E" horiz-adv-x="621" 
d="M158 700h472l-13 -80h-388l-36 -227h358l-12 -80h-358l-37 -233h394l-13 -80h-478z" />
    <glyph glyph-name="Eacute" unicode="&#xc9;" horiz-adv-x="621" 
d="M158 700h472l-13 -80h-388l-36 -227h358l-12 -80h-358l-37 -233h394l-13 -80h-478zM463 917h102l-127 -147h-89z" />
    <glyph glyph-name="Ecaron" unicode="&#x11a;" horiz-adv-x="621" 
d="M158 700h472l-13 -80h-388l-36 -227h358l-12 -80h-358l-37 -233h394l-13 -80h-478zM255 907h88l63 -86l89 86h96l-155 -146h-72z" />
    <glyph glyph-name="Ecircumflex" unicode="&#xca;" horiz-adv-x="621" 
d="M158 700h472l-13 -80h-388l-36 -227h358l-12 -80h-358l-37 -233h394l-13 -80h-478zM389 917h72l109 -146h-86l-65 86l-91 -86h-94z" />
    <glyph glyph-name="Edieresis" unicode="&#xcb;" horiz-adv-x="621" 
d="M158 700h472l-13 -80h-388l-36 -227h358l-12 -80h-358l-37 -233h394l-13 -80h-478zM268.5 797q-14.5 15 -14.5 36q0 23 18.5 41t41.5 18q21 0 36 -15.5t15 -36.5q0 -24 -18 -41t-42 -17q-22 0 -36.5 15zM470.5 797q-14.5 15 -14.5 36q0 23 18.5 41t41.5 18q21 0 36 -15.5
t15 -36.5q0 -24 -18 -41t-42 -17q-22 0 -36.5 15z" />
    <glyph glyph-name="Edotaccent" unicode="&#x116;" horiz-adv-x="621" 
d="M158 700h472l-13 -80h-388l-36 -227h358l-12 -80h-358l-37 -233h394l-13 -80h-478zM362.5 781.5q-15.5 13.5 -15.5 37.5q0 32 19 49t46 17q24 0 39.5 -13.5t15.5 -36.5q0 -33 -18.5 -50t-46.5 -17q-24 0 -39.5 13.5z" />
    <glyph glyph-name="Egrave" unicode="&#xc8;" horiz-adv-x="621" 
d="M158 700h472l-13 -80h-388l-36 -227h358l-12 -80h-358l-37 -233h394l-13 -80h-478zM302 917h98l68 -147h-85z" />
    <glyph glyph-name="Emacron" unicode="&#x112;" horiz-adv-x="621" 
d="M158 700h472l-13 -80h-388l-36 -227h358l-12 -80h-358l-37 -233h394l-13 -80h-478zM274 857h300l-12 -73h-300z" />
    <glyph glyph-name="Eogonek" unicode="&#x118;" horiz-adv-x="621" 
d="M357 -211.5q-23 21.5 -23 55.5q0 36 27.5 79.5t77.5 76.5h-392l111 700h472l-13 -80h-388l-36 -227h358l-12 -80h-358l-37 -233h394l-13 -80q-47 -29 -78 -64.5t-35 -63.5q-1 -3 -1 -9q0 -13 9 -22t26 -9q26 0 53 11l-12 -67q-24 -9 -64 -9q-43 0 -66 21.5z" />
    <glyph glyph-name="F" unicode="F" horiz-adv-x="607" 
d="M158 700h474l-13 -80h-390l-38 -241h361l-13 -80h-361l-47 -299h-84z" />
    <glyph glyph-name="G" unicode="G" horiz-adv-x="707" 
d="M221 21q-76 33 -124 102t-48 171q0 34 6 71q18 113 84.5 191.5t157.5 117t183 38.5q116 0 204 -48l-12 -80q-33 23 -81.5 35.5t-103.5 12.5q-78 0 -151.5 -28.5t-127.5 -91t-69 -157.5q-5 -33 -5 -56q0 -79 37.5 -131t96 -76t124.5 -24q77 0 137 27l44 277h86l-53 -338
q-52 -22 -110.5 -34t-114.5 -12q-84 0 -160 33z" />
    <glyph glyph-name="Gbreve" unicode="&#x11e;" horiz-adv-x="707" 
d="M221 21q-76 33 -124 102t-48 171q0 34 6 71q18 113 84.5 191.5t157.5 117t183 38.5q116 0 204 -48l-12 -80q-33 23 -81.5 35.5t-103.5 12.5q-78 0 -151.5 -28.5t-127.5 -91t-69 -157.5q-5 -33 -5 -56q0 -79 37.5 -131t96 -76t124.5 -24q77 0 137 27l44 277h86l-53 -338
q-52 -22 -110.5 -34t-114.5 -12q-84 0 -160 33zM340 816l12 78q33 -24 63 -34t68 -10t73.5 10t75.5 34l-12 -78q-66 -42 -145 -42q-83 0 -135 42z" />
    <glyph glyph-name="uni0122" unicode="&#x122;" horiz-adv-x="707" 
d="M221 21q-76 33 -124 102t-48 171q0 34 6 71q18 113 84.5 191.5t157.5 117t183 38.5q116 0 204 -48l-12 -80q-33 23 -81.5 35.5t-103.5 12.5q-78 0 -151.5 -28.5t-127.5 -91t-69 -157.5q-5 -33 -5 -56q0 -79 37.5 -131t96 -76t124.5 -24q77 0 137 27l44 277h86l-53 -338
q-52 -22 -110.5 -34t-114.5 -12q-84 0 -160 33zM332 -51h80l-65 -190h-70z" />
    <glyph glyph-name="Gdotaccent" unicode="&#x120;" horiz-adv-x="707" 
d="M221 21q-76 33 -124 102t-48 171q0 34 6 71q18 113 84.5 191.5t157.5 117t183 38.5q116 0 204 -48l-12 -80q-33 23 -81.5 35.5t-103.5 12.5q-78 0 -151.5 -28.5t-127.5 -91t-69 -157.5q-5 -33 -5 -56q0 -79 37.5 -131t96 -76t124.5 -24q77 0 137 27l44 277h86l-53 -338
q-52 -22 -110.5 -34t-114.5 -12q-84 0 -160 33zM428.5 781.5q-15.5 13.5 -15.5 37.5q0 32 19 49t46 17q24 0 39.5 -13.5t15.5 -36.5q0 -33 -18.5 -50t-46.5 -17q-24 0 -39.5 13.5z" />
    <glyph glyph-name="H" unicode="H" horiz-adv-x="769" 
d="M158 700h84l-49 -309h415l49 309h84l-111 -700h-84l49 311h-415l-49 -311h-84z" />
    <glyph glyph-name="Hbar" unicode="&#x126;" horiz-adv-x="774" 
d="M129 502h-74l11 70h74l20 128h84l-20 -128h415l20 128h84l-20 -128h74l-11 -70h-74l-80 -502h-84l49 311h-415l-49 -311h-84zM610 391l18 111h-415l-18 -111h415z" />
    <glyph glyph-name="I" unicode="I" horiz-adv-x="270" 
d="M158 700h84l-111 -700h-84z" />
    <glyph glyph-name="IJ" unicode="&#x132;" horiz-adv-x="781" 
d="M158 700h84l-111 -700h-84zM322.5 1.5q-45.5 11.5 -75.5 32.5l13 82q58 -46 151 -46q77 0 126 33t62 111l64 406h-206l13 80h290l-78 -495q-18 -111 -88 -163t-172 -52q-54 0 -99.5 11.5z" />
    <glyph glyph-name="Iacute" unicode="&#xcd;" horiz-adv-x="270" 
d="M158 700h84l-111 -700h-84zM269 917h102l-127 -147h-89z" />
    <glyph glyph-name="Icircumflex" unicode="&#xce;" horiz-adv-x="270" 
d="M158 700h84l-111 -700h-84zM195 917h72l109 -146h-86l-65 86l-91 -86h-94z" />
    <glyph glyph-name="Idieresis" unicode="&#xcf;" horiz-adv-x="270" 
d="M158 700h84l-111 -700h-84zM74.5 797q-14.5 15 -14.5 36q0 23 18.5 41t41.5 18q21 0 36 -15.5t15 -36.5q0 -24 -18 -41t-42 -17q-22 0 -36.5 15zM276.5 797q-14.5 15 -14.5 36q0 23 18.5 41t41.5 18q21 0 36 -15.5t15 -36.5q0 -24 -18 -41t-42 -17q-22 0 -36.5 15z" />
    <glyph glyph-name="Idotaccent" unicode="&#x130;" horiz-adv-x="270" 
d="M158 700h84l-111 -700h-84zM168.5 781.5q-15.5 13.5 -15.5 37.5q0 32 19 49t46 17q24 0 39.5 -13.5t15.5 -36.5q0 -33 -18.5 -50t-46.5 -17q-24 0 -39.5 13.5z" />
    <glyph glyph-name="Igrave" unicode="&#xcc;" horiz-adv-x="270" 
d="M158 700h84l-111 -700h-84zM108 917h98l68 -147h-85z" />
    <glyph glyph-name="Imacron" unicode="&#x12a;" horiz-adv-x="270" 
d="M158 700h84l-111 -700h-84zM80 857h300l-12 -73h-300z" />
    <glyph glyph-name="Iogonek" unicode="&#x12e;" horiz-adv-x="270" 
d="M-11.5 -210.5q-23.5 21.5 -23.5 56.5q0 10 1 15q11 70 80 143l2 2l110 694h84l-111 -700q-81 -76 -88 -129q-1 -3 -1 -9q0 -13 8.5 -21.5t24.5 -8.5q32 0 71 24l-11 -68q-33 -20 -81 -20q-42 0 -65.5 21.5z" />
    <glyph glyph-name="J" unicode="J" horiz-adv-x="511" 
d="M52.5 1.5q-45.5 11.5 -75.5 32.5l13 82q58 -46 151 -46q77 0 126 33t62 111l64 406h-206l13 80h290l-78 -495q-18 -111 -88 -163t-172 -52q-54 0 -99.5 11.5z" />
    <glyph glyph-name="K" unicode="K" horiz-adv-x="662" 
d="M158 700h84l-48 -304h118l299 304h98l-329 -337l238 -363h-94l-219 317h-123l-50 -317h-84z" />
    <glyph glyph-name="uni0136" unicode="&#x136;" horiz-adv-x="662" 
d="M158 700h84l-48 -304h118l299 304h98l-329 -337l238 -363h-94l-219 317h-123l-50 -317h-84zM277 -41h80l-65 -190h-70z" />
    <glyph glyph-name="L" unicode="L" horiz-adv-x="576" 
d="M158 700h84l-98 -620h388l-13 -80h-472z" />
    <glyph glyph-name="Lacute" unicode="&#x139;" horiz-adv-x="576" 
d="M158 700h84l-98 -620h388l-13 -80h-472zM282 917h102l-127 -147h-89z" />
    <glyph glyph-name="Lcaron" unicode="&#x13d;" horiz-adv-x="577" 
d="M158 700h84l-98 -620h388l-13 -80h-472zM437 700h80l-57 -184h-70z" />
    <glyph glyph-name="uni013B" unicode="&#x13b;" horiz-adv-x="576" 
d="M158 700h84l-98 -620h388l-13 -80h-472zM257 -41h80l-65 -190h-70z" />
    <glyph glyph-name="Ldot" unicode="&#x13f;" horiz-adv-x="580" 
d="M158 700h84l-98 -620h388l-13 -80h-472zM333 311q-14 12 -14 33q0 28 16.5 42.5t40.5 14.5q21 0 34.5 -12t13.5 -33q0 -28 -16 -42.5t-40 -14.5q-21 0 -35 12z" />
    <glyph glyph-name="Lslash" unicode="&#x141;" horiz-adv-x="581" 
d="M95 270l-85 -33l11 70l85 33l57 360h84l-52 -328l224 88l-11 -70l-224 -88l-35 -222h388l-13 -80h-472z" />
    <glyph glyph-name="M" unicode="M" horiz-adv-x="906" 
d="M158 700h75l211 -433l347 433h87l-111 -700h-84l88 551l-310 -386h-54l-188 386l-88 -551h-84z" />
    <glyph glyph-name="N" unicode="N" horiz-adv-x="769" 
d="M158 700h71l340 -566q2 15 9 70l79 496h84l-111 -700h-71l-340 567q-2 -23 -9 -70l-79 -497h-84z" />
    <glyph glyph-name="Nacute" unicode="&#x143;" horiz-adv-x="769" 
d="M158 700h71l340 -566q2 15 9 70l79 496h84l-111 -700h-71l-340 567q-2 -23 -9 -70l-79 -497h-84zM519 917h102l-127 -147h-89z" />
    <glyph glyph-name="Ncaron" unicode="&#x147;" horiz-adv-x="769" 
d="M158 700h71l340 -566q2 15 9 70l79 496h84l-111 -700h-71l-340 567q-2 -23 -9 -70l-79 -497h-84zM311 907h88l63 -86l89 86h96l-155 -146h-72z" />
    <glyph glyph-name="uni0145" unicode="&#x145;" horiz-adv-x="769" 
d="M158 700h71l340 -566q2 15 9 70l79 496h84l-111 -700h-71l-340 567q-2 -23 -9 -70l-79 -497h-84zM314 -41h80l-65 -190h-70z" />
    <glyph glyph-name="Eng" unicode="&#x14a;" horiz-adv-x="769" 
d="M378 -219l12 76q23 -9 50 -9q38 0 63 20.5t32 63.5l14 84l-330 551q-2 -23 -9 -70l-79 -497h-84l111 700h71l340 -566q2 15 9 70l79 496h84l-124 -784q-12 -74 -56 -111t-106 -37q-38 0 -77 13z" />
    <glyph glyph-name="Ntilde" unicode="&#xd1;" horiz-adv-x="769" 
d="M158 700h71l340 -566q2 15 9 70l79 496h84l-111 -700h-71l-340 567q-2 -23 -9 -70l-79 -497h-84zM497 769.5q-21 6.5 -47 18.5q-14 7 -28.5 12t-25.5 5q-18 0 -27.5 -9.5t-8.5 -26.5h-69q1 52 28.5 79t64.5 27q23 0 43.5 -6.5t46.5 -18.5q38 -17 56 -17q38 0 36 36h69
q-1 -53 -28.5 -79.5t-65.5 -26.5q-23 0 -44 6.5z" />
    <glyph glyph-name="O" unicode="O" horiz-adv-x="819" 
d="M195.5 31q-71.5 43 -109 114t-37.5 154q0 31 4 56q15 93 69 174.5t144 132t206 50.5q98 0 169.5 -43t109 -114t37.5 -154q0 -31 -4 -56q-15 -94 -67.5 -175.5t-141.5 -131.5t-210 -50q-98 0 -169.5 43zM532.5 107q70.5 39 113 103t54.5 140q4 32 4 47q0 62 -25.5 115.5
t-79 86.5t-132.5 33q-92 0 -162.5 -39t-113 -103t-54.5 -140q-4 -32 -4 -47q0 -62 25.5 -115.5t79 -86.5t132.5 -33q92 0 162.5 39z" />
    <glyph glyph-name="Oacute" unicode="&#xd3;" horiz-adv-x="819" 
d="M195.5 31q-71.5 43 -109 114t-37.5 154q0 31 4 56q15 93 69 174.5t144 132t206 50.5q98 0 169.5 -43t109 -114t37.5 -154q0 -31 -4 -56q-15 -94 -67.5 -175.5t-141.5 -131.5t-210 -50q-98 0 -169.5 43zM532.5 107q70.5 39 113 103t54.5 140q4 32 4 47q0 62 -25.5 115.5
t-79 86.5t-132.5 33q-92 0 -162.5 -39t-113 -103t-54.5 -140q-4 -32 -4 -47q0 -62 25.5 -115.5t79 -86.5t132.5 -33q92 0 162.5 39zM542 917h102l-127 -147h-89z" />
    <glyph glyph-name="Ocircumflex" unicode="&#xd4;" horiz-adv-x="819" 
d="M195.5 31q-71.5 43 -109 114t-37.5 154q0 31 4 56q15 93 69 174.5t144 132t206 50.5q98 0 169.5 -43t109 -114t37.5 -154q0 -31 -4 -56q-15 -94 -67.5 -175.5t-141.5 -131.5t-210 -50q-98 0 -169.5 43zM532.5 107q70.5 39 113 103t54.5 140q4 32 4 47q0 62 -25.5 115.5
t-79 86.5t-132.5 33q-92 0 -162.5 -39t-113 -103t-54.5 -140q-4 -32 -4 -47q0 -62 25.5 -115.5t79 -86.5t132.5 -33q92 0 162.5 39zM468 917h72l109 -146h-86l-65 86l-91 -86h-94z" />
    <glyph glyph-name="Odieresis" unicode="&#xd6;" horiz-adv-x="819" 
d="M195.5 31q-71.5 43 -109 114t-37.5 154q0 31 4 56q15 93 69 174.5t144 132t206 50.5q98 0 169.5 -43t109 -114t37.5 -154q0 -31 -4 -56q-15 -94 -67.5 -175.5t-141.5 -131.5t-210 -50q-98 0 -169.5 43zM532.5 107q70.5 39 113 103t54.5 140q4 32 4 47q0 62 -25.5 115.5
t-79 86.5t-132.5 33q-92 0 -162.5 -39t-113 -103t-54.5 -140q-4 -32 -4 -47q0 -62 25.5 -115.5t79 -86.5t132.5 -33q92 0 162.5 39zM347.5 797q-14.5 15 -14.5 36q0 23 18.5 41t41.5 18q21 0 36 -15.5t15 -36.5q0 -24 -18 -41t-42 -17q-22 0 -36.5 15zM549.5 797
q-14.5 15 -14.5 36q0 23 18.5 41t41.5 18q21 0 36 -15.5t15 -36.5q0 -24 -18 -41t-42 -17q-22 0 -36.5 15z" />
    <glyph glyph-name="Ograve" unicode="&#xd2;" horiz-adv-x="819" 
d="M195.5 31q-71.5 43 -109 114t-37.5 154q0 31 4 56q15 93 69 174.5t144 132t206 50.5q98 0 169.5 -43t109 -114t37.5 -154q0 -31 -4 -56q-15 -94 -67.5 -175.5t-141.5 -131.5t-210 -50q-98 0 -169.5 43zM532.5 107q70.5 39 113 103t54.5 140q4 32 4 47q0 62 -25.5 115.5
t-79 86.5t-132.5 33q-92 0 -162.5 -39t-113 -103t-54.5 -140q-4 -32 -4 -47q0 -62 25.5 -115.5t79 -86.5t132.5 -33q92 0 162.5 39zM381 917h98l68 -147h-85z" />
    <glyph glyph-name="Ohungarumlaut" unicode="&#x150;" horiz-adv-x="819" 
d="M195.5 31q-71.5 43 -109 114t-37.5 154q0 31 4 56q15 93 69 174.5t144 132t206 50.5q98 0 169.5 -43t109 -114t37.5 -154q0 -31 -4 -56q-15 -94 -67.5 -175.5t-141.5 -131.5t-210 -50q-98 0 -169.5 43zM532.5 107q70.5 39 113 103t54.5 140q4 32 4 47q0 62 -25.5 115.5
t-79 86.5t-132.5 33q-92 0 -162.5 -39t-113 -103t-54.5 -140q-4 -32 -4 -47q0 -62 25.5 -115.5t79 -86.5t132.5 -33q92 0 162.5 39zM458 927h92l-97 -147h-87zM613 927h92l-97 -147h-87z" />
    <glyph glyph-name="Omacron" unicode="&#x14c;" horiz-adv-x="819" 
d="M195.5 31q-71.5 43 -109 114t-37.5 154q0 31 4 56q15 93 69 174.5t144 132t206 50.5q98 0 169.5 -43t109 -114t37.5 -154q0 -31 -4 -56q-15 -94 -67.5 -175.5t-141.5 -131.5t-210 -50q-98 0 -169.5 43zM532.5 107q70.5 39 113 103t54.5 140q4 32 4 47q0 62 -25.5 115.5
t-79 86.5t-132.5 33q-92 0 -162.5 -39t-113 -103t-54.5 -140q-4 -32 -4 -47q0 -62 25.5 -115.5t79 -86.5t132.5 -33q92 0 162.5 39zM353 857h300l-12 -73h-300z" />
    <glyph glyph-name="Oslash" unicode="&#xd8;" horiz-adv-x="819" 
d="M136 77q-43 43 -65.5 100.5t-22.5 120.5q0 25 5 57q15 93 69 174.5t144 132t206 50.5q103 0 182 -50l76 86h82l-111 -125q43 -43 65.5 -100.5t22.5 -120.5q0 -25 -5 -57q-15 -94 -67.5 -175.5t-141.5 -131.5t-210 -50q-103 0 -182 50l-76 -86h-82zM599 600
q-56 32 -132 32q-92 0 -162.5 -39t-113 -103t-54.5 -140q-4 -21 -4 -48q0 -46 14.5 -88.5t43.5 -74.5zM532.5 107q70.5 39 113 103t54.5 140q4 21 4 48q0 46 -14.5 88.5t-43.5 74.5l-408 -461q56 -32 132 -32q92 0 162.5 39z" />
    <glyph glyph-name="Otilde" unicode="&#xd5;" horiz-adv-x="819" 
d="M195.5 31q-71.5 43 -109 114t-37.5 154q0 31 4 56q15 93 69 174.5t144 132t206 50.5q98 0 169.5 -43t109 -114t37.5 -154q0 -31 -4 -56q-15 -94 -67.5 -175.5t-141.5 -131.5t-210 -50q-98 0 -169.5 43zM532.5 107q70.5 39 113 103t54.5 140q4 32 4 47q0 62 -25.5 115.5
t-79 86.5t-132.5 33q-92 0 -162.5 -39t-113 -103t-54.5 -140q-4 -32 -4 -47q0 -62 25.5 -115.5t79 -86.5t132.5 -33q92 0 162.5 39zM520 769.5q-21 6.5 -47 18.5q-14 7 -28.5 12t-25.5 5q-18 0 -27.5 -9.5t-8.5 -26.5h-69q1 52 28.5 79t64.5 27q23 0 43.5 -6.5t46.5 -18.5
q38 -17 56 -17q38 0 36 36h69q-1 -53 -28.5 -79.5t-65.5 -26.5q-23 0 -44 6.5z" />
    <glyph glyph-name="OE" unicode="&#x152;" horiz-adv-x="1025" 
d="M206 31.5q-75 43.5 -114.5 117t-39.5 162.5q0 35 6 69q15 86 69 162.5t140 123t193 46.5q70 0 115 -13l459 1l-13 -80h-357l-36 -227h328l-13 -80h-328l-37 -233h364l-13 -80l-446 -1q-49 -11 -100 -11q-102 0 -177 43.5zM492 84l84 530q-23 11 -51.5 14.5t-69.5 3.5
q-83 0 -150 -36.5t-109 -96t-55 -129.5q-5 -25 -5 -60q0 -69 29 -123.5t86 -86.5t137 -32q53 0 104 16z" />
    <glyph glyph-name="P" unicode="P" horiz-adv-x="663" 
d="M158 700h247q109 0 182.5 -44.5t73.5 -142.5q0 -14 -4 -44q-19 -121 -106.5 -171t-223.5 -50h-157l-39 -248h-84zM340 328q99 0 160 33.5t74 117.5q2 10 2 27q0 114 -176 114h-171l-46 -292h157z" />
    <glyph glyph-name="Thorn" unicode="&#xde;" horiz-adv-x="658" 
d="M158 700h84l-20 -124h158q114 0 188 -44t74 -143q0 -14 -4 -44q-20 -121 -107 -171t-223 -50h-157l-20 -124h-84zM320 204q99 0 160 33.5t74 117.5q2 10 2 28q0 64 -50 88.5t-130 24.5h-166l-47 -292h157z" />
    <glyph glyph-name="Q" unicode="Q" horiz-adv-x="819" 
d="M583 43q-97 -55 -218 -55q-98 0 -169.5 43t-109 114t-37.5 154q0 31 4 56q15 93 69 174.5t144 132t206 50.5q98 0 169.5 -43t109 -114t37.5 -154q0 -31 -4 -56q-12 -73 -47 -140t-91 -117l82 -96l-59 -51zM530 106l-103 122l58 50l109 -128q43 38 70 90t36 110q4 32 4 47
q0 62 -25.5 115.5t-79 86.5t-132.5 33q-92 0 -162.5 -39t-113 -103t-54.5 -140q-4 -32 -4 -47q0 -62 25.5 -115.5t79 -86.5t132.5 -33q89 0 160 38z" />
    <glyph glyph-name="R" unicode="R" horiz-adv-x="697" 
d="M158 700h272q98 0 165.5 -43t67.5 -135q0 -18 -3 -39q-14 -89 -73 -137t-145 -63l190 -283h-99l-185 276h-173l-44 -276h-84zM380 356q76 0 130 32t66 105q2 18 2 25q0 102 -153 102h-196l-41 -264h192z" />
    <glyph glyph-name="Racute" unicode="&#x154;" horiz-adv-x="697" 
d="M158 700h272q98 0 165.5 -43t67.5 -135q0 -18 -3 -39q-14 -89 -73 -137t-145 -63l190 -283h-99l-185 276h-173l-44 -276h-84zM380 356q76 0 130 32t66 105q2 18 2 25q0 102 -153 102h-196l-41 -264h192zM469 917h102l-127 -147h-89z" />
    <glyph glyph-name="Rcaron" unicode="&#x158;" horiz-adv-x="697" 
d="M158 700h272q98 0 165.5 -43t67.5 -135q0 -18 -3 -39q-14 -89 -73 -137t-145 -63l190 -283h-99l-185 276h-173l-44 -276h-84zM380 356q76 0 130 32t66 105q2 18 2 25q0 102 -153 102h-196l-41 -264h192zM261 907h88l63 -86l89 86h96l-155 -146h-72z" />
    <glyph glyph-name="uni0156" unicode="&#x156;" horiz-adv-x="697" 
d="M158 700h272q98 0 165.5 -43t67.5 -135q0 -18 -3 -39q-14 -89 -73 -137t-145 -63l190 -283h-99l-185 276h-173l-44 -276h-84zM380 356q76 0 130 32t66 105q2 18 2 25q0 102 -153 102h-196l-41 -264h192zM295 -41h80l-65 -190h-70z" />
    <glyph glyph-name="S" unicode="S" horiz-adv-x="582" 
d="M123 4q-63 16 -110 45l13 81q48 -32 106.5 -47t121.5 -15q82 0 131.5 23.5t58.5 80.5q2 12 2 18q0 33 -21.5 57t-52.5 39.5t-87 37.5q-65 26 -103.5 46.5t-66 54.5t-27.5 84q0 8 2 28q9 59 48.5 98t96 58t119.5 19q58 0 112 -15.5t92 -41.5l-12 -80q-35 27 -84.5 42
t-101.5 15q-169 0 -186 -102q-1 -6 -1 -16q0 -31 20.5 -53t51 -37.5t84.5 -36.5q66 -25 106 -46t68 -55.5t28 -86.5q0 -20 -2 -31q-15 -95 -92 -137.5t-182 -42.5q-69 0 -132 16z" />
    <glyph glyph-name="Sacute" unicode="&#x15a;" horiz-adv-x="582" 
d="M123 4q-63 16 -110 45l13 81q48 -32 106.5 -47t121.5 -15q82 0 131.5 23.5t58.5 80.5q2 12 2 18q0 33 -21.5 57t-52.5 39.5t-87 37.5q-65 26 -103.5 46.5t-66 54.5t-27.5 84q0 8 2 28q9 59 48.5 98t96 58t119.5 19q58 0 112 -15.5t92 -41.5l-12 -80q-35 27 -84.5 42
t-101.5 15q-169 0 -186 -102q-1 -6 -1 -16q0 -31 20.5 -53t51 -37.5t84.5 -36.5q66 -25 106 -46t68 -55.5t28 -86.5q0 -20 -2 -31q-15 -95 -92 -137.5t-182 -42.5q-69 0 -132 16zM411 917h102l-127 -147h-89z" />
    <glyph glyph-name="Scaron" unicode="&#x160;" horiz-adv-x="582" 
d="M123 4q-63 16 -110 45l13 81q48 -32 106.5 -47t121.5 -15q82 0 131.5 23.5t58.5 80.5q2 12 2 18q0 33 -21.5 57t-52.5 39.5t-87 37.5q-65 26 -103.5 46.5t-66 54.5t-27.5 84q0 8 2 28q9 59 48.5 98t96 58t119.5 19q58 0 112 -15.5t92 -41.5l-12 -80q-35 27 -84.5 42
t-101.5 15q-169 0 -186 -102q-1 -6 -1 -16q0 -31 20.5 -53t51 -37.5t84.5 -36.5q66 -25 106 -46t68 -55.5t28 -86.5q0 -20 -2 -31q-15 -95 -92 -137.5t-182 -42.5q-69 0 -132 16zM203 907h88l63 -86l89 86h96l-155 -146h-72z" />
    <glyph glyph-name="Scedilla" unicode="&#x15e;" horiz-adv-x="582" 
d="M122 -212l11 65q18 -9 42 -14.5t46 -5.5q37 0 57 9.5t20 26.5q0 14 -16.5 21t-43.5 7q-21 0 -51 -5l36 97q-61 4 -115 19.5t-95 40.5l13 81q48 -32 106.5 -47t121.5 -15q82 0 131.5 23.5t58.5 80.5q2 12 2 18q0 33 -21.5 57t-52.5 39.5t-87 37.5q-65 26 -103.5 46.5
t-66 54.5t-27.5 84q0 8 2 28q9 59 48.5 98t96 58t119.5 19q58 0 112 -15.5t92 -41.5l-12 -80q-35 27 -84.5 42t-101.5 15q-169 0 -186 -102q-1 -6 -1 -16q0 -31 20.5 -53t51 -37.5t84.5 -36.5q66 -25 106 -46t68 -55.5t28 -86.5q0 -20 -2 -31q-13 -86 -79 -129t-159 -50
l-20 -47q43 2 69 -17t26 -54q0 -8 -1 -12q-7 -46 -44 -68.5t-94 -22.5q-53 0 -105 20z" />
    <glyph glyph-name="uni0218" unicode="&#x218;" horiz-adv-x="582" 
d="M123 4q-63 16 -110 45l13 81q48 -32 106.5 -47t121.5 -15q82 0 131.5 23.5t58.5 80.5q2 12 2 18q0 33 -21.5 57t-52.5 39.5t-87 37.5q-65 26 -103.5 46.5t-66 54.5t-27.5 84q0 8 2 28q9 59 48.5 98t96 58t119.5 19q58 0 112 -15.5t92 -41.5l-12 -80q-35 27 -84.5 42
t-101.5 15q-169 0 -186 -102q-1 -6 -1 -16q0 -31 20.5 -53t51 -37.5t84.5 -36.5q66 -25 106 -46t68 -55.5t28 -86.5q0 -20 -2 -31q-15 -95 -92 -137.5t-182 -42.5q-69 0 -132 16zM231 -41h80l-65 -190h-70z" />
    <glyph glyph-name="T" unicode="T" horiz-adv-x="603" 
d="M311 620h-246l13 80h576l-13 -80h-246l-98 -620h-84z" />
    <glyph glyph-name="Tbar" unicode="&#x166;" horiz-adv-x="612" 
d="M267 313h-119l11 70h119l37 237h-246l13 80h576l-13 -80h-246l-37 -237h119l-11 -70h-119l-50 -313h-84z" />
    <glyph glyph-name="Tcaron" unicode="&#x164;" horiz-adv-x="603" 
d="M311 620h-246l13 80h576l-13 -80h-246l-98 -620h-84zM229 907h88l63 -86l89 86h96l-155 -146h-72z" />
    <glyph glyph-name="uni0162" unicode="&#x162;" horiz-adv-x="603" 
d="M311 620h-246l13 80h576l-13 -80h-246l-98 -620h-84zM210 -41h80l-65 -190h-70z" />
    <glyph glyph-name="U" unicode="U" horiz-adv-x="755" 
d="M149 39.5q-74 51.5 -74 162.5q0 24 5 57l70 441h84l-70 -443q-4 -23 -4 -46q0 -143 179 -143q211 0 243 195l69 437h84l-71 -447q-22 -140 -109.5 -202.5t-214.5 -62.5q-117 0 -191 51.5z" />
    <glyph glyph-name="Uacute" unicode="&#xda;" horiz-adv-x="755" 
d="M149 39.5q-74 51.5 -74 162.5q0 24 5 57l70 441h84l-70 -443q-4 -23 -4 -46q0 -143 179 -143q211 0 243 195l69 437h84l-71 -447q-22 -140 -109.5 -202.5t-214.5 -62.5q-117 0 -191 51.5zM502 917h102l-127 -147h-89z" />
    <glyph glyph-name="Ucircumflex" unicode="&#xdb;" horiz-adv-x="755" 
d="M149 39.5q-74 51.5 -74 162.5q0 24 5 57l70 441h84l-70 -443q-4 -23 -4 -46q0 -143 179 -143q211 0 243 195l69 437h84l-71 -447q-22 -140 -109.5 -202.5t-214.5 -62.5q-117 0 -191 51.5zM428 917h72l109 -146h-86l-65 86l-91 -86h-94z" />
    <glyph glyph-name="Udieresis" unicode="&#xdc;" horiz-adv-x="755" 
d="M149 39.5q-74 51.5 -74 162.5q0 24 5 57l70 441h84l-70 -443q-4 -23 -4 -46q0 -143 179 -143q211 0 243 195l69 437h84l-71 -447q-22 -140 -109.5 -202.5t-214.5 -62.5q-117 0 -191 51.5zM307.5 797q-14.5 15 -14.5 36q0 23 18.5 41t41.5 18q21 0 36 -15.5t15 -36.5
q0 -24 -18 -41t-42 -17q-22 0 -36.5 15zM509.5 797q-14.5 15 -14.5 36q0 23 18.5 41t41.5 18q21 0 36 -15.5t15 -36.5q0 -24 -18 -41t-42 -17q-22 0 -36.5 15z" />
    <glyph glyph-name="Ugrave" unicode="&#xd9;" horiz-adv-x="755" 
d="M149 39.5q-74 51.5 -74 162.5q0 24 5 57l70 441h84l-70 -443q-4 -23 -4 -46q0 -143 179 -143q211 0 243 195l69 437h84l-71 -447q-22 -140 -109.5 -202.5t-214.5 -62.5q-117 0 -191 51.5zM341 917h98l68 -147h-85z" />
    <glyph glyph-name="Uhungarumlaut" unicode="&#x170;" horiz-adv-x="755" 
d="M149 39.5q-74 51.5 -74 162.5q0 24 5 57l70 441h84l-70 -443q-4 -23 -4 -46q0 -143 179 -143q211 0 243 195l69 437h84l-71 -447q-22 -140 -109.5 -202.5t-214.5 -62.5q-117 0 -191 51.5zM418 927h92l-97 -147h-87zM573 927h92l-97 -147h-87z" />
    <glyph glyph-name="Umacron" unicode="&#x16a;" horiz-adv-x="755" 
d="M149 39.5q-74 51.5 -74 162.5q0 24 5 57l70 441h84l-70 -443q-4 -23 -4 -46q0 -143 179 -143q211 0 243 195l69 437h84l-71 -447q-22 -140 -109.5 -202.5t-214.5 -62.5q-117 0 -191 51.5zM313 857h300l-12 -73h-300z" />
    <glyph glyph-name="Uogonek" unicode="&#x172;" horiz-adv-x="755" 
d="M341.5 -210.5q-23.5 21.5 -23.5 55.5q0 11 1 16q8 52 93 132q-38 -5 -72 -5q-117 0 -191 51.5t-74 162.5q0 24 5 57l70 441h84l-70 -443q-4 -23 -4 -46q0 -143 179 -143q211 0 243 195l69 437h84l-71 -447q-21 -136 -115 -206q-72 -53 -108.5 -99.5t-40.5 -77.5
q-1 -3 -1 -8q0 -13 8.5 -21.5t24.5 -8.5q17 0 36.5 6.5t34.5 16.5l-11 -67q-36 -20 -83 -20q-44 0 -67.5 21.5z" />
    <glyph glyph-name="Uring" unicode="&#x16e;" horiz-adv-x="755" 
d="M149 39.5q-74 51.5 -74 162.5q0 24 5 57l70 441h84l-70 -443q-4 -23 -4 -46q0 -143 179 -143q211 0 243 195l69 437h84l-71 -447q-22 -140 -109.5 -202.5t-214.5 -62.5q-117 0 -191 51.5zM375 770.5q-30 26.5 -30 70.5q0 36 18.5 64.5t48.5 43.5t63 15q43 0 72.5 -26.5
t29.5 -69.5q0 -12 -1 -18q-8 -48 -45 -77t-83 -29q-43 0 -73 26.5zM497.5 816q20.5 17 20.5 47q0 20 -13 33t-31 13q-25 0 -44.5 -14.5t-23.5 -40.5q-1 -4 -1 -11q0 -20 12.5 -32t31.5 -12q28 0 48.5 17z" />
    <glyph glyph-name="V" unicode="V" horiz-adv-x="689" 
d="M76 700h87l147 -606l340 606h93l-401 -700h-87z" />
    <glyph glyph-name="W" unicode="W" horiz-adv-x="1011" 
d="M80 700h85l91 -594l283 594h68l94 -583l269 583h89l-325 -700h-96l-88 548l-261 -548h-100z" />
    <glyph glyph-name="Wacute" unicode="&#x1e82;" horiz-adv-x="1011" 
d="M80 700h85l91 -594l283 594h68l94 -583l269 583h89l-325 -700h-96l-88 548l-261 -548h-100zM637 917h102l-127 -147h-89z" />
    <glyph glyph-name="Wcircumflex" unicode="&#x174;" horiz-adv-x="1011" 
d="M80 700h85l91 -594l283 594h68l94 -583l269 583h89l-325 -700h-96l-88 548l-261 -548h-100zM563 917h72l109 -146h-86l-65 86l-91 -86h-94z" />
    <glyph glyph-name="Wdieresis" unicode="&#x1e84;" horiz-adv-x="1011" 
d="M80 700h85l91 -594l283 594h68l94 -583l269 583h89l-325 -700h-96l-88 548l-261 -548h-100zM442.5 797q-14.5 15 -14.5 36q0 23 18.5 41t41.5 18q21 0 36 -15.5t15 -36.5q0 -24 -18 -41t-42 -17q-22 0 -36.5 15zM644.5 797q-14.5 15 -14.5 36q0 23 18.5 41t41.5 18
q21 0 36 -15.5t15 -36.5q0 -24 -18 -41t-42 -17q-22 0 -36.5 15z" />
    <glyph glyph-name="Wgrave" unicode="&#x1e80;" horiz-adv-x="1011" 
d="M80 700h85l91 -594l283 594h68l94 -583l269 583h89l-325 -700h-96l-88 548l-261 -548h-100zM476 917h98l68 -147h-85z" />
    <glyph glyph-name="X" unicode="X" horiz-adv-x="645" 
d="M285 364l-199 336h93l163 -274l249 274h106l-314 -345l211 -355h-93l-174 293l-267 -293h-106z" />
    <glyph glyph-name="Y" unicode="Y" horiz-adv-x="656" 
d="M282 265l-206 435h88l168 -355l283 355h95l-344 -435l-43 -265h-84z" />
    <glyph glyph-name="Yacute" unicode="&#xdd;" horiz-adv-x="656" 
d="M282 265l-206 435h88l168 -355l283 355h95l-344 -435l-43 -265h-84zM451 917h102l-127 -147h-89z" />
    <glyph glyph-name="Ycircumflex" unicode="&#x176;" horiz-adv-x="656" 
d="M282 265l-206 435h88l168 -355l283 355h95l-344 -435l-43 -265h-84zM377 917h72l109 -146h-86l-65 86l-91 -86h-94z" />
    <glyph glyph-name="Ydieresis" unicode="&#x178;" horiz-adv-x="656" 
d="M282 265l-206 435h88l168 -355l283 355h95l-344 -435l-43 -265h-84zM256.5 797q-14.5 15 -14.5 36q0 23 18.5 41t41.5 18q21 0 36 -15.5t15 -36.5q0 -24 -18 -41t-42 -17q-22 0 -36.5 15zM458.5 797q-14.5 15 -14.5 36q0 23 18.5 41t41.5 18q21 0 36 -15.5t15 -36.5
q0 -24 -18 -41t-42 -17q-22 0 -36.5 15z" />
    <glyph glyph-name="Ygrave" unicode="&#x1ef2;" horiz-adv-x="656" 
d="M282 265l-206 435h88l168 -355l283 355h95l-344 -435l-43 -265h-84zM290 917h98l68 -147h-85z" />
    <glyph glyph-name="Z" unicode="Z" horiz-adv-x="586" 
d="M0 76l485 544h-388l13 80h493l-12 -76l-485 -544h415l-13 -80h-519z" />
    <glyph glyph-name="Zacute" unicode="&#x179;" horiz-adv-x="586" 
d="M0 76l485 544h-388l13 80h493l-12 -76l-485 -544h415l-13 -80h-519zM434 917h102l-127 -147h-89z" />
    <glyph glyph-name="Zcaron" unicode="&#x17d;" horiz-adv-x="586" 
d="M0 76l485 544h-388l13 80h493l-12 -76l-485 -544h415l-13 -80h-519zM226 907h88l63 -86l89 86h96l-155 -146h-72z" />
    <glyph glyph-name="Zdotaccent" unicode="&#x17b;" horiz-adv-x="586" 
d="M0 76l485 544h-388l13 80h493l-12 -76l-485 -544h415l-13 -80h-519zM333.5 781.5q-15.5 13.5 -15.5 37.5q0 32 19 49t46 17q24 0 39.5 -13.5t15.5 -36.5q0 -33 -18.5 -50t-46.5 -17q-24 0 -39.5 13.5z" />
    <glyph glyph-name="uni021A" unicode="&#x21a;" horiz-adv-x="603" 
d="M311 620h-246l13 80h576l-13 -80h-246l-98 -620h-84zM210 -41h80l-65 -190h-70z" />
    <glyph glyph-name="a" unicode="a" horiz-adv-x="619" 
d="M128 15q-47 27 -73 75t-26 109q0 14 4 46q11 70 50.5 126.5t98.5 88.5t126 32q117 0 183 -95l13 83h72l-76 -480h-72l13 82q-85 -94 -205 -94q-61 0 -108 27zM364.5 97q53.5 35 83.5 85l19 120q-12 49 -53 82.5t-101 33.5q-48 0 -91 -21.5t-72.5 -62t-38.5 -94.5
q-3 -18 -3 -34q0 -65 39.5 -104.5t101.5 -39.5t115.5 35z" />
    <glyph glyph-name="aacute" unicode="&#xe1;" horiz-adv-x="619" 
d="M128 15q-47 27 -73 75t-26 109q0 14 4 46q11 70 50.5 126.5t98.5 88.5t126 32q117 0 183 -95l13 83h72l-76 -480h-72l13 82q-85 -94 -205 -94q-61 0 -108 27zM364.5 97q53.5 35 83.5 85l19 120q-12 49 -53 82.5t-101 33.5q-48 0 -91 -21.5t-72.5 -62t-38.5 -94.5
q-3 -18 -3 -34q0 -65 39.5 -104.5t101.5 -39.5t115.5 35zM396 697h102l-127 -147h-89z" />
    <glyph glyph-name="abreve" unicode="&#x103;" horiz-adv-x="619" 
d="M128 15q-47 27 -73 75t-26 109q0 14 4 46q11 70 50.5 126.5t98.5 88.5t126 32q117 0 183 -95l13 83h72l-76 -480h-72l13 82q-85 -94 -205 -94q-61 0 -108 27zM364.5 97q53.5 35 83.5 85l19 120q-12 49 -53 82.5t-101 33.5q-48 0 -91 -21.5t-72.5 -62t-38.5 -94.5
q-3 -18 -3 -34q0 -65 39.5 -104.5t101.5 -39.5t115.5 35zM207 596l12 78q33 -24 63 -34t68 -10t73.5 10t75.5 34l-12 -78q-66 -42 -145 -42q-83 0 -135 42z" />
    <glyph glyph-name="acircumflex" unicode="&#xe2;" horiz-adv-x="619" 
d="M128 15q-47 27 -73 75t-26 109q0 14 4 46q11 70 50.5 126.5t98.5 88.5t126 32q117 0 183 -95l13 83h72l-76 -480h-72l13 82q-85 -94 -205 -94q-61 0 -108 27zM364.5 97q53.5 35 83.5 85l19 120q-12 49 -53 82.5t-101 33.5q-48 0 -91 -21.5t-72.5 -62t-38.5 -94.5
q-3 -18 -3 -34q0 -65 39.5 -104.5t101.5 -39.5t115.5 35zM322 697h72l109 -146h-86l-65 86l-91 -86h-94z" />
    <glyph glyph-name="adieresis" unicode="&#xe4;" horiz-adv-x="619" 
d="M128 15q-47 27 -73 75t-26 109q0 14 4 46q11 70 50.5 126.5t98.5 88.5t126 32q117 0 183 -95l13 83h72l-76 -480h-72l13 82q-85 -94 -205 -94q-61 0 -108 27zM364.5 97q53.5 35 83.5 85l19 120q-12 49 -53 82.5t-101 33.5q-48 0 -91 -21.5t-72.5 -62t-38.5 -94.5
q-3 -18 -3 -34q0 -65 39.5 -104.5t101.5 -39.5t115.5 35zM201.5 577q-14.5 15 -14.5 36q0 23 18.5 41t41.5 18q21 0 36 -15.5t15 -36.5q0 -24 -18 -41t-42 -17q-22 0 -36.5 15zM403.5 577q-14.5 15 -14.5 36q0 23 18.5 41t41.5 18q21 0 36 -15.5t15 -36.5q0 -24 -18 -41
t-42 -17q-22 0 -36.5 15z" />
    <glyph glyph-name="agrave" unicode="&#xe0;" horiz-adv-x="619" 
d="M128 15q-47 27 -73 75t-26 109q0 14 4 46q11 70 50.5 126.5t98.5 88.5t126 32q117 0 183 -95l13 83h72l-76 -480h-72l13 82q-85 -94 -205 -94q-61 0 -108 27zM364.5 97q53.5 35 83.5 85l19 120q-12 49 -53 82.5t-101 33.5q-48 0 -91 -21.5t-72.5 -62t-38.5 -94.5
q-3 -18 -3 -34q0 -65 39.5 -104.5t101.5 -39.5t115.5 35zM235 697h98l68 -147h-85z" />
    <glyph glyph-name="amacron" unicode="&#x101;" horiz-adv-x="619" 
d="M128 15q-47 27 -73 75t-26 109q0 14 4 46q11 70 50.5 126.5t98.5 88.5t126 32q117 0 183 -95l13 83h72l-76 -480h-72l13 82q-85 -94 -205 -94q-61 0 -108 27zM364.5 97q53.5 35 83.5 85l19 120q-12 49 -53 82.5t-101 33.5q-48 0 -91 -21.5t-72.5 -62t-38.5 -94.5
q-3 -18 -3 -34q0 -65 39.5 -104.5t101.5 -39.5t115.5 35zM207 637h300l-12 -73h-300z" />
    <glyph glyph-name="aogonek" unicode="&#x105;" horiz-adv-x="619" 
d="M332.5 -210.5q-23.5 21.5 -23.5 56.5q0 37 28.5 80.5t89.5 89.5l4 3l10 63q-85 -94 -205 -94q-61 0 -108 27t-73 75t-26 109q0 14 4 46q11 70 50.5 126.5t98.5 88.5t126 32q117 0 183 -95l13 83h72l-76 -480q-46 -28 -77.5 -64.5t-35.5 -65.5q-1 -3 -1 -8q0 -14 9 -21.5
t26 -7.5q28 0 55 11l-11 -66q-30 -10 -65 -10q-44 0 -67.5 21.5zM364.5 97q53.5 35 83.5 85l19 120q-12 49 -53 82.5t-101 33.5q-48 0 -91 -21.5t-72.5 -62t-38.5 -94.5q-3 -18 -3 -34q0 -65 39.5 -104.5t101.5 -39.5t115.5 35z" />
    <glyph glyph-name="aring" unicode="&#xe5;" horiz-adv-x="619" 
d="M128 15q-47 27 -73 75t-26 109q0 14 4 46q11 70 50.5 126.5t98.5 88.5t126 32q117 0 183 -95l13 83h72l-76 -480h-72l13 82q-85 -94 -205 -94q-61 0 -108 27zM364.5 97q53.5 35 83.5 85l19 120q-12 49 -53 82.5t-101 33.5q-48 0 -91 -21.5t-72.5 -62t-38.5 -94.5
q-3 -18 -3 -34q0 -65 39.5 -104.5t101.5 -39.5t115.5 35zM269 550.5q-30 26.5 -30 70.5q0 36 18.5 64.5t48.5 43.5t63 15q43 0 72.5 -26.5t29.5 -69.5q0 -12 -1 -18q-8 -48 -45 -77t-83 -29q-43 0 -73 26.5zM391.5 596q20.5 17 20.5 47q0 20 -13 33t-31 13
q-25 0 -44.5 -14.5t-23.5 -40.5q-1 -4 -1 -11q0 -20 12.5 -32t31.5 -12q28 0 48.5 17z" />
    <glyph glyph-name="atilde" unicode="&#xe3;" horiz-adv-x="619" 
d="M128 15q-47 27 -73 75t-26 109q0 14 4 46q11 70 50.5 126.5t98.5 88.5t126 32q117 0 183 -95l13 83h72l-76 -480h-72l13 82q-85 -94 -205 -94q-61 0 -108 27zM364.5 97q53.5 35 83.5 85l19 120q-12 49 -53 82.5t-101 33.5q-48 0 -91 -21.5t-72.5 -62t-38.5 -94.5
q-3 -18 -3 -34q0 -65 39.5 -104.5t101.5 -39.5t115.5 35zM374 549.5q-21 6.5 -47 18.5q-14 7 -28.5 12t-25.5 5q-18 0 -27.5 -9.5t-8.5 -26.5h-69q1 52 28.5 79t64.5 27q23 0 43.5 -6.5t46.5 -18.5q38 -17 56 -17q38 0 36 36h69q-1 -53 -28.5 -79.5t-65.5 -26.5
q-23 0 -44 6.5z" />
    <glyph glyph-name="ae" unicode="&#xe6;" horiz-adv-x="982" 
d="M128 15q-47 27 -73 75t-26 109q0 14 4 46q11 70 50.5 126.5t98.5 88.5t126 32q117 0 183 -95l13 83h72l-13 -79q36 45 85.5 68t104.5 23q96 0 144 -51t48 -131q0 -54 -21 -108h-382q-4 -71 47.5 -105.5t124.5 -34.5q42 0 86 11t80 30l-13 -81q-35 -16 -79.5 -25t-89.5 -9
q-56 0 -108.5 27t-75.5 75l-14 -90h-72l13 82q-85 -94 -205 -94q-61 0 -108 27zM364.5 97q53.5 35 83.5 85l19 120q-12 49 -53 82.5t-101 33.5q-48 0 -91 -21.5t-72.5 -62t-38.5 -94.5q-3 -18 -3 -34q0 -65 39.5 -104.5t101.5 -39.5t115.5 35zM865 272q5 18 5 36
q0 45 -30 77.5t-96 32.5q-67 0 -121.5 -39.5t-69.5 -106.5h312z" />
    <glyph glyph-name="b" unicode="b" horiz-adv-x="619" 
d="M186.5 13.5q-43.5 25.5 -73.5 68.5l-14 -82h-72l111 700h80l-48 -294q36 38 86 62t111 24t108 -27t73 -75t26 -109q0 -14 -4 -46q-11 -71 -49 -127t-96.5 -88t-129.5 -32q-65 0 -108.5 25.5zM424 109.5q55 47.5 68 130.5q3 18 3 34q0 65 -39.5 104.5t-101.5 39.5
q-65 0 -116.5 -34.5t-82.5 -85.5l-21 -120q14 -50 55 -83t101 -33q79 0 134 47.5z" />
    <glyph glyph-name="c" unicode="c" horiz-adv-x="495" 
d="M143.5 11.5q-51.5 23.5 -82.5 71t-31 115.5q0 26 4 50q13 83 58.5 138t108 80.5t128.5 25.5q83 0 148 -44l-13 -75q-49 45 -129 45t-144 -44t-79 -134q-3 -18 -3 -35q0 -71 46 -107t119 -36q70 0 153 43l-13 -83q-76 -34 -158 -34q-61 0 -112.5 23.5z" />
    <glyph glyph-name="cacute" unicode="&#x107;" horiz-adv-x="495" 
d="M143.5 11.5q-51.5 23.5 -82.5 71t-31 115.5q0 26 4 50q13 83 58.5 138t108 80.5t128.5 25.5q83 0 148 -44l-13 -75q-49 45 -129 45t-144 -44t-79 -134q-3 -18 -3 -35q0 -71 46 -107t119 -36q70 0 153 43l-13 -83q-76 -34 -158 -34q-61 0 -112.5 23.5zM389 697h102
l-127 -147h-89z" />
    <glyph glyph-name="ccaron" unicode="&#x10d;" horiz-adv-x="495" 
d="M143.5 11.5q-51.5 23.5 -82.5 71t-31 115.5q0 26 4 50q13 83 58.5 138t108 80.5t128.5 25.5q83 0 148 -44l-13 -75q-49 45 -129 45t-144 -44t-79 -134q-3 -18 -3 -35q0 -71 46 -107t119 -36q70 0 153 43l-13 -83q-76 -34 -158 -34q-61 0 -112.5 23.5zM181 687h88l63 -86
l89 86h96l-155 -146h-72z" />
    <glyph glyph-name="ccedilla" unicode="&#xe7;" horiz-adv-x="495" 
d="M107 -212l11 65q18 -9 42 -14.5t46 -5.5q37 0 57 9.5t20 26.5q0 14 -16.5 21t-43.5 7q-21 0 -51 -5l37 100q-78 13 -128.5 66t-50.5 140q0 26 4 50q13 83 58.5 138t108 80.5t128.5 25.5q83 0 148 -44l-13 -75q-49 45 -129 45t-144 -44t-79 -134q-3 -18 -3 -35
q0 -71 46 -107t119 -36q70 0 153 43l-13 -83q-65 -30 -139 -34l-19 -46q43 2 69 -17t26 -54q0 -8 -1 -12q-7 -46 -44 -68.5t-94 -22.5q-53 0 -105 20z" />
    <glyph glyph-name="cdotaccent" unicode="&#x10b;" horiz-adv-x="495" 
d="M143.5 11.5q-51.5 23.5 -82.5 71t-31 115.5q0 26 4 50q13 83 58.5 138t108 80.5t128.5 25.5q83 0 148 -44l-13 -75q-49 45 -129 45t-144 -44t-79 -134q-3 -18 -3 -35q0 -71 46 -107t119 -36q70 0 153 43l-13 -83q-76 -34 -158 -34q-61 0 -112.5 23.5zM288.5 561.5
q-15.5 13.5 -15.5 37.5q0 32 19 49t46 17q24 0 39.5 -13.5t15.5 -36.5q0 -33 -18.5 -50t-46.5 -17q-24 0 -39.5 13.5z" />
    <glyph glyph-name="d" unicode="d" horiz-adv-x="620" 
d="M128 15q-47 27 -73 75t-26 109q0 14 4 46q11 70 49.5 126.5t96 88.5t124.5 32q65 0 110.5 -26t69.5 -64l48 298h80l-111 -700h-71l13 85q-80 -97 -206 -97q-61 0 -108 27zM364.5 97q53.5 35 83.5 85l20 120q-13 49 -54 82.5t-101 33.5q-48 0 -91 -21.5t-72.5 -62
t-38.5 -94.5q-3 -18 -3 -34q0 -65 39.5 -104.5t101.5 -39.5t115.5 35z" />
    <glyph glyph-name="eth" unicode="&#xf0;" horiz-adv-x="591" 
d="M132.5 12q-49.5 24 -77 68.5t-27.5 103.5q0 21 3 42q10 62 48 112t93.5 78t115.5 28q69 0 120.5 -29.5t68.5 -75.5l2 27q-4 81 -38.5 137t-94.5 86l-108 -94l-40 46l83 70q-51 13 -125 13l8 76q98 0 179 -32l102 87l39 -46l-82 -71q66 -40 104.5 -108.5t38.5 -169.5
q0 -40 -8 -94q-21 -135 -100 -206.5t-191 -71.5q-64 0 -113.5 24zM372.5 103.5q48.5 39.5 69.5 106.5q2 18 2 25q0 61 -39.5 98t-106.5 37q-53 0 -96.5 -24t-69 -65.5t-25.5 -92.5q0 -57 38 -90.5t105 -33.5q74 0 122.5 39.5z" />
    <glyph glyph-name="dcaron" unicode="&#x10f;" horiz-adv-x="620" 
d="M128 15q-47 27 -73 75t-26 109q0 14 4 46q11 70 49.5 126.5t96 88.5t124.5 32q65 0 110.5 -26t69.5 -64l48 298h80l-111 -700h-71l13 85q-80 -97 -206 -97q-61 0 -108 27zM685 700h80l-57 -184h-70zM364.5 97q53.5 35 83.5 85l20 120q-13 49 -54 82.5t-101 33.5
q-48 0 -91 -21.5t-72.5 -62t-38.5 -94.5q-3 -18 -3 -34q0 -65 39.5 -104.5t101.5 -39.5t115.5 35z" />
    <glyph glyph-name="dcroat" unicode="&#x111;" horiz-adv-x="620" 
d="M128 15q-47 27 -73 75t-26 109q0 14 4 46q11 70 49.5 126.5t96 88.5t124.5 32q65 0 110.5 -26t69.5 -64l26 159h-178l9 60h178l13 79h80l-13 -79h60l-9 -60h-60l-89 -561h-71l13 85q-80 -97 -206 -97q-61 0 -108 27zM364.5 97q53.5 35 83.5 85l20 120q-13 49 -54 82.5
t-101 33.5q-48 0 -91 -21.5t-72.5 -62t-38.5 -94.5q-3 -18 -3 -34q0 -65 39.5 -104.5t101.5 -39.5t115.5 35z" />
    <glyph glyph-name="e" unicode="e" horiz-adv-x="548" 
d="M152 12q-54 24 -88 72t-34 116q0 21 3 43q12 79 55 135.5t102 85t119 28.5q98 0 149 -53.5t51 -135.5q0 -51 -19 -101h-382q-4 -71 47.5 -105.5t124.5 -34.5q46 0 90.5 11t80.5 30l-13 -81q-73 -34 -172 -34q-60 0 -114 24zM431 272q5 18 5 36q0 45 -30 77.5t-96 32.5
q-67 0 -121.5 -39.5t-69.5 -106.5h312z" />
    <glyph glyph-name="eacute" unicode="&#xe9;" horiz-adv-x="548" 
d="M152 12q-54 24 -88 72t-34 116q0 21 3 43q12 79 55 135.5t102 85t119 28.5q98 0 149 -53.5t51 -135.5q0 -51 -19 -101h-382q-4 -71 47.5 -105.5t124.5 -34.5q46 0 90.5 11t80.5 30l-13 -81q-73 -34 -172 -34q-60 0 -114 24zM431 272q5 18 5 36q0 45 -30 77.5t-96 32.5
q-67 0 -121.5 -39.5t-69.5 -106.5h312zM375 697h102l-127 -147h-89z" />
    <glyph glyph-name="ecaron" unicode="&#x11b;" horiz-adv-x="548" 
d="M152 12q-54 24 -88 72t-34 116q0 21 3 43q12 79 55 135.5t102 85t119 28.5q98 0 149 -53.5t51 -135.5q0 -51 -19 -101h-382q-4 -71 47.5 -105.5t124.5 -34.5q46 0 90.5 11t80.5 30l-13 -81q-73 -34 -172 -34q-60 0 -114 24zM431 272q5 18 5 36q0 45 -30 77.5t-96 32.5
q-67 0 -121.5 -39.5t-69.5 -106.5h312zM167 687h88l63 -86l89 86h96l-155 -146h-72z" />
    <glyph glyph-name="ecircumflex" unicode="&#xea;" horiz-adv-x="548" 
d="M152 12q-54 24 -88 72t-34 116q0 21 3 43q12 79 55 135.5t102 85t119 28.5q98 0 149 -53.5t51 -135.5q0 -51 -19 -101h-382q-4 -71 47.5 -105.5t124.5 -34.5q46 0 90.5 11t80.5 30l-13 -81q-73 -34 -172 -34q-60 0 -114 24zM431 272q5 18 5 36q0 45 -30 77.5t-96 32.5
q-67 0 -121.5 -39.5t-69.5 -106.5h312zM301 697h72l109 -146h-86l-65 86l-91 -86h-94z" />
    <glyph glyph-name="edieresis" unicode="&#xeb;" horiz-adv-x="548" 
d="M152 12q-54 24 -88 72t-34 116q0 21 3 43q12 79 55 135.5t102 85t119 28.5q98 0 149 -53.5t51 -135.5q0 -51 -19 -101h-382q-4 -71 47.5 -105.5t124.5 -34.5q46 0 90.5 11t80.5 30l-13 -81q-73 -34 -172 -34q-60 0 -114 24zM431 272q5 18 5 36q0 45 -30 77.5t-96 32.5
q-67 0 -121.5 -39.5t-69.5 -106.5h312zM180.5 577q-14.5 15 -14.5 36q0 23 18.5 41t41.5 18q21 0 36 -15.5t15 -36.5q0 -24 -18 -41t-42 -17q-22 0 -36.5 15zM382.5 577q-14.5 15 -14.5 36q0 23 18.5 41t41.5 18q21 0 36 -15.5t15 -36.5q0 -24 -18 -41t-42 -17
q-22 0 -36.5 15z" />
    <glyph glyph-name="edotaccent" unicode="&#x117;" horiz-adv-x="548" 
d="M152 12q-54 24 -88 72t-34 116q0 21 3 43q12 79 55 135.5t102 85t119 28.5q98 0 149 -53.5t51 -135.5q0 -51 -19 -101h-382q-4 -71 47.5 -105.5t124.5 -34.5q46 0 90.5 11t80.5 30l-13 -81q-73 -34 -172 -34q-60 0 -114 24zM431 272q5 18 5 36q0 45 -30 77.5t-96 32.5
q-67 0 -121.5 -39.5t-69.5 -106.5h312zM274.5 561.5q-15.5 13.5 -15.5 37.5q0 32 19 49t46 17q24 0 39.5 -13.5t15.5 -36.5q0 -33 -18.5 -50t-46.5 -17q-24 0 -39.5 13.5z" />
    <glyph glyph-name="egrave" unicode="&#xe8;" horiz-adv-x="548" 
d="M152 12q-54 24 -88 72t-34 116q0 21 3 43q12 79 55 135.5t102 85t119 28.5q98 0 149 -53.5t51 -135.5q0 -51 -19 -101h-382q-4 -71 47.5 -105.5t124.5 -34.5q46 0 90.5 11t80.5 30l-13 -81q-73 -34 -172 -34q-60 0 -114 24zM431 272q5 18 5 36q0 45 -30 77.5t-96 32.5
q-67 0 -121.5 -39.5t-69.5 -106.5h312zM214 697h98l68 -147h-85z" />
    <glyph glyph-name="emacron" unicode="&#x113;" horiz-adv-x="548" 
d="M152 12q-54 24 -88 72t-34 116q0 21 3 43q12 79 55 135.5t102 85t119 28.5q98 0 149 -53.5t51 -135.5q0 -51 -19 -101h-382q-4 -71 47.5 -105.5t124.5 -34.5q46 0 90.5 11t80.5 30l-13 -81q-73 -34 -172 -34q-60 0 -114 24zM431 272q5 18 5 36q0 45 -30 77.5t-96 32.5
q-67 0 -121.5 -39.5t-69.5 -106.5h312zM186 637h300l-12 -73h-300z" />
    <glyph glyph-name="eogonek" unicode="&#x119;" horiz-adv-x="548" 
d="M244 -211q-22 21 -22 55q0 33 23 72.5t66 74.5q-22 -3 -45 -3q-60 0 -114 24t-88 72t-34 116q0 21 3 43q12 79 55 135.5t102 85t119 28.5q98 0 149 -53.5t51 -135.5q0 -51 -19 -101h-382q-4 -71 47.5 -105.5t124.5 -34.5q46 0 90.5 11t80.5 30l-13 -81
q-68 -49 -103.5 -90t-35.5 -70q0 -13 8 -21t24 -8q35 0 72 25l-11 -69q-36 -21 -83 -21q-43 0 -65 21zM431 272q5 18 5 36q0 45 -30 77.5t-96 32.5q-67 0 -121.5 -39.5t-69.5 -106.5h312z" />
    <glyph glyph-name="f" unicode="f" horiz-adv-x="382" 
d="M130 406h-90l12 74h90l11 71q14 85 70 123t128 38q63 0 112 -23l-12 -72q-38 21 -91 21q-52 0 -85.5 -20t-42.5 -76l-10 -62h180l-12 -74h-180l-64 -406h-80z" />
    <glyph glyph-name="g" unicode="g" horiz-adv-x="621" 
d="M16 -182l12 76q35 -26 79 -39t102 -13q83 0 141 40t71 121l11 68q-35 -36 -84.5 -59.5t-111.5 -23.5q-61 0 -108 27t-73 75t-26 109q0 14 4 46q11 70 50.5 126.5t98.5 88.5t126 32q121 0 181 -99l14 87h74l-76 -483q-18 -116 -98 -172.5t-188 -56.5q-123 0 -199 50z
M364.5 95q53.5 33 83.5 80l21 128q-14 49 -55 82t-101 33q-48 0 -91 -21.5t-72.5 -62t-38.5 -94.5q-3 -18 -3 -34q0 -65 39.5 -104.5t101.5 -39.5t115.5 33z" />
    <glyph glyph-name="gbreve" unicode="&#x11f;" horiz-adv-x="621" 
d="M16 -182l12 76q35 -26 79 -39t102 -13q83 0 141 40t71 121l11 68q-35 -36 -84.5 -59.5t-111.5 -23.5q-61 0 -108 27t-73 75t-26 109q0 14 4 46q11 70 50.5 126.5t98.5 88.5t126 32q121 0 181 -99l14 87h74l-76 -483q-18 -116 -98 -172.5t-188 -56.5q-123 0 -199 50z
M364.5 95q53.5 33 83.5 80l21 128q-14 49 -55 82t-101 33q-48 0 -91 -21.5t-72.5 -62t-38.5 -94.5q-3 -18 -3 -34q0 -65 39.5 -104.5t101.5 -39.5t115.5 33zM192 596l12 78q33 -24 63 -34t68 -10t73.5 10t75.5 34l-12 -78q-66 -42 -145 -42q-83 0 -135 42z" />
    <glyph glyph-name="uni0123" unicode="&#x123;" horiz-adv-x="621" 
d="M338 710h70l-49 -164h-80zM16 -182l12 76q35 -26 79 -39t102 -13q83 0 141 40t71 121l11 68q-35 -36 -84.5 -59.5t-111.5 -23.5q-61 0 -108 27t-73 75t-26 109q0 14 4 46q11 70 50.5 126.5t98.5 88.5t126 32q121 0 181 -99l14 87h74l-76 -483q-18 -116 -98 -172.5
t-188 -56.5q-123 0 -199 50zM364.5 95q53.5 33 83.5 80l21 128q-14 49 -55 82t-101 33q-48 0 -91 -21.5t-72.5 -62t-38.5 -94.5q-3 -18 -3 -34q0 -65 39.5 -104.5t101.5 -39.5t115.5 33z" />
    <glyph glyph-name="gdotaccent" unicode="&#x121;" horiz-adv-x="621" 
d="M16 -182l12 76q35 -26 79 -39t102 -13q83 0 141 40t71 121l11 68q-35 -36 -84.5 -59.5t-111.5 -23.5q-61 0 -108 27t-73 75t-26 109q0 14 4 46q11 70 50.5 126.5t98.5 88.5t126 32q121 0 181 -99l14 87h74l-76 -483q-18 -116 -98 -172.5t-188 -56.5q-123 0 -199 50z
M364.5 95q53.5 33 83.5 80l21 128q-14 49 -55 82t-101 33q-48 0 -91 -21.5t-72.5 -62t-38.5 -94.5q-3 -18 -3 -34q0 -65 39.5 -104.5t101.5 -39.5t115.5 33zM280.5 561.5q-15.5 13.5 -15.5 37.5q0 32 19 49t46 17q24 0 39.5 -13.5t15.5 -36.5q0 -33 -18.5 -50t-46.5 -17
q-24 0 -39.5 13.5z" />
    <glyph glyph-name="h" unicode="h" horiz-adv-x="586" 
d="M138 700h80l-46 -286q37 35 84.5 56.5t96.5 21.5q78 0 123.5 -44.5t45.5 -117.5q0 -17 -3 -37l-46 -293h-81l46 289q2 11 2 30q0 50 -29 74.5t-78 24.5q-48 0 -95.5 -29t-80.5 -70l-50 -319h-80z" />
    <glyph glyph-name="hbar" unicode="&#x127;" horiz-adv-x="586" 
d="M116 561h-59l9 60h59l13 79h80l-13 -79h178l-9 -60h-178l-24 -147q37 35 84.5 56.5t96.5 21.5q78 0 123.5 -44.5t45.5 -117.5q0 -17 -3 -37l-46 -293h-81l46 289q2 11 2 30q0 50 -29 74.5t-78 24.5q-48 0 -95.5 -29t-80.5 -70l-50 -319h-80z" />
    <glyph glyph-name="i" unicode="i" horiz-adv-x="232" 
d="M131 594q-14 12 -14 34q0 27 17 41.5t41 14.5q21 0 34.5 -12.5t13.5 -33.5l-1 -10q-4 -23 -19.5 -34.5t-36.5 -11.5t-35 12zM106 480h80l-76 -480h-80z" />
    <glyph glyph-name="dotlessi" unicode="&#x131;" horiz-adv-x="232" 
d="M106 480h80l-76 -480h-80z" />
    <glyph glyph-name="iacute" unicode="&#xed;" horiz-adv-x="232" 
d="M106 480h80l-76 -480h-80zM215 697h102l-127 -147h-89z" />
    <glyph glyph-name="icircumflex" unicode="&#xee;" horiz-adv-x="232" 
d="M141 697h72l89 -146h-86l-45 86l-71 -86h-94zM106 480h80l-76 -480h-80z" />
    <glyph glyph-name="idieresis" unicode="&#xef;" horiz-adv-x="232" 
d="M44.5 580.5q-13.5 13.5 -13.5 32.5l1 9q4 18 19.5 31.5t34.5 13.5t32.5 -13.5t13.5 -32.5q0 -22 -16.5 -38t-38.5 -16q-19 0 -32.5 13.5zM206.5 580.5q-13.5 13.5 -13.5 32.5l1 9q4 18 19.5 31.5t34.5 13.5t32.5 -13.5t13.5 -32.5q0 -22 -16.5 -38t-38.5 -16
q-19 0 -32.5 13.5zM106 480h80l-76 -480h-80z" />
    <glyph glyph-name="igrave" unicode="&#xec;" horiz-adv-x="232" 
d="M74 697h98l38 -147h-80zM106 480h80l-76 -480h-80z" />
    <glyph glyph-name="ij" unicode="&#x133;" horiz-adv-x="465" 
d="M131 594q-14 12 -14 34q0 27 17 41.5t41 14.5q21 0 34.5 -12.5t13.5 -33.5l-1 -10q-4 -23 -19.5 -34.5t-36.5 -11.5t-35 12zM106 480h80l-76 -480h-80zM364 594q-14 12 -14 34q0 27 17 41.5t41 14.5q21 0 34.5 -12.5t13.5 -33.5l-1 -10q-4 -23 -19.5 -34.5t-36.5 -11.5
t-35 12zM95 -216l11 70q23 -12 52 -12q36 0 61 20t32 64l88 554h80l-91 -572q-12 -74 -56.5 -107t-99.5 -33q-43 0 -77 16z" />
    <glyph glyph-name="imacron" unicode="&#x12b;" horiz-adv-x="232" 
d="M63 649h220l-12 -75h-220zM106 480h80l-76 -480h-80z" />
    <glyph glyph-name="iogonek" unicode="&#x12f;" horiz-adv-x="233" 
d="M132 594q-14 12 -14 33q0 28 17 42.5t41 14.5q20 0 34 -12t14 -32q0 -8 -1 -12q-4 -23 -19.5 -34.5t-36.5 -11.5t-35 12zM-27 -208q-23 24 -23 58q0 35 23 77t58 78l1 1l75 474h80l-76 -480q-77 -77 -85 -126q-1 -3 -1 -8q0 -15 9 -24t26 -9q30 0 61 19l-11 -69
q-31 -15 -72 -15q-42 0 -65 24z" />
    <glyph glyph-name="j" unicode="j" horiz-adv-x="233" 
d="M132 594q-14 12 -14 34q0 27 17 41.5t41 14.5q21 0 34.5 -12.5t13.5 -33.5l-1 -10q-4 -23 -19.5 -34.5t-36.5 -11.5t-35 12zM-137 -216l11 70q23 -12 52 -12q36 0 61 20t32 64l88 554h80l-91 -572q-12 -74 -56.5 -107t-99.5 -33q-43 0 -77 16z" />
    <glyph glyph-name="k" unicode="k" horiz-adv-x="518" 
d="M137 700h80l-66 -422h66l214 202h95l-246 -235l190 -245h-92l-173 208h-65l-33 -208h-80z" />
    <glyph glyph-name="uni0137" unicode="&#x137;" horiz-adv-x="518" 
d="M137 700h80l-66 -422h66l214 202h95l-246 -235l190 -245h-92l-173 208h-65l-33 -208h-80zM203 -41h80l-65 -190h-70z" />
    <glyph glyph-name="l" unicode="l" horiz-adv-x="232" 
d="M146 730h80l-116 -730h-80z" />
    <glyph glyph-name="lacute" unicode="&#x13a;" horiz-adv-x="232" 
d="M146 730h80l-116 -730h-80zM261 917h102l-127 -147h-89z" />
    <glyph glyph-name="lcaron" unicode="&#x13e;" horiz-adv-x="233" 
d="M146 730h80l-116 -730h-80zM301 730h80l-57 -184h-70z" />
    <glyph glyph-name="uni013C" unicode="&#x13c;" horiz-adv-x="232" 
d="M146 730h80l-116 -730h-80zM26 -41h80l-65 -190h-70z" />
    <glyph glyph-name="ldot" unicode="&#x140;" horiz-adv-x="312" 
d="M146 730h80l-116 -730h-80zM245 311q-14 12 -14 33q0 28 16.5 42.5t40.5 14.5q21 0 34.5 -12t13.5 -33q0 -28 -16 -42.5t-40 -14.5q-21 0 -35 12z" />
    <glyph glyph-name="lslash" unicode="&#x142;" horiz-adv-x="294" 
d="M112 323l-89 -35l11 70l90 36l53 336h80l-49 -305l90 35l-11 -70l-90 -36l-56 -354h-80z" />
    <glyph glyph-name="m" unicode="m" horiz-adv-x="890" 
d="M104 480h71l-11 -67q30 31 76 55t98 24q53 0 89 -21t54 -59q91 80 186 80q77 0 118 -43.5t41 -115.5q0 -19 -3 -40l-47 -293h-80l48 301q2 18 2 26q0 43 -24 67t-68 24q-45 0 -85.5 -24.5t-71.5 -57.5q0 -20 -3 -43l-47 -293h-80l48 301q2 18 2 26q0 43 -24 67t-68 24
q-80 0 -164 -89l-53 -329h-80z" />
    <glyph glyph-name="n" unicode="n" horiz-adv-x="587" 
d="M104 480h71l-12 -75q39 39 88.5 63t103.5 24q77 0 122.5 -44.5t45.5 -117.5q0 -17 -3 -37l-47 -293h-80l46 289q2 11 2 30q0 50 -29 74.5t-78 24.5q-48 0 -95.5 -28.5t-80.5 -69.5l-50 -320h-80z" />
    <glyph glyph-name="nacute" unicode="&#x144;" horiz-adv-x="587" 
d="M104 480h71l-12 -75q39 39 88.5 63t103.5 24q77 0 122.5 -44.5t45.5 -117.5q0 -17 -3 -37l-47 -293h-80l46 289q2 11 2 30q0 50 -29 74.5t-78 24.5q-48 0 -95.5 -28.5t-80.5 -69.5l-50 -320h-80zM401 697h102l-127 -147h-89z" />
    <glyph glyph-name="ncaron" unicode="&#x148;" horiz-adv-x="587" 
d="M104 480h71l-12 -75q39 39 88.5 63t103.5 24q77 0 122.5 -44.5t45.5 -117.5q0 -17 -3 -37l-47 -293h-80l46 289q2 11 2 30q0 50 -29 74.5t-78 24.5q-48 0 -95.5 -28.5t-80.5 -69.5l-50 -320h-80zM193 687h88l63 -86l89 86h96l-155 -146h-72z" />
    <glyph glyph-name="uni0146" unicode="&#x146;" horiz-adv-x="587" 
d="M104 480h71l-12 -75q39 39 88.5 63t103.5 24q77 0 122.5 -44.5t45.5 -117.5q0 -17 -3 -37l-47 -293h-80l46 289q2 11 2 30q0 50 -29 74.5t-78 24.5q-48 0 -95.5 -28.5t-80.5 -69.5l-50 -320h-80zM219 -41h80l-65 -190h-70z" />
    <glyph glyph-name="eng" unicode="&#x14b;" horiz-adv-x="587" 
d="M225 -217l11 71q24 -12 58 -12q73 0 87 84l58 363q2 11 2 30q0 50 -29 74.5t-78 24.5q-48 0 -95.5 -28.5t-80.5 -69.5l-50 -320h-80l76 480h71l-12 -75q39 39 88.5 63t103.5 24q78 0 123 -44t45 -117q0 -18 -3 -38l-61 -385q-12 -78 -56 -109t-101 -31q-44 0 -77 15z" />
    <glyph glyph-name="ntilde" unicode="&#xf1;" horiz-adv-x="587" 
d="M104 480h71l-12 -75q39 39 88.5 63t103.5 24q77 0 122.5 -44.5t45.5 -117.5q0 -17 -3 -37l-47 -293h-80l46 289q2 11 2 30q0 50 -29 74.5t-78 24.5q-48 0 -95.5 -28.5t-80.5 -69.5l-50 -320h-80zM379 549.5q-21 6.5 -47 18.5q-14 7 -28.5 12t-25.5 5q-18 0 -27.5 -9.5
t-8.5 -26.5h-69q1 52 28.5 79t64.5 27q23 0 43.5 -6.5t46.5 -18.5q38 -17 56 -17q38 0 36 36h69q-1 -53 -28.5 -79.5t-65.5 -26.5q-23 0 -44 6.5z" />
    <glyph glyph-name="o" unicode="o" horiz-adv-x="592" 
d="M140.5 13q-50.5 25 -81 72.5t-30.5 113.5q0 14 4 46q12 78 57 133.5t107.5 84.5t128.5 29q59 0 109.5 -24.5t81 -72.5t30.5 -113q0 -26 -4 -47q-12 -78 -56.5 -134t-107.5 -84.5t-129 -28.5q-59 0 -109.5 25zM350.5 86q44.5 22 75 63t39.5 96q3 18 3 33q0 65 -41 101.5
t-107 36.5q-50 0 -94.5 -22t-75 -63t-39.5 -96q-3 -18 -3 -33q0 -65 41 -101.5t107 -36.5q50 0 94.5 22z" />
    <glyph glyph-name="oacute" unicode="&#xf3;" horiz-adv-x="592" 
d="M140.5 13q-50.5 25 -81 72.5t-30.5 113.5q0 14 4 46q12 78 57 133.5t107.5 84.5t128.5 29q59 0 109.5 -24.5t81 -72.5t30.5 -113q0 -26 -4 -47q-12 -78 -56.5 -134t-107.5 -84.5t-129 -28.5q-59 0 -109.5 25zM350.5 86q44.5 22 75 63t39.5 96q3 18 3 33q0 65 -41 101.5
t-107 36.5q-50 0 -94.5 -22t-75 -63t-39.5 -96q-3 -18 -3 -33q0 -65 41 -101.5t107 -36.5q50 0 94.5 22zM388 697h102l-127 -147h-89z" />
    <glyph glyph-name="ocircumflex" unicode="&#xf4;" horiz-adv-x="592" 
d="M140.5 13q-50.5 25 -81 72.5t-30.5 113.5q0 14 4 46q12 78 57 133.5t107.5 84.5t128.5 29q59 0 109.5 -24.5t81 -72.5t30.5 -113q0 -26 -4 -47q-12 -78 -56.5 -134t-107.5 -84.5t-129 -28.5q-59 0 -109.5 25zM350.5 86q44.5 22 75 63t39.5 96q3 18 3 33q0 65 -41 101.5
t-107 36.5q-50 0 -94.5 -22t-75 -63t-39.5 -96q-3 -18 -3 -33q0 -65 41 -101.5t107 -36.5q50 0 94.5 22zM314 697h72l109 -146h-86l-65 86l-91 -86h-94z" />
    <glyph glyph-name="odieresis" unicode="&#xf6;" horiz-adv-x="592" 
d="M140.5 13q-50.5 25 -81 72.5t-30.5 113.5q0 14 4 46q12 78 57 133.5t107.5 84.5t128.5 29q59 0 109.5 -24.5t81 -72.5t30.5 -113q0 -26 -4 -47q-12 -78 -56.5 -134t-107.5 -84.5t-129 -28.5q-59 0 -109.5 25zM350.5 86q44.5 22 75 63t39.5 96q3 18 3 33q0 65 -41 101.5
t-107 36.5q-50 0 -94.5 -22t-75 -63t-39.5 -96q-3 -18 -3 -33q0 -65 41 -101.5t107 -36.5q50 0 94.5 22zM193.5 577q-14.5 15 -14.5 36q0 23 18.5 41t41.5 18q21 0 36 -15.5t15 -36.5q0 -24 -18 -41t-42 -17q-22 0 -36.5 15zM395.5 577q-14.5 15 -14.5 36q0 23 18.5 41
t41.5 18q21 0 36 -15.5t15 -36.5q0 -24 -18 -41t-42 -17q-22 0 -36.5 15z" />
    <glyph glyph-name="ograve" unicode="&#xf2;" horiz-adv-x="592" 
d="M140.5 13q-50.5 25 -81 72.5t-30.5 113.5q0 14 4 46q12 78 57 133.5t107.5 84.5t128.5 29q59 0 109.5 -24.5t81 -72.5t30.5 -113q0 -26 -4 -47q-12 -78 -56.5 -134t-107.5 -84.5t-129 -28.5q-59 0 -109.5 25zM350.5 86q44.5 22 75 63t39.5 96q3 18 3 33q0 65 -41 101.5
t-107 36.5q-50 0 -94.5 -22t-75 -63t-39.5 -96q-3 -18 -3 -33q0 -65 41 -101.5t107 -36.5q50 0 94.5 22zM227 697h98l68 -147h-85z" />
    <glyph glyph-name="ohungarumlaut" unicode="&#x151;" horiz-adv-x="592" 
d="M140.5 13q-50.5 25 -81 72.5t-30.5 113.5q0 14 4 46q12 78 57 133.5t107.5 84.5t128.5 29q59 0 109.5 -24.5t81 -72.5t30.5 -113q0 -26 -4 -47q-12 -78 -56.5 -134t-107.5 -84.5t-129 -28.5q-59 0 -109.5 25zM350.5 86q44.5 22 75 63t39.5 96q3 18 3 33q0 65 -41 101.5
t-107 36.5q-50 0 -94.5 -22t-75 -63t-39.5 -96q-3 -18 -3 -33q0 -65 41 -101.5t107 -36.5q50 0 94.5 22zM304 707h92l-97 -147h-87zM459 707h92l-97 -147h-87z" />
    <glyph glyph-name="omacron" unicode="&#x14d;" horiz-adv-x="592" 
d="M140.5 13q-50.5 25 -81 72.5t-30.5 113.5q0 14 4 46q12 78 57 133.5t107.5 84.5t128.5 29q59 0 109.5 -24.5t81 -72.5t30.5 -113q0 -26 -4 -47q-12 -78 -56.5 -134t-107.5 -84.5t-129 -28.5q-59 0 -109.5 25zM350.5 86q44.5 22 75 63t39.5 96q3 18 3 33q0 65 -41 101.5
t-107 36.5q-50 0 -94.5 -22t-75 -63t-39.5 -96q-3 -18 -3 -33q0 -65 41 -101.5t107 -36.5q50 0 94.5 22zM199 637h300l-12 -73h-300z" />
    <glyph glyph-name="oslash" unicode="&#xf8;" horiz-adv-x="592" 
d="M92 47q-63 58 -63 152q0 25 4 46q12 78 57 133.5t107.5 84.5t128.5 29q60 0 112 -26l63 77h72l-89 -108q63 -60 63 -153q0 -26 -4 -47q-12 -78 -56.5 -134t-107.5 -84.5t-129 -28.5q-62 0 -113 27l-61 -75h-72zM387 404q-30 12 -67 12q-50 0 -94.5 -22t-75 -63t-39.5 -96
q-3 -18 -3 -33q0 -57 34 -94zM350.5 86q44.5 22 75 63t39.5 96q3 18 3 34q0 57 -35 94l-245 -297q30 -12 68 -12q50 0 94.5 22z" />
    <glyph glyph-name="otilde" unicode="&#xf5;" horiz-adv-x="592" 
d="M140.5 13q-50.5 25 -81 72.5t-30.5 113.5q0 14 4 46q12 78 57 133.5t107.5 84.5t128.5 29q59 0 109.5 -24.5t81 -72.5t30.5 -113q0 -26 -4 -47q-12 -78 -56.5 -134t-107.5 -84.5t-129 -28.5q-59 0 -109.5 25zM350.5 86q44.5 22 75 63t39.5 96q3 18 3 33q0 65 -41 101.5
t-107 36.5q-50 0 -94.5 -22t-75 -63t-39.5 -96q-3 -18 -3 -33q0 -65 41 -101.5t107 -36.5q50 0 94.5 22zM366 549.5q-21 6.5 -47 18.5q-14 7 -28.5 12t-25.5 5q-18 0 -27.5 -9.5t-8.5 -26.5h-69q1 52 28.5 79t64.5 27q23 0 43.5 -6.5t46.5 -18.5q38 -17 56 -17q38 0 36 36
h69q-1 -53 -28.5 -79.5t-65.5 -26.5q-23 0 -44 6.5z" />
    <glyph glyph-name="oe" unicode="&#x153;" horiz-adv-x="978" 
d="M140.5 13q-50.5 25 -81 72.5t-30.5 113.5q0 14 4 46q12 78 57 133.5t107.5 84.5t128.5 29q67 0 119 -31.5t76 -88.5q38 58 96 89t122 31q98 0 149 -53.5t51 -135.5q0 -51 -19 -101h-382q-4 -71 47.5 -105.5t124.5 -34.5q44 0 88.5 11t82.5 30l-13 -81q-36 -16 -82 -25
t-94 -9q-72 0 -128 31t-80 91q-39 -60 -101 -91t-133 -31q-59 0 -109.5 25zM861 272q5 18 5 36q0 45 -30 77.5t-96 32.5q-67 0 -121.5 -39.5t-69.5 -106.5h312zM350.5 86q44.5 22 75 63t39.5 96q3 18 3 33q0 65 -41 101.5t-107 36.5q-50 0 -94.5 -22t-75 -63t-39.5 -96
q-3 -18 -3 -33q0 -65 41 -101.5t107 -36.5q50 0 94.5 22z" />
    <glyph glyph-name="p" unicode="p" horiz-adv-x="620" 
d="M104 480h72l-14 -85q84 97 206 97q61 0 108 -27t73 -75t26 -109q0 -14 -4 -46q-11 -70 -50.5 -126.5t-98.5 -88.5t-126 -32q-66 0 -108.5 26.5t-66.5 69.5l-48 -304h-80zM382 83.5q43 21.5 72.5 62t38.5 94.5q3 18 3 34q0 65 -39.5 104.5t-101.5 39.5q-63 0 -116 -34.5
t-84 -86.5l-19 -120q14 -49 54.5 -82t100.5 -33q48 0 91 21.5z" />
    <glyph glyph-name="thorn" unicode="&#xfe;" horiz-adv-x="620" 
d="M139 700h80l-48 -298q81 90 197 90q61 0 108 -27t73 -75t26 -109q0 -14 -4 -46q-11 -70 -50.5 -126.5t-98.5 -88.5t-126 -32q-66 0 -108.5 26.5t-66.5 69.5l-48 -304h-80zM382 83.5q43 21.5 72.5 62t38.5 94.5q3 18 3 34q0 65 -39.5 104.5t-101.5 39.5q-63 0 -116 -34.5
t-84 -86.5l-19 -120q14 -49 54.5 -82t100.5 -33q48 0 91 21.5z" />
    <glyph glyph-name="q" unicode="q" horiz-adv-x="619" 
d="M432 75q-34 -39 -83.5 -63t-112.5 -24q-61 0 -108 27t-73 75t-26 109q0 14 4 46q11 70 50.5 126.5t98.5 88.5t126 32q63 0 108.5 -27t73.5 -72l14 87h72l-111 -700h-80zM364.5 97q53.5 35 83.5 85l20 122q-13 48 -54 81t-101 33q-48 0 -91 -21.5t-72.5 -62t-38.5 -94.5
q-3 -18 -3 -34q0 -65 39.5 -104.5t101.5 -39.5t115.5 35z" />
    <glyph glyph-name="r" unicode="r" horiz-adv-x="367" 
d="M104 480h72l-13 -82q65 93 190 93q20 0 30 -1l-13 -82q-18 3 -34 3q-58 0 -106 -31t-75 -83l-47 -297h-80z" />
    <glyph glyph-name="racute" unicode="&#x155;" horiz-adv-x="367" 
d="M104 480h72l-13 -82q65 93 190 93q20 0 30 -1l-13 -82q-18 3 -34 3q-58 0 -106 -31t-75 -83l-47 -297h-80zM321 697h102l-127 -147h-89z" />
    <glyph glyph-name="rcaron" unicode="&#x159;" horiz-adv-x="367" 
d="M104 480h72l-13 -82q65 93 190 93q20 0 30 -1l-13 -82q-18 3 -34 3q-58 0 -106 -31t-75 -83l-47 -297h-80zM113 687h88l63 -86l89 86h96l-155 -146h-72z" />
    <glyph glyph-name="uni0157" unicode="&#x157;" horiz-adv-x="367" 
d="M104 480h72l-13 -82q65 93 190 93q20 0 30 -1l-13 -82q-18 3 -34 3q-58 0 -106 -31t-75 -83l-47 -297h-80zM24 -41h80l-65 -190h-70z" />
    <glyph glyph-name="s" unicode="s" horiz-adv-x="466" 
d="M90.5 1.5q-46.5 13.5 -78.5 36.5l12 78q33 -25 78 -39.5t92 -14.5q123 0 133 64q4 29 -24 45.5t-87 34.5q-53 17 -85 31.5t-55.5 40.5t-23.5 65q0 12 1 18q9 66 69 98.5t136 32.5q47 0 89.5 -11.5t75.5 -30.5l-12 -74q-29 20 -70.5 32t-84.5 12q-49 0 -84 -16.5
t-39 -49.5q-3 -29 24.5 -45.5t87.5 -34.5q52 -17 84.5 -31t55.5 -39t23 -64q0 -6 -2 -22q-11 -68 -71.5 -99t-143.5 -31q-54 0 -100.5 13.5z" />
    <glyph glyph-name="sacute" unicode="&#x15b;" horiz-adv-x="466" 
d="M90.5 1.5q-46.5 13.5 -78.5 36.5l12 78q33 -25 78 -39.5t92 -14.5q123 0 133 64q4 29 -24 45.5t-87 34.5q-53 17 -85 31.5t-55.5 40.5t-23.5 65q0 12 1 18q9 66 69 98.5t136 32.5q47 0 89.5 -11.5t75.5 -30.5l-12 -74q-29 20 -70.5 32t-84.5 12q-49 0 -84 -16.5
t-39 -49.5q-3 -29 24.5 -45.5t87.5 -34.5q52 -17 84.5 -31t55.5 -39t23 -64q0 -6 -2 -22q-11 -68 -71.5 -99t-143.5 -31q-54 0 -100.5 13.5zM319 697h102l-127 -147h-89z" />
    <glyph glyph-name="scaron" unicode="&#x161;" horiz-adv-x="466" 
d="M90.5 1.5q-46.5 13.5 -78.5 36.5l12 78q33 -25 78 -39.5t92 -14.5q123 0 133 64q4 29 -24 45.5t-87 34.5q-53 17 -85 31.5t-55.5 40.5t-23.5 65q0 12 1 18q9 66 69 98.5t136 32.5q47 0 89.5 -11.5t75.5 -30.5l-12 -74q-29 20 -70.5 32t-84.5 12q-49 0 -84 -16.5
t-39 -49.5q-3 -29 24.5 -45.5t87.5 -34.5q52 -17 84.5 -31t55.5 -39t23 -64q0 -6 -2 -22q-11 -68 -71.5 -99t-143.5 -31q-54 0 -100.5 13.5zM111 687h88l63 -86l89 86h96l-155 -146h-72z" />
    <glyph glyph-name="scedilla" unicode="&#x15f;" horiz-adv-x="466" 
d="M57 -212l11 65q18 -9 42 -14.5t46 -5.5q37 0 57 9.5t20 26.5q0 14 -16.5 21t-43.5 7q-21 0 -51 -5l36 97q-44 4 -81.5 17t-64.5 32l12 78q33 -25 78 -39.5t92 -14.5q123 0 133 64q4 29 -24 45.5t-87 34.5q-53 17 -85 31.5t-55.5 40.5t-23.5 65q0 12 1 18q9 66 69 98.5
t136 32.5q47 0 89.5 -11.5t75.5 -30.5l-12 -74q-29 20 -70.5 32t-84.5 12q-49 0 -84 -16.5t-39 -49.5q-3 -29 24.5 -45.5t87.5 -34.5q52 -17 84.5 -31t55.5 -39t23 -64q0 -6 -2 -22q-10 -60 -59.5 -91.5t-120.5 -37.5l-20 -47q43 2 69 -17t26 -54q0 -8 -1 -12
q-7 -46 -44 -68.5t-94 -22.5q-53 0 -105 20z" />
    <glyph glyph-name="uni0219" unicode="&#x219;" horiz-adv-x="466" 
d="M90.5 1.5q-46.5 13.5 -78.5 36.5l12 78q33 -25 78 -39.5t92 -14.5q123 0 133 64q4 29 -24 45.5t-87 34.5q-53 17 -85 31.5t-55.5 40.5t-23.5 65q0 12 1 18q9 66 69 98.5t136 32.5q47 0 89.5 -11.5t75.5 -30.5l-12 -74q-29 20 -70.5 32t-84.5 12q-49 0 -84 -16.5
t-39 -49.5q-3 -29 24.5 -45.5t87.5 -34.5q52 -17 84.5 -31t55.5 -39t23 -64q0 -6 -2 -22q-11 -68 -71.5 -99t-143.5 -31q-54 0 -100.5 13.5zM166 -41h80l-65 -190h-70z" />
    <glyph glyph-name="germandbls" unicode="&#xdf;" horiz-adv-x="594" 
d="M193 13l11 69q22 -12 49 -18t51 -6q59 0 102.5 24t51.5 75q1 4 1 13q0 27 -15.5 51t-46.5 58q-28 30 -41.5 49.5t-13.5 40.5l1 9q3 21 14 38.5t32 42.5q24 29 37 51t18 51q1 4 1 12q0 31 -26 50t-73 19q-63 0 -105 -35.5t-52 -98.5l-81 -508h-80l79 500
q16 103 79.5 157.5t161.5 54.5q59 0 99 -19t59 -50t19 -65q0 -12 -1 -18q-5 -32 -20 -56t-41 -55q-21 -24 -31.5 -41t-10.5 -35q0 -16 11 -31.5t35 -40.5q35 -37 53.5 -66.5t18.5 -69.5q0 -7 -2 -23q-13 -76 -77 -115t-144 -39q-65 0 -123 25z" />
    <glyph glyph-name="t" unicode="t" horiz-adv-x="406" 
d="M117 21q-39 33 -39 94q0 16 3 32l41 259h-90l12 74h90l23 147l83 23l-27 -170h193l-12 -74h-193l-40 -251q-2 -10 -2 -28q0 -37 21 -51t65 -14q58 0 112 28l-12 -78q-55 -24 -126 -24q-63 0 -102 33z" />
    <glyph glyph-name="tbar" unicode="&#x167;" horiz-adv-x="406" 
d="M117 21q-39 33 -39 94q0 16 3 32l14 91h-45l11 70h45l16 98h-90l12 74h90l23 147l83 23l-27 -170h193l-12 -74h-193l-16 -98h158l-11 -70h-158l-13 -83q-2 -10 -2 -28q0 -37 21 -51t65 -14q58 0 112 28l-12 -78q-55 -24 -126 -24q-63 0 -102 33z" />
    <glyph glyph-name="tcaron" unicode="&#x165;" horiz-adv-x="406" 
d="M343 720h80l-56 -174h-70zM117 21q-39 33 -39 94q0 16 3 32l41 259h-90l12 74h90l23 147l83 23l-27 -170h193l-12 -74h-193l-40 -251q-2 -10 -2 -28q0 -37 21 -51t65 -14q58 0 112 28l-12 -78q-55 -24 -126 -24q-63 0 -102 33z" />
    <glyph glyph-name="uni0163" unicode="&#x163;" horiz-adv-x="406" 
d="M117 21q-39 33 -39 94q0 16 3 32l41 259h-90l12 74h90l23 147l83 23l-27 -170h193l-12 -74h-193l-40 -251q-2 -10 -2 -28q0 -37 21 -51t65 -14q58 0 112 28l-12 -78q-55 -24 -126 -24q-63 0 -102 33zM185 -41h80l-65 -190h-70z" />
    <glyph glyph-name="u" unicode="u" horiz-adv-x="585" 
d="M95 32.5q-47 44.5 -47 118.5q0 19 3 38l46 291h80l-46 -289q-3 -16 -3 -32q0 -49 28.5 -73t79.5 -24q53 0 98 27.5t77 70.5l51 320h80l-76 -480h-71l12 75q-31 -38 -81 -62.5t-103 -24.5q-81 0 -128 44.5z" />
    <glyph glyph-name="uacute" unicode="&#xfa;" horiz-adv-x="585" 
d="M95 32.5q-47 44.5 -47 118.5q0 19 3 38l46 291h80l-46 -289q-3 -16 -3 -32q0 -49 28.5 -73t79.5 -24q53 0 98 27.5t77 70.5l51 320h80l-76 -480h-71l12 75q-31 -38 -81 -62.5t-103 -24.5q-81 0 -128 44.5zM380 697h102l-127 -147h-89z" />
    <glyph glyph-name="ucircumflex" unicode="&#xfb;" horiz-adv-x="585" 
d="M95 32.5q-47 44.5 -47 118.5q0 19 3 38l46 291h80l-46 -289q-3 -16 -3 -32q0 -49 28.5 -73t79.5 -24q53 0 98 27.5t77 70.5l51 320h80l-76 -480h-71l12 75q-31 -38 -81 -62.5t-103 -24.5q-81 0 -128 44.5zM306 697h72l109 -146h-86l-65 86l-91 -86h-94z" />
    <glyph glyph-name="udieresis" unicode="&#xfc;" horiz-adv-x="585" 
d="M95 32.5q-47 44.5 -47 118.5q0 19 3 38l46 291h80l-46 -289q-3 -16 -3 -32q0 -49 28.5 -73t79.5 -24q53 0 98 27.5t77 70.5l51 320h80l-76 -480h-71l12 75q-31 -38 -81 -62.5t-103 -24.5q-81 0 -128 44.5zM185.5 577q-14.5 15 -14.5 36q0 23 18.5 41t41.5 18
q21 0 36 -15.5t15 -36.5q0 -24 -18 -41t-42 -17q-22 0 -36.5 15zM387.5 577q-14.5 15 -14.5 36q0 23 18.5 41t41.5 18q21 0 36 -15.5t15 -36.5q0 -24 -18 -41t-42 -17q-22 0 -36.5 15z" />
    <glyph glyph-name="ugrave" unicode="&#xf9;" horiz-adv-x="585" 
d="M95 32.5q-47 44.5 -47 118.5q0 19 3 38l46 291h80l-46 -289q-3 -16 -3 -32q0 -49 28.5 -73t79.5 -24q53 0 98 27.5t77 70.5l51 320h80l-76 -480h-71l12 75q-31 -38 -81 -62.5t-103 -24.5q-81 0 -128 44.5zM219 697h98l68 -147h-85z" />
    <glyph glyph-name="uhungarumlaut" unicode="&#x171;" horiz-adv-x="585" 
d="M95 32.5q-47 44.5 -47 118.5q0 19 3 38l46 291h80l-46 -289q-3 -16 -3 -32q0 -49 28.5 -73t79.5 -24q53 0 98 27.5t77 70.5l51 320h80l-76 -480h-71l12 75q-31 -38 -81 -62.5t-103 -24.5q-81 0 -128 44.5zM296 707h92l-97 -147h-87zM451 707h92l-97 -147h-87z" />
    <glyph glyph-name="umacron" unicode="&#x16b;" horiz-adv-x="585" 
d="M95 32.5q-47 44.5 -47 118.5q0 19 3 38l46 291h80l-46 -289q-3 -16 -3 -32q0 -49 28.5 -73t79.5 -24q53 0 98 27.5t77 70.5l51 320h80l-76 -480h-71l12 75q-31 -38 -81 -62.5t-103 -24.5q-81 0 -128 44.5zM191 637h300l-12 -73h-300z" />
    <glyph glyph-name="uni021B" unicode="&#x21b;" horiz-adv-x="406" 
d="M117 21q-39 33 -39 94q0 16 3 32l41 259h-90l12 74h90l23 147l83 23l-27 -170h193l-12 -74h-193l-40 -251q-2 -10 -2 -28q0 -37 21 -51t65 -14q58 0 112 28l-12 -78q-55 -24 -126 -24q-63 0 -102 33zM185 -41h80l-65 -190h-70z" />
    <glyph glyph-name="uogonek" unicode="&#x173;" horiz-adv-x="585" 
d="M298.5 -210.5q-23.5 21.5 -23.5 56.5q0 37 29 80.5t90 89.5l4 3l9 56q-31 -38 -81 -62.5t-103 -24.5q-81 0 -128 44.5t-47 118.5q0 19 3 38l46 291h80l-46 -289q-3 -16 -3 -32q0 -49 28.5 -73t79.5 -24q53 0 98 27.5t77 70.5l51 320h80l-76 -480q-46 -28 -77.5 -65
t-35.5 -66q-1 -3 -1 -8q0 -13 9 -20.5t26 -7.5q28 0 55 11l-11 -66q-30 -10 -65 -10q-44 0 -67.5 21.5z" />
    <glyph glyph-name="uring" unicode="&#x16f;" horiz-adv-x="585" 
d="M95 32.5q-47 44.5 -47 118.5q0 19 3 38l46 291h80l-46 -289q-3 -16 -3 -32q0 -49 28.5 -73t79.5 -24q53 0 98 27.5t77 70.5l51 320h80l-76 -480h-71l12 75q-31 -38 -81 -62.5t-103 -24.5q-81 0 -128 44.5zM253 550.5q-30 26.5 -30 70.5q0 36 18.5 64.5t48.5 43.5t63 15
q43 0 72.5 -26.5t29.5 -69.5q0 -12 -1 -18q-8 -48 -45 -77t-83 -29q-43 0 -73 26.5zM375.5 596q20.5 17 20.5 47q0 20 -13 33t-31 13q-25 0 -44.5 -14.5t-23.5 -40.5q-1 -4 -1 -11q0 -20 12.5 -32t31.5 -12q28 0 48.5 17z" />
    <glyph glyph-name="v" unicode="v" horiz-adv-x="534" 
d="M43 480h84l105 -389l231 389h88l-288 -480h-84z" />
    <glyph glyph-name="w" unicode="w" horiz-adv-x="792" 
d="M46 480h81l66 -380l196 380h72l73 -379l184 379h86l-238 -480h-85l-70 369l-190 -369h-87z" />
    <glyph glyph-name="wacute" unicode="&#x1e83;" horiz-adv-x="792" 
d="M46 480h81l66 -380l196 380h72l73 -379l184 379h86l-238 -480h-85l-70 369l-190 -369h-87zM494 697h102l-127 -147h-89z" />
    <glyph glyph-name="wcircumflex" unicode="&#x175;" horiz-adv-x="792" 
d="M46 480h81l66 -380l196 380h72l73 -379l184 379h86l-238 -480h-85l-70 369l-190 -369h-87zM420 697h72l109 -146h-86l-65 86l-91 -86h-94z" />
    <glyph glyph-name="wdieresis" unicode="&#x1e85;" horiz-adv-x="792" 
d="M46 480h81l66 -380l196 380h72l73 -379l184 379h86l-238 -480h-85l-70 369l-190 -369h-87zM299.5 577q-14.5 15 -14.5 36q0 23 18.5 41t41.5 18q21 0 36 -15.5t15 -36.5q0 -24 -18 -41t-42 -17q-22 0 -36.5 15zM501.5 577q-14.5 15 -14.5 36q0 23 18.5 41t41.5 18
q21 0 36 -15.5t15 -36.5q0 -24 -18 -41t-42 -17q-22 0 -36.5 15z" />
    <glyph glyph-name="wgrave" unicode="&#x1e81;" horiz-adv-x="792" 
d="M46 480h81l66 -380l196 380h72l73 -379l184 379h86l-238 -480h-85l-70 369l-190 -369h-87zM333 697h98l68 -147h-85z" />
    <glyph glyph-name="x" unicode="x" horiz-adv-x="488" 
d="M192 247l-139 233h90l101 -178l160 178h94l-217 -235l149 -245h-90l-110 190l-171 -190h-94z" />
    <glyph glyph-name="y" unicode="y" horiz-adv-x="538" 
d="M-29 -224l11 67q15 -5 37 -5q41 0 76 29.5t70 89.5l26 44l-151 479h80l119 -395l227 395h87l-323 -554q-49 -83 -99.5 -120.5t-104.5 -37.5q-28 0 -55 8z" />
    <glyph glyph-name="yacute" unicode="&#xfd;" horiz-adv-x="538" 
d="M-29 -224l11 67q15 -5 37 -5q41 0 76 29.5t70 89.5l26 44l-151 479h80l119 -395l227 395h87l-323 -554q-49 -83 -99.5 -120.5t-104.5 -37.5q-28 0 -55 8zM352 697h102l-127 -147h-89z" />
    <glyph glyph-name="ycircumflex" unicode="&#x177;" horiz-adv-x="538" 
d="M-29 -224l11 67q15 -5 37 -5q41 0 76 29.5t70 89.5l26 44l-151 479h80l119 -395l227 395h87l-323 -554q-49 -83 -99.5 -120.5t-104.5 -37.5q-28 0 -55 8zM278 697h72l109 -146h-86l-65 86l-91 -86h-94z" />
    <glyph glyph-name="ydieresis" unicode="&#xff;" horiz-adv-x="538" 
d="M-29 -224l11 67q15 -5 37 -5q41 0 76 29.5t70 89.5l26 44l-151 479h80l119 -395l227 395h87l-323 -554q-49 -83 -99.5 -120.5t-104.5 -37.5q-28 0 -55 8zM157.5 577q-14.5 15 -14.5 36q0 23 18.5 41t41.5 18q21 0 36 -15.5t15 -36.5q0 -24 -18 -41t-42 -17
q-22 0 -36.5 15zM359.5 577q-14.5 15 -14.5 36q0 23 18.5 41t41.5 18q21 0 36 -15.5t15 -36.5q0 -24 -18 -41t-42 -17q-22 0 -36.5 15z" />
    <glyph glyph-name="ygrave" unicode="&#x1ef3;" horiz-adv-x="538" 
d="M-29 -224l11 67q15 -5 37 -5q41 0 76 29.5t70 89.5l26 44l-151 479h80l119 -395l227 395h87l-323 -554q-49 -83 -99.5 -120.5t-104.5 -37.5q-28 0 -55 8zM191 697h98l68 -147h-85z" />
    <glyph glyph-name="z" unicode="z" horiz-adv-x="465" 
d="M1 72l338 338h-272l11 70h369l-12 -72l-337 -338h298l-11 -70h-395z" />
    <glyph glyph-name="zacute" unicode="&#x17a;" horiz-adv-x="465" 
d="M1 72l338 338h-272l11 70h369l-12 -72l-337 -338h298l-11 -70h-395zM332 697h102l-127 -147h-89z" />
    <glyph glyph-name="zcaron" unicode="&#x17e;" horiz-adv-x="465" 
d="M1 72l338 338h-272l11 70h369l-12 -72l-337 -338h298l-11 -70h-395zM124 687h88l63 -86l89 86h96l-155 -146h-72z" />
    <glyph glyph-name="zdotaccent" unicode="&#x17c;" horiz-adv-x="465" 
d="M1 72l338 338h-272l11 70h369l-12 -72l-337 -338h298l-11 -70h-395zM231.5 561.5q-15.5 13.5 -15.5 37.5q0 32 19 49t46 17q24 0 39.5 -13.5t15.5 -36.5q0 -33 -18.5 -50t-46.5 -17q-24 0 -39.5 13.5z" />
    <glyph glyph-name="i.loclTRK" horiz-adv-x="232" 
d="M106 480h80l-76 -480h-80zM114.5 561.5q-15.5 13.5 -15.5 37.5q0 32 19 49t46 17q24 0 39.5 -13.5t15.5 -36.5q0 -33 -18.5 -50t-46.5 -17q-24 0 -39.5 13.5z" />
    <glyph glyph-name="a.ss01" horiz-adv-x="542" 
d="M89.5 4.5q-36.5 16.5 -58.5 48.5t-22 76q0 90 69.5 128.5t159.5 38.5q79 0 145 -17l4 25q2 16 2 24q0 46 -34 68t-104 22q-39 0 -83 -10.5t-83 -26.5l13 80q32 12 78.5 21.5t86.5 9.5q100 0 152 -39.5t52 -118.5q0 -24 -4 -47l-30 -190q-1 -4 -1 -11q0 -13 7.5 -18
t21.5 -5q21 0 42 7l-10 -66q-27 -10 -58 -10q-30 0 -51.5 13t-28.5 40l-1 4q-76 -63 -186 -63q-42 0 -78.5 16.5zM278 75.5q47 18.5 80 50.5l15 91q-57 12 -127 12q-61 0 -108 -22t-47 -75q0 -35 26 -55t67 -20q47 0 94 18.5z" />
    <glyph glyph-name="aacute.ss01" horiz-adv-x="542" 
d="M89.5 4.5q-36.5 16.5 -58.5 48.5t-22 76q0 90 69.5 128.5t159.5 38.5q79 0 145 -17l4 25q2 16 2 24q0 46 -34 68t-104 22q-39 0 -83 -10.5t-83 -26.5l13 80q32 12 78.5 21.5t86.5 9.5q100 0 152 -39.5t52 -118.5q0 -24 -4 -47l-30 -190q-1 -4 -1 -11q0 -13 7.5 -18
t21.5 -5q21 0 42 7l-10 -66q-27 -10 -58 -10q-30 0 -51.5 13t-28.5 40l-1 4q-76 -63 -186 -63q-42 0 -78.5 16.5zM278 75.5q47 18.5 80 50.5l15 91q-57 12 -127 12q-61 0 -108 -22t-47 -75q0 -35 26 -55t67 -20q47 0 94 18.5zM353 697h102l-127 -147h-89z" />
    <glyph glyph-name="abreve.ss01" horiz-adv-x="542" 
d="M89.5 4.5q-36.5 16.5 -58.5 48.5t-22 76q0 90 69.5 128.5t159.5 38.5q79 0 145 -17l4 25q2 16 2 24q0 46 -34 68t-104 22q-39 0 -83 -10.5t-83 -26.5l13 80q32 12 78.5 21.5t86.5 9.5q100 0 152 -39.5t52 -118.5q0 -24 -4 -47l-30 -190q-1 -4 -1 -11q0 -13 7.5 -18
t21.5 -5q21 0 42 7l-10 -66q-27 -10 -58 -10q-30 0 -51.5 13t-28.5 40l-1 4q-76 -63 -186 -63q-42 0 -78.5 16.5zM278 75.5q47 18.5 80 50.5l15 91q-57 12 -127 12q-61 0 -108 -22t-47 -75q0 -35 26 -55t67 -20q47 0 94 18.5zM164 596l12 78q33 -24 63 -34t68 -10t73.5 10
t75.5 34l-12 -78q-66 -42 -145 -42q-83 0 -135 42z" />
    <glyph glyph-name="acircumflex.ss01" horiz-adv-x="542" 
d="M89.5 4.5q-36.5 16.5 -58.5 48.5t-22 76q0 90 69.5 128.5t159.5 38.5q79 0 145 -17l4 25q2 16 2 24q0 46 -34 68t-104 22q-39 0 -83 -10.5t-83 -26.5l13 80q32 12 78.5 21.5t86.5 9.5q100 0 152 -39.5t52 -118.5q0 -24 -4 -47l-30 -190q-1 -4 -1 -11q0 -13 7.5 -18
t21.5 -5q21 0 42 7l-10 -66q-27 -10 -58 -10q-30 0 -51.5 13t-28.5 40l-1 4q-76 -63 -186 -63q-42 0 -78.5 16.5zM278 75.5q47 18.5 80 50.5l15 91q-57 12 -127 12q-61 0 -108 -22t-47 -75q0 -35 26 -55t67 -20q47 0 94 18.5zM279 697h72l109 -146h-86l-65 86l-91 -86h-94z
" />
    <glyph glyph-name="adieresis.ss01" horiz-adv-x="542" 
d="M89.5 4.5q-36.5 16.5 -58.5 48.5t-22 76q0 90 69.5 128.5t159.5 38.5q79 0 145 -17l4 25q2 16 2 24q0 46 -34 68t-104 22q-39 0 -83 -10.5t-83 -26.5l13 80q32 12 78.5 21.5t86.5 9.5q100 0 152 -39.5t52 -118.5q0 -24 -4 -47l-30 -190q-1 -4 -1 -11q0 -13 7.5 -18
t21.5 -5q21 0 42 7l-10 -66q-27 -10 -58 -10q-30 0 -51.5 13t-28.5 40l-1 4q-76 -63 -186 -63q-42 0 -78.5 16.5zM278 75.5q47 18.5 80 50.5l15 91q-57 12 -127 12q-61 0 -108 -22t-47 -75q0 -35 26 -55t67 -20q47 0 94 18.5zM158.5 577q-14.5 15 -14.5 36q0 23 18.5 41
t41.5 18q21 0 36 -15.5t15 -36.5q0 -24 -18 -41t-42 -17q-22 0 -36.5 15zM360.5 577q-14.5 15 -14.5 36q0 23 18.5 41t41.5 18q21 0 36 -15.5t15 -36.5q0 -24 -18 -41t-42 -17q-22 0 -36.5 15z" />
    <glyph glyph-name="agrave.ss01" horiz-adv-x="542" 
d="M89.5 4.5q-36.5 16.5 -58.5 48.5t-22 76q0 90 69.5 128.5t159.5 38.5q79 0 145 -17l4 25q2 16 2 24q0 46 -34 68t-104 22q-39 0 -83 -10.5t-83 -26.5l13 80q32 12 78.5 21.5t86.5 9.5q100 0 152 -39.5t52 -118.5q0 -24 -4 -47l-30 -190q-1 -4 -1 -11q0 -13 7.5 -18
t21.5 -5q21 0 42 7l-10 -66q-27 -10 -58 -10q-30 0 -51.5 13t-28.5 40l-1 4q-76 -63 -186 -63q-42 0 -78.5 16.5zM278 75.5q47 18.5 80 50.5l15 91q-57 12 -127 12q-61 0 -108 -22t-47 -75q0 -35 26 -55t67 -20q47 0 94 18.5zM192 697h98l68 -147h-85z" />
    <glyph glyph-name="amacron.ss01" horiz-adv-x="542" 
d="M89.5 4.5q-36.5 16.5 -58.5 48.5t-22 76q0 90 69.5 128.5t159.5 38.5q79 0 145 -17l4 25q2 16 2 24q0 46 -34 68t-104 22q-39 0 -83 -10.5t-83 -26.5l13 80q32 12 78.5 21.5t86.5 9.5q100 0 152 -39.5t52 -118.5q0 -24 -4 -47l-30 -190q-1 -4 -1 -11q0 -13 7.5 -18
t21.5 -5q21 0 42 7l-10 -66q-27 -10 -58 -10q-30 0 -51.5 13t-28.5 40l-1 4q-76 -63 -186 -63q-42 0 -78.5 16.5zM278 75.5q47 18.5 80 50.5l15 91q-57 12 -127 12q-61 0 -108 -22t-47 -75q0 -35 26 -55t67 -20q47 0 94 18.5zM164 637h300l-12 -73h-300z" />
    <glyph glyph-name="aogonek.ss01" horiz-adv-x="542" 
d="M415.5 -61q-31.5 -37 -35.5 -66q-1 -3 -1 -8q0 -13 9 -20.5t26 -7.5q28 0 55 11l-11 -66q-30 -10 -65 -10q-44 0 -67.5 21.5t-23.5 56.5q0 33 23 71t72 79q-32 13 -42 47l-1 4q-76 -63 -186 -63q-42 0 -78.5 16.5t-58.5 48.5t-22 76q0 90 69.5 128.5t159.5 38.5
q79 0 145 -17l4 25q2 16 2 24q0 46 -34 68t-104 22q-39 0 -83 -10.5t-83 -26.5l13 80q32 12 78.5 21.5t86.5 9.5q100 0 152 -39.5t52 -118.5q0 -24 -4 -47l-30 -190q-1 -4 -1 -11q0 -13 7.5 -18t21.5 -5q21 0 42 7l-10 -66q-46 -28 -77.5 -65zM373 217q-57 12 -127 12
q-61 0 -108 -22t-47 -75q0 -35 26 -55t67 -20q47 0 94 18.5t80 50.5z" />
    <glyph glyph-name="aring.ss01" horiz-adv-x="542" 
d="M89.5 4.5q-36.5 16.5 -58.5 48.5t-22 76q0 90 69.5 128.5t159.5 38.5q79 0 145 -17l4 25q2 16 2 24q0 46 -34 68t-104 22q-39 0 -83 -10.5t-83 -26.5l13 80q32 12 78.5 21.5t86.5 9.5q100 0 152 -39.5t52 -118.5q0 -24 -4 -47l-30 -190q-1 -4 -1 -11q0 -13 7.5 -18
t21.5 -5q21 0 42 7l-10 -66q-27 -10 -58 -10q-30 0 -51.5 13t-28.5 40l-1 4q-76 -63 -186 -63q-42 0 -78.5 16.5zM278 75.5q47 18.5 80 50.5l15 91q-57 12 -127 12q-61 0 -108 -22t-47 -75q0 -35 26 -55t67 -20q47 0 94 18.5zM226 550.5q-30 26.5 -30 70.5q0 36 18.5 64.5
t48.5 43.5t63 15q43 0 72.5 -26.5t29.5 -69.5q0 -12 -1 -18q-8 -48 -45 -77t-83 -29q-43 0 -73 26.5zM348.5 596q20.5 17 20.5 47q0 20 -13 33t-31 13q-25 0 -44.5 -14.5t-23.5 -40.5q-1 -4 -1 -11q0 -20 12.5 -32t31.5 -12q28 0 48.5 17z" />
    <glyph glyph-name="atilde.ss01" horiz-adv-x="542" 
d="M89.5 4.5q-36.5 16.5 -58.5 48.5t-22 76q0 90 69.5 128.5t159.5 38.5q79 0 145 -17l4 25q2 16 2 24q0 46 -34 68t-104 22q-39 0 -83 -10.5t-83 -26.5l13 80q32 12 78.5 21.5t86.5 9.5q100 0 152 -39.5t52 -118.5q0 -24 -4 -47l-30 -190q-1 -4 -1 -11q0 -13 7.5 -18
t21.5 -5q21 0 42 7l-10 -66q-27 -10 -58 -10q-30 0 -51.5 13t-28.5 40l-1 4q-76 -63 -186 -63q-42 0 -78.5 16.5zM278 75.5q47 18.5 80 50.5l15 91q-57 12 -127 12q-61 0 -108 -22t-47 -75q0 -35 26 -55t67 -20q47 0 94 18.5zM331 549.5q-21 6.5 -47 18.5q-14 7 -28.5 12
t-25.5 5q-18 0 -27.5 -9.5t-8.5 -26.5h-69q1 52 28.5 79t64.5 27q23 0 43.5 -6.5t46.5 -18.5q38 -17 56 -17q38 0 36 36h69q-1 -53 -28.5 -79.5t-65.5 -26.5q-23 0 -44 6.5z" />
    <glyph glyph-name="ae.ss01" horiz-adv-x="890" 
d="M56 25.5q-47 37.5 -47 103.5q0 91 71 129t168 38q69 0 135 -17l4 25q2 16 2 23q0 45 -32.5 68t-95.5 23q-78 0 -175 -37l13 80q36 12 82.5 21.5t91.5 9.5q70 0 115 -24.5t60 -70.5q41 45 97.5 70t115.5 25q93 0 142 -53t49 -134q0 -51 -20 -103h-382q-4 -72 45.5 -106
t129.5 -34q44 0 88 11t80 30l-13 -81q-35 -16 -80.5 -25t-93.5 -9q-62 0 -113 21.5t-81 63.5q-54 -44 -115.5 -64.5t-124.5 -20.5q-69 0 -116 37.5zM773 272q5 18 5 36q0 45 -30 77.5t-96 32.5q-67 0 -121.5 -39.5t-69.5 -106.5h312zM281 72.5q46 15.5 102 55.5
q-10 33 -10 66q0 15 1 23q-60 12 -118 12q-68 0 -116.5 -22t-48.5 -74q0 -35 27.5 -55.5t69.5 -20.5q47 0 93 15.5z" />
    <glyph glyph-name="y.ss01" horiz-adv-x="586" 
d="M88 -221q-48 11 -78 29l12 76q62 -42 165 -42q78 0 132.5 37t67.5 124l9 60q-33 -32 -78.5 -53.5t-94.5 -21.5q-83 0 -129 43.5t-46 116.5q0 18 3 39l46 293h80l-46 -289q-3 -21 -3 -37q0 -49 27 -70.5t81 -21.5q50 0 94.5 27.5t80.5 67.5l51 323h80l-76 -483
q-22 -120 -98 -174.5t-175 -54.5q-57 0 -105 11z" />
    <glyph glyph-name="yacute.ss01" horiz-adv-x="586" 
d="M88 -221q-48 11 -78 29l12 76q62 -42 165 -42q78 0 132.5 37t67.5 124l9 60q-33 -32 -78.5 -53.5t-94.5 -21.5q-83 0 -129 43.5t-46 116.5q0 18 3 39l46 293h80l-46 -289q-3 -21 -3 -37q0 -49 27 -70.5t81 -21.5q50 0 94.5 27.5t80.5 67.5l51 323h80l-76 -483
q-22 -120 -98 -174.5t-175 -54.5q-57 0 -105 11zM384 697h102l-127 -147h-89z" />
    <glyph glyph-name="ycircumflex.ss01" horiz-adv-x="586" 
d="M88 -221q-48 11 -78 29l12 76q62 -42 165 -42q78 0 132.5 37t67.5 124l9 60q-33 -32 -78.5 -53.5t-94.5 -21.5q-83 0 -129 43.5t-46 116.5q0 18 3 39l46 293h80l-46 -289q-3 -21 -3 -37q0 -49 27 -70.5t81 -21.5q50 0 94.5 27.5t80.5 67.5l51 323h80l-76 -483
q-22 -120 -98 -174.5t-175 -54.5q-57 0 -105 11zM310 697h72l109 -146h-86l-65 86l-91 -86h-94z" />
    <glyph glyph-name="ydieresis.ss01" horiz-adv-x="586" 
d="M88 -221q-48 11 -78 29l12 76q62 -42 165 -42q78 0 132.5 37t67.5 124l9 60q-33 -32 -78.5 -53.5t-94.5 -21.5q-83 0 -129 43.5t-46 116.5q0 18 3 39l46 293h80l-46 -289q-3 -21 -3 -37q0 -49 27 -70.5t81 -21.5q50 0 94.5 27.5t80.5 67.5l51 323h80l-76 -483
q-22 -120 -98 -174.5t-175 -54.5q-57 0 -105 11zM189.5 577q-14.5 15 -14.5 36q0 23 18.5 41t41.5 18q21 0 36 -15.5t15 -36.5q0 -24 -18 -41t-42 -17q-22 0 -36.5 15zM391.5 577q-14.5 15 -14.5 36q0 23 18.5 41t41.5 18q21 0 36 -15.5t15 -36.5q0 -24 -18 -41t-42 -17
q-22 0 -36.5 15z" />
    <glyph glyph-name="ygrave.ss01" horiz-adv-x="586" 
d="M88 -221q-48 11 -78 29l12 76q62 -42 165 -42q78 0 132.5 37t67.5 124l9 60q-33 -32 -78.5 -53.5t-94.5 -21.5q-83 0 -129 43.5t-46 116.5q0 18 3 39l46 293h80l-46 -289q-3 -21 -3 -37q0 -49 27 -70.5t81 -21.5q50 0 94.5 27.5t80.5 67.5l51 323h80l-76 -483
q-22 -120 -98 -174.5t-175 -54.5q-57 0 -105 11zM223 697h98l68 -147h-85z" />
    <glyph glyph-name="f_b" horiz-adv-x="965" 
d="M821 465q47 -27 73 -75t26 -109q0 -14 -4 -46q-11 -71 -49 -127t-96.5 -88t-129.5 -32q-65 0 -108.5 25.5t-73.5 68.5l-14 -82h-72l99 614q-51 24 -108 24q-54 0 -88.5 -23.5t-43.5 -74.5l-10 -60h150l-12 -74h-150l-64 -406h-80l64 406h-90l12 74h90l11 66
q12 79 70 122.5t141 43.5q62 0 130 -30l70 18l-48 -294q36 38 86 62t111 24t108 -27zM841 274q0 65 -39.5 104.5t-101.5 39.5q-65 0 -116.5 -34.5t-82.5 -85.5l-21 -120q14 -50 55 -83t101 -33q79 0 134 47.5t68 130.5q3 18 3 34z" />
    <glyph glyph-name="f_f_b" horiz-adv-x="1275" 
d="M1131 465q47 -27 73 -75t26 -109q0 -14 -4 -46q-11 -71 -49 -127t-96.5 -88t-129.5 -32q-65 0 -108.5 25.5t-73.5 68.5l-14 -82h-72l100 624q-49 24 -107 24q-117 0 -134 -108l-10 -60h150l-12 -74h-150l-64 -406h-80l64 406h-230l-64 -406h-80l64 406h-90l12 74h90l9 56
q12 79 71 122.5t140 43.5q43 0 78 -10.5t73 -33.5q29 32 70 48t88 16q69 0 134 -30l71 18l-50 -304q36 38 86 62t111 24t108 -27zM476 596q-25 17 -50.5 24.5t-62.5 7.5q-51 0 -88 -24t-45 -74l-8 -50h230l11 66q5 30 13 50zM1151 274q0 65 -39.5 104.5t-101.5 39.5
q-65 0 -116.5 -34.5t-82.5 -85.5l-21 -120q14 -50 55 -83t101 -33q79 0 134 47.5t68 130.5q3 18 3 34z" />
    <glyph glyph-name="f_f_h" horiz-adv-x="1242" 
d="M1132.5 447.5q45.5 -44.5 45.5 -117.5q0 -17 -3 -37l-46 -293h-81l46 289q2 11 2 30q0 50 -29 74.5t-78 24.5q-48 0 -95.5 -29t-80.5 -70l-50 -319h-80l100 624q-49 24 -107 24q-117 0 -134 -108l-10 -60h150l-12 -74h-150l-64 -406h-80l64 406h-230l-64 -406h-80l64 406
h-90l12 74h90l9 56q12 79 71 122.5t140 43.5q43 0 78 -10.5t73 -33.5q29 32 70 48t88 16q69 0 134 -30l71 18l-48 -296q37 35 84.5 56.5t96.5 21.5q78 0 123.5 -44.5zM476 596q-25 17 -50.5 24.5t-62.5 7.5q-51 0 -88 -24t-45 -74l-8 -50h230l11 66q5 30 13 50z" />
    <glyph glyph-name="f_f_j" horiz-adv-x="875" 
d="M505 -216l11 70q23 -12 52 -12q36 0 61 20t32 64l76 480h-217l-64 -406h-80l64 406h-230l-64 -406h-80l64 406h-90l12 74h90l9 56q12 79 70 122.5t141 43.5q44 0 78.5 -10.5t73.5 -33.5q29 32 71 48t90 16q40 0 74 -9t69 -27l-12 -78q-32 21 -63 30.5t-67 9.5
q-116 0 -134 -108l-10 -60h297l-91 -572q-12 -74 -56.5 -107t-99.5 -33q-43 0 -77 16zM452 480l11 66q5 28 13 49q-26 17 -51 25t-62 8q-54 0 -89.5 -24t-43.5 -74l-8 -50h230z" />
    <glyph glyph-name="f_f_k" horiz-adv-x="1175" 
d="M964 246l161 -246h-90l-141 216h-96l-34 -216h-80l98 623q-49 25 -106 25q-117 0 -134 -108l-10 -60h150l-12 -74h-150l-64 -406h-80l64 406h-230l-64 -406h-80l64 406h-90l12 74h90l9 56q12 79 71 122.5t140 43.5q43 0 78 -10.5t73 -33.5q29 32 70 48t88 16
q37 0 69 -7.5t66 -22.5l70 18l-66 -420h101l177 190h95zM476 596q-25 17 -50.5 24.5t-62.5 7.5q-51 0 -88 -24t-45 -74l-8 -50h230l11 66q5 30 13 50z" />
    <glyph glyph-name="f_h" horiz-adv-x="932" 
d="M822.5 447.5q45.5 -44.5 45.5 -117.5q0 -17 -3 -37l-46 -293h-81l46 289q2 11 2 30q0 50 -29 74.5t-78 24.5q-48 0 -95.5 -29t-80.5 -70l-50 -319h-80l98 614q-51 24 -107 24q-54 0 -88.5 -23.5t-43.5 -74.5l-10 -60h150l-12 -74h-150l-64 -406h-80l64 406h-90l12 74h90
l11 66q12 79 70 122.5t141 43.5q64 0 128 -29l72 17l-46 -286q37 35 84.5 56.5t96.5 21.5q78 0 123.5 -44.5z" />
    <glyph glyph-name="f_j" horiz-adv-x="565" 
d="M195 -216l11 70q23 -12 52 -12q36 0 61 20t32 64l76 480h-217l-64 -406h-80l64 406h-90l12 74h90l11 66q12 80 68.5 123t138.5 43q79 0 148 -36l-13 -77q-32 20 -63.5 29.5t-67.5 9.5q-54 0 -88.5 -23.5t-43.5 -74.5l-10 -60h297l-91 -572q-12 -74 -56.5 -107t-99.5 -33
q-43 0 -77 16z" />
    <glyph glyph-name="f_k" horiz-adv-x="865" 
d="M654 246l161 -246h-90l-141 216h-97l-34 -216h-80l99 614q-51 24 -108 24q-54 0 -88.5 -23.5t-43.5 -74.5l-10 -60h150l-12 -74h-150l-64 -406h-80l64 406h-90l12 74h90l11 66q12 79 70 122.5t141 43.5q62 0 130 -30l70 18l-65 -410h102l177 190h95z" />
    <glyph glyph-name="uni0410" unicode="&#x410;" horiz-adv-x="718" 
d="M377 700h94l193 -700h-87l-45 169h-378l-98 -169h-94zM511 247l-91 340q-5 16 -6 29q-8 -18 -16 -31l-199 -338h312z" />
    <glyph glyph-name="uni0411" unicode="&#x411;" horiz-adv-x="668" 
d="M158 700h485l-13 -80h-401l-32 -203h189q99 0 167.5 -39t68.5 -133q0 -12 -4 -42q-18 -115 -101.5 -159t-197.5 -44h-272zM332 80q79 0 134.5 27.5t68.5 105.5q2 10 2 27q0 59 -43 78t-112 19h-197l-41 -257h188z" />
    <glyph glyph-name="uni0412" unicode="&#x412;" horiz-adv-x="693" 
d="M158 700h285q92 0 152.5 -41t60.5 -115q0 -18 -2 -28q-10 -61 -48 -98.5t-88 -50.5q46 -13 80.5 -49t34.5 -98q0 -15 -3 -33q-17 -105 -99.5 -146t-186.5 -41h-297zM412 402q63 0 105.5 28t51.5 86q2 14 2 21q0 45 -37 64t-107 19h-198l-34 -218h217zM336 80
q84 0 141.5 24t70.5 102q2 16 2 23q0 56 -44 74.5t-105 18.5h-219l-38 -242h192z" />
    <glyph glyph-name="uni0413" unicode="&#x413;" horiz-adv-x="571" 
d="M158 700h460l-13 -80h-376l-98 -620h-84z" />
    <glyph glyph-name="uni0403" unicode="&#x403;" horiz-adv-x="571" 
d="M158 700h460l-13 -80h-376l-98 -620h-84zM449 917h102l-127 -147h-89z" />
    <glyph glyph-name="uni0490" unicode="&#x490;" horiz-adv-x="572" 
d="M158 700h381l23 140h79l-35 -220h-376l-98 -620h-84z" />
    <glyph glyph-name="uni0414" unicode="&#x414;" horiz-adv-x="770" 
d="M-13 80h88q78 117 131.5 281t79.5 339h428l-98 -620h88l-39 -245h-80l26 165h-557l-26 -165h-80zM532 80l85 540h-260q-33 -160 -81 -302.5t-110 -237.5h366z" />
    <glyph glyph-name="uni0415" unicode="&#x415;" horiz-adv-x="621" 
d="M158 700h472l-13 -80h-388l-36 -227h358l-12 -80h-358l-37 -233h394l-13 -80h-478z" />
    <glyph glyph-name="uni0401" unicode="&#x401;" horiz-adv-x="621" 
d="M158 700h472l-13 -80h-388l-36 -227h358l-12 -80h-358l-37 -233h394l-13 -80h-478zM268.5 797q-14.5 15 -14.5 36q0 23 18.5 41t41.5 18q21 0 36 -15.5t15 -36.5q0 -24 -18 -41t-42 -17q-22 0 -36.5 15zM470.5 797q-14.5 15 -14.5 36q0 23 18.5 41t41.5 18q21 0 36 -15.5
t15 -36.5q0 -24 -18 -41t-42 -17q-22 0 -36.5 15z" />
    <glyph glyph-name="uni0416" unicode="&#x416;" horiz-adv-x="936" 
d="M247 359l-151 341h89l131 -303h128l48 303h84l-48 -303h120l230 303h95l-261 -341l169 -359h-87l-150 317h-129l-50 -317h-84l50 317h-120l-254 -317h-98z" />
    <glyph glyph-name="uni0417" unicode="&#x417;" horiz-adv-x="609" 
d="M113 -1q-58 11 -115 34l13 82q52 -25 107 -36t123 -11q84 0 147 30.5t75 103.5q2 16 2 22q0 99 -169 99h-145l13 80h132q77 0 129 31.5t61 87.5q1 6 1 16q0 48 -43.5 71t-113.5 23q-64 0 -119.5 -12t-116.5 -41l13 83q109 50 235 50q100 0 165.5 -43.5t65.5 -119.5
q0 -9 -2 -27q-9 -60 -47 -100t-93 -57q48 -11 83 -47.5t35 -99.5q0 -16 -3 -34q-16 -103 -103 -149.5t-201 -46.5q-71 0 -129 11z" />
    <glyph glyph-name="uni0418" unicode="&#x418;" horiz-adv-x="769" 
d="M158 700h84l-80 -502q-5 -34 -12 -64l508 566h83l-111 -700h-84l80 503q5 35 12 63l-508 -566h-83z" />
    <glyph glyph-name="uni0419" unicode="&#x419;" horiz-adv-x="769" 
d="M158 700h84l-80 -502q-5 -34 -12 -64l508 566h83l-111 -700h-84l80 503q5 35 12 63l-508 -566h-83zM329 816l12 78q33 -24 63 -34t68 -10t73.5 10t75.5 34l-12 -78q-66 -42 -145 -42q-83 0 -135 42z" />
    <glyph glyph-name="uni040D" unicode="&#x40d;" horiz-adv-x="769" 
d="M158 700h84l-80 -502q-5 -34 -12 -64l508 566h83l-111 -700h-84l80 503q5 35 12 63l-508 -566h-83zM357 917h98l68 -147h-85z" />
    <glyph glyph-name="uni041A" unicode="&#x41a;" horiz-adv-x="662" 
d="M158 700h84l-48 -304h118l299 304h98l-329 -337l238 -363h-94l-219 317h-123l-50 -317h-84z" />
    <glyph glyph-name="uni040C" unicode="&#x40c;" horiz-adv-x="662" 
d="M158 700h84l-48 -304h118l299 304h98l-329 -337l238 -363h-94l-219 317h-123l-50 -317h-84zM460 917h102l-127 -147h-89z" />
    <glyph glyph-name="uni041B" unicode="&#x41b;" horiz-adv-x="747" 
d="M-7 -7q-16 3 -33 9l13 82q25 -10 51 -10q56 0 102 81t82.5 213t79.5 332h431l-111 -700h-84l98 620h-267q-49 -220 -87 -345.5t-95 -205t-140 -79.5q-24 0 -40 3z" />
    <glyph glyph-name="uni041C" unicode="&#x41c;" horiz-adv-x="906" 
d="M158 700h75l211 -433l347 433h87l-111 -700h-84l88 551l-310 -386h-54l-188 386l-88 -551h-84z" />
    <glyph glyph-name="uni041D" unicode="&#x41d;" horiz-adv-x="769" 
d="M158 700h84l-49 -309h415l49 309h84l-111 -700h-84l49 311h-415l-49 -311h-84z" />
    <glyph glyph-name="uni041E" unicode="&#x41e;" horiz-adv-x="819" 
d="M195.5 31q-71.5 43 -109 114t-37.5 154q0 31 4 56q15 93 69 174.5t144 132t206 50.5q98 0 169.5 -43t109 -114t37.5 -154q0 -31 -4 -56q-15 -94 -67.5 -175.5t-141.5 -131.5t-210 -50q-98 0 -169.5 43zM532.5 107q70.5 39 113 103t54.5 140q4 32 4 47q0 62 -25.5 115.5
t-79 86.5t-132.5 33q-92 0 -162.5 -39t-113 -103t-54.5 -140q-4 -32 -4 -47q0 -62 25.5 -115.5t79 -86.5t132.5 -33q92 0 162.5 39z" />
    <glyph glyph-name="uni041F" unicode="&#x41f;" horiz-adv-x="757" 
d="M158 700h571l-111 -700h-84l98 620h-403l-98 -620h-84z" />
    <glyph glyph-name="uni0420" unicode="&#x420;" horiz-adv-x="663" 
d="M158 700h247q109 0 182.5 -44.5t73.5 -142.5q0 -14 -4 -44q-19 -121 -106.5 -171t-223.5 -50h-157l-39 -248h-84zM340 328q99 0 160 33.5t74 117.5q2 10 2 27q0 114 -176 114h-171l-46 -292h157z" />
    <glyph glyph-name="uni0421" unicode="&#x421;" horiz-adv-x="646" 
d="M215 23.5q-73 35.5 -118.5 106t-45.5 169.5q0 34 6 71q17 105 82 183t155.5 118.5t180.5 40.5q108 0 186 -48l-12 -81q-31 24 -73.5 36.5t-91.5 12.5q-76 0 -150 -31t-127 -92.5t-67 -148.5q-5 -32 -5 -55q0 -79 37 -132t95.5 -79t122.5 -26q52 0 101.5 13.5t88.5 38.5
l-14 -91q-42 -21 -93.5 -31t-105.5 -10q-79 0 -152 35.5z" />
    <glyph glyph-name="uni0422" unicode="&#x422;" horiz-adv-x="603" 
d="M311 620h-246l13 80h576l-13 -80h-246l-98 -620h-84z" />
    <glyph glyph-name="uni0423" unicode="&#x423;" horiz-adv-x="629" 
d="M14 5l12 78q36 -15 75 -15q45 0 81.5 19t77.5 75l19 26l-209 512h88l174 -435l269 435h95l-341 -543q-60 -95 -120 -132t-124 -37q-52 0 -97 17z" />
    <glyph glyph-name="uni040E" unicode="&#x40e;" horiz-adv-x="629" 
d="M14 5l12 78q36 -15 75 -15q45 0 81.5 19t77.5 75l19 26l-209 512h88l174 -435l269 435h95l-341 -543q-60 -95 -120 -132t-124 -37q-52 0 -97 17zM256 816l12 78q33 -24 63 -34t68 -10t73.5 10t75.5 34l-12 -78q-66 -42 -145 -42q-83 0 -135 42z" />
    <glyph glyph-name="uni0424" unicode="&#x424;" horiz-adv-x="865" 
d="M352 54q-88 3 -160.5 35t-114.5 89.5t-42 135.5q0 15 4 45q21 135 129.5 208.5t277.5 78.5l15 91h84l-15 -91q83 -3 156.5 -35.5t118 -91.5t44.5 -136q0 -21 -3 -42q-21 -135 -129.5 -208.5t-280.5 -78.5l-14 -91h-84zM434 570q-138 -7 -217 -61.5t-94 -154.5
q-3 -18 -3 -34q0 -83 63.5 -133.5t180.5 -56.5zM666 191.5q80 54.5 96 154.5q3 18 3 34q0 82 -66.5 133t-180.5 57l-70 -440q138 7 218 61.5z" />
    <glyph glyph-name="uni0425" unicode="&#x425;" horiz-adv-x="645" 
d="M285 364l-199 336h93l163 -274l249 274h106l-314 -345l211 -355h-93l-174 293l-267 -293h-106z" />
    <glyph glyph-name="uni0427" unicode="&#x427;" horiz-adv-x="683" 
d="M504 272q-103 -33 -198 -33q-111 0 -173.5 49t-62.5 143q0 26 4 49l35 220h84l-36 -230q-3 -18 -3 -33q0 -62 43.5 -89.5t125.5 -28.5q87 0 194 32l55 349h84l-111 -700h-84z" />
    <glyph glyph-name="uni0426" unicode="&#x426;" horiz-adv-x="787" 
d="M628 0h-581l111 700h84l-98 -620h405l98 620h84l-98 -620h87l-39 -245h-79z" />
    <glyph glyph-name="uni0428" unicode="&#x428;" horiz-adv-x="1062" 
d="M158 700h84l-98 -620h312l98 620h84l-98 -620h312l98 620h84l-111 -700h-876z" />
    <glyph glyph-name="uni0429" unicode="&#x429;" horiz-adv-x="1090" 
d="M931 0h-884l111 700h84l-98 -620h312l98 620h84l-98 -620h312l98 620h84l-98 -620h87l-39 -245h-79z" />
    <glyph glyph-name="uni040F" unicode="&#x40f;" horiz-adv-x="760" 
d="M621 0h-247l-26 -165h-80l27 165h-247l110 700h84l-98 -620h405l98 620h84z" />
    <glyph glyph-name="uni042C" unicode="&#x42c;" horiz-adv-x="663" 
d="M158 700h84l-39 -249h158q116 0 188.5 -43.5t72.5 -141.5q0 -24 -4 -45q-19 -121 -105.5 -171t-224.5 -50h-241zM301 80q100 0 160.5 33t73.5 118q2 10 2 27q0 64 -49 88.5t-132 24.5h-166l-46 -291h157z" />
    <glyph glyph-name="uni042A" unicode="&#x42a;" horiz-adv-x="758" 
d="M240 620h-178l13 80h262l-39 -249h158q116 0 188.5 -43.5t72.5 -141.5q0 -24 -4 -45q-19 -121 -105.5 -171t-224.5 -50h-241zM396 80q100 0 160.5 33t73.5 118q2 10 2 27q0 64 -49 88.5t-132 24.5h-166l-46 -291h157z" />
    <glyph glyph-name="uni042B" unicode="&#x42b;" horiz-adv-x="883" 
d="M158 700h84l-39 -249h158q116 0 188.5 -43.5t72.5 -141.5q0 -24 -4 -45q-19 -121 -105.5 -171t-224.5 -50h-241zM771 700h84l-111 -700h-84zM301 80q100 0 160.5 33t73.5 118q2 10 2 27q0 64 -49 88.5t-132 24.5h-166l-46 -291h157z" />
    <glyph glyph-name="uni0409" unicode="&#x409;" horiz-adv-x="1126" 
d="M1016.5 384q65.5 -41 65.5 -129q0 -127 -87.5 -191t-235.5 -64h-240l98 620h-262q-49 -220 -87 -345.5t-95 -205t-140 -79.5q-24 0 -40 3t-33 9l13 82q25 -10 51 -10q56 0 102 81t82.5 213t79.5 332h426l-44 -275h156q125 0 190.5 -41zM935.5 118q59.5 38 59.5 127
q0 59 -42 79.5t-132 20.5h-163l-42 -265h156q104 0 163.5 38z" />
    <glyph glyph-name="uni040A" unicode="&#x40a;" horiz-adv-x="1132" 
d="M1022.5 384q65.5 -41 65.5 -129q0 -127 -87.5 -191t-235.5 -64h-239l54 345h-394l-54 -345h-84l110 700h84l-43 -275h394l43 275h84l-43 -275h155q125 0 190.5 -41zM941.5 118q59.5 38 59.5 127q0 59 -42 79.5t-132 20.5h-163l-41 -265h155q104 0 163.5 38z" />
    <glyph glyph-name="uni0405" unicode="&#x405;" horiz-adv-x="614" 
d="M135 4q-63 16 -110 45l13 81q48 -32 106.5 -47t121.5 -15q82 0 131.5 23.5t58.5 80.5q2 12 2 18q0 33 -21.5 57t-52.5 39.5t-87 37.5q-65 26 -103.5 46.5t-66 54.5t-27.5 84q0 8 2 28q9 59 48.5 98t96 58t119.5 19q58 0 112 -15.5t92 -41.5l-12 -80q-35 27 -84.5 42
t-101.5 15q-169 0 -186 -102q-1 -6 -1 -16q0 -31 20.5 -53t51 -37.5t84.5 -36.5q66 -25 106 -46t68 -55.5t28 -86.5q0 -20 -2 -31q-15 -95 -92 -137.5t-182 -42.5q-69 0 -132 16z" />
    <glyph glyph-name="uni0404" unicode="&#x404;" horiz-adv-x="654" 
d="M209 28q-74 40 -115.5 112t-41.5 165q0 112 55 205t151.5 147.5t215.5 54.5q56 0 108.5 -13t91.5 -36l-13 -84q-31 24 -81.5 38.5t-102.5 14.5q-79 0 -147.5 -30.5t-115.5 -85.5t-66 -126h367l-12 -80h-365l-1 -18q0 -66 32 -117t90.5 -79.5t133.5 -28.5q52 0 103 14.5
t92 40.5l-14 -87q-99 -47 -197 -47q-94 0 -168 40z" />
    <glyph glyph-name="uni042D" unicode="&#x42d;" horiz-adv-x="652" 
d="M96 1q-54 13 -93 35l12 79q34 -22 83.5 -34.5t98.5 -12.5q122 0 211 60t117 185l-366 -3l13 80l364 3q5 80 -30 134t-94 79.5t-126 25.5q-54 0 -104.5 -12.5t-92.5 -36.5l14 86q44 21 96 32t104 11q81 0 153.5 -34.5t118 -103.5t45.5 -167q0 -33 -6 -69
q-19 -118 -79 -196.5t-146 -116t-185 -37.5q-54 0 -108 13z" />
    <glyph glyph-name="uni0406" unicode="&#x406;" horiz-adv-x="270" 
d="M158 700h84l-111 -700h-84z" />
    <glyph glyph-name="uni0407" unicode="&#x407;" horiz-adv-x="270" 
d="M158 700h84l-111 -700h-84zM74.5 797q-14.5 15 -14.5 36q0 23 18.5 41t41.5 18q21 0 36 -15.5t15 -36.5q0 -24 -18 -41t-42 -17q-22 0 -36.5 15zM276.5 797q-14.5 15 -14.5 36q0 23 18.5 41t41.5 18q21 0 36 -15.5t15 -36.5q0 -24 -18 -41t-42 -17q-22 0 -36.5 15z" />
    <glyph glyph-name="uni0408" unicode="&#x408;" horiz-adv-x="511" 
d="M52.5 1.5q-45.5 11.5 -75.5 32.5l13 82q58 -46 151 -46q77 0 126 33t62 111l64 406h-206l13 80h290l-78 -495q-18 -111 -88 -163t-172 -52q-54 0 -99.5 11.5z" />
    <glyph glyph-name="uni040B" unicode="&#x40b;" horiz-adv-x="767" 
d="M293 620h-227l12 80h576l-12 -80h-265l-30 -185q33 24 79 40.5t97 16.5q75 0 123 -42t48 -124q0 -20 -3 -44l-43 -282h-84l44 280q2 11 2 30q0 51 -29.5 76.5t-80.5 25.5q-47 0 -91 -18.5t-75 -45.5l-55 -348h-84z" />
    <glyph glyph-name="uni042E" unicode="&#x42e;" horiz-adv-x="1093" 
d="M466 32.5q-73 44.5 -109.5 118.5t-33.5 159h-143l-49 -310h-84l111 700h84l-49 -310h141q22 86 77 159.5t140.5 118t194.5 44.5q98 0 169.5 -43t109 -114t37.5 -154q0 -31 -4 -56q-15 -94 -67.5 -175.5t-141.5 -131.5t-210 -50q-100 0 -173 44.5zM806.5 107
q70.5 39 113 103t54.5 140q4 32 4 47q0 62 -25.5 115.5t-79 86.5t-132.5 33q-92 0 -162.5 -39t-113 -103t-54.5 -140q-4 -32 -4 -47q0 -62 25.5 -115.5t79 -86.5t132.5 -33q92 0 162.5 39z" />
    <glyph glyph-name="uni042F" unicode="&#x42f;" horiz-adv-x="690" 
d="M662 700l-111 -700h-84l40 256h-170h-14l-245 -256h-100l257 269q-71 19 -108 65.5t-37 109.5q0 20 3 39q18 113 101 165t212 52h256zM565 620h-171q-88 0 -146 -35.5t-70 -111.5q-2 -20 -2 -27q0 -110 169 -110h175z" />
    <glyph glyph-name="uni0402" unicode="&#x402;" horiz-adv-x="765" 
d="M431 2l12 77q24 -11 50 -11q80 0 93 79l22 133q2 11 2 30q0 51 -29.5 76.5t-80.5 25.5q-47 0 -91 -18.5t-75 -45.5l-55 -348h-84l98 620h-227l12 80h576l-12 -80h-265l-30 -185q33 24 79 40.5t97 16.5q75 0 123 -42t48 -124q0 -20 -3 -44l-24 -151q-12 -78 -57 -110.5
t-105 -32.5q-42 0 -74 14z" />
    <glyph glyph-name="uni0414.loclBGR" horiz-adv-x="786" 
d="M-8 80h75l343 620h93l148 -620h76l-39 -245h-80l26 165h-575l-26 -165h-80zM568 80l-121 525l-286 -525h407z" />
    <glyph glyph-name="uni041B.loclBGR" horiz-adv-x="685" 
d="M364 700h87l179 -700h-88l-146 600l-341 -600h-92z" />
    <glyph glyph-name="uni0424.loclBGR" horiz-adv-x="905" 
d="M364 -5q-95 4 -166.5 44t-110 107t-38.5 151q0 25 5 58q16 97 72 174.5t146.5 124t204.5 51.5l15 95h82l-15 -95q95 -4 166.5 -44t110 -107t38.5 -151q0 -25 -5 -58q-16 -97 -72 -174.5t-146.5 -124t-204.5 -51.5l-15 -95h-82zM464 625q-92 -5 -161.5 -43t-111 -98
t-53.5 -134q-4 -21 -4 -48q0 -95 61 -157.5t182 -69.5zM621.5 118q69.5 38 111 98t52.5 134q4 23 4 49q0 94 -61.5 156.5t-181.5 69.5l-87 -550q93 5 162.5 43z" />
    <glyph glyph-name="uni0414.ss02" horiz-adv-x="786" 
d="M-8 80h75l343 620h93l148 -620h76l-39 -245h-80l26 165h-575l-26 -165h-80zM568 80l-121 525l-286 -525h407z" />
    <glyph glyph-name="uni041B.ss02" horiz-adv-x="685" 
d="M364 700h87l179 -700h-88l-146 600l-341 -600h-92z" />
    <glyph glyph-name="uni0424.ss02" horiz-adv-x="905" 
d="M364 -5q-95 4 -166.5 44t-110 107t-38.5 151q0 25 5 58q16 97 72 174.5t146.5 124t204.5 51.5l15 95h82l-15 -95q95 -4 166.5 -44t110 -107t38.5 -151q0 -25 -5 -58q-16 -97 -72 -174.5t-146.5 -124t-204.5 -51.5l-15 -95h-82zM464 625q-92 -5 -161.5 -43t-111 -98
t-53.5 -134q-4 -21 -4 -48q0 -95 61 -157.5t182 -69.5zM621.5 118q69.5 38 111 98t52.5 134q4 23 4 49q0 94 -61.5 156.5t-181.5 69.5l-87 -550q93 5 162.5 43z" />
    <glyph glyph-name="uni0430" unicode="&#x430;" horiz-adv-x="619" 
d="M128 15q-47 27 -73 75t-26 109q0 14 4 46q11 70 50.5 126.5t98.5 88.5t126 32q117 0 183 -95l13 83h72l-76 -480h-72l13 82q-85 -94 -205 -94q-61 0 -108 27zM364.5 97q53.5 35 83.5 85l19 120q-12 49 -53 82.5t-101 33.5q-48 0 -91 -21.5t-72.5 -62t-38.5 -94.5
q-3 -18 -3 -34q0 -65 39.5 -104.5t101.5 -39.5t115.5 35z" />
    <glyph glyph-name="uni0431" unicode="&#x431;" horiz-adv-x="584" 
d="M103 45.5q-61 57.5 -61 164.5q0 35 5 64q19 121 71 200t129 121q52 28 96 43t99 28q47 12 74 21.5t50 26.5l-14 -88q-19 -13 -40.5 -19.5t-61.5 -15.5q-51 -12 -86.5 -23.5t-77.5 -34.5q-92 -51 -143 -163q32 41 84.5 65.5t104.5 24.5t98.5 -25t75.5 -71t29 -105
q0 -18 -3 -38q-17 -109 -90 -171t-178 -62q-100 0 -161 57.5zM393 110q49 46 60 119q2 16 2 24q0 58 -40 95.5t-100 37.5q-55 0 -100.5 -25t-72 -67.5t-26.5 -92.5q0 -63 40.5 -100t109.5 -37q78 0 127 46z" />
    <glyph glyph-name="uni0432" unicode="&#x432;" horiz-adv-x="548" 
d="M104 480h251q65 0 103 -29t38 -81q0 -44 -23 -78.5t-60 -49.5q26 -9 44.5 -33.5t18.5 -59.5q0 -7 -2 -21q-9 -60 -54.5 -94t-128.5 -34h-263zM325 277q34 0 58 17t30 53q1 5 1 13q0 28 -20 39t-54 11h-167l-21 -133h173zM287 70q48 0 76 17t34 56q1 5 1 14q0 29 -20 40
t-52 11h-185l-22 -138h168z" />
    <glyph glyph-name="uni0433" unicode="&#x433;" horiz-adv-x="442" 
d="M104 480h351l-12 -74h-271l-64 -406h-80z" />
    <glyph glyph-name="uni0453" unicode="&#x453;" horiz-adv-x="442" 
d="M104 480h351l-12 -74h-271l-64 -406h-80zM329 697h102l-127 -147h-89z" />
    <glyph glyph-name="uni0491" unicode="&#x491;" horiz-adv-x="442" 
d="M104 480h273l19 120h78l-31 -194h-271l-64 -406h-80z" />
    <glyph glyph-name="uni0434" unicode="&#x434;" horiz-adv-x="633" 
d="M-8 72h67q58 81 93 177.5t55 230.5h353l-64 -408h70l-32 -202h-78l21 130h-418l-21 -130h-78zM416 72l53 334h-199q-20 -107 -50 -185.5t-76 -148.5h272z" />
    <glyph glyph-name="uni0435" unicode="&#x435;" horiz-adv-x="548" 
d="M152 12q-54 24 -88 72t-34 116q0 21 3 43q12 79 55 135.5t102 85t119 28.5q98 0 149 -53.5t51 -135.5q0 -51 -19 -101h-382q-4 -71 47.5 -105.5t124.5 -34.5q46 0 90.5 11t80.5 30l-13 -81q-73 -34 -172 -34q-60 0 -114 24zM431 272q5 18 5 36q0 45 -30 77.5t-96 32.5
q-67 0 -121.5 -39.5t-69.5 -106.5h312z" />
    <glyph glyph-name="uni0451" unicode="&#x451;" horiz-adv-x="546" 
d="M180.5 577q-14.5 15 -14.5 36q0 23 18.5 41t41.5 18q21 0 36 -15.5t15 -36.5q0 -24 -18 -41t-42 -17q-22 0 -36.5 15zM382.5 577q-14.5 15 -14.5 36q0 23 18.5 41t41.5 18q21 0 36 -15.5t15 -36.5q0 -24 -18 -41t-42 -17q-22 0 -36.5 15zM152 12q-54 24 -88 72t-34 116
q0 21 3 43q12 79 55 135.5t102 85t119 28.5q98 0 149 -53.5t51 -135.5q0 -51 -19 -101h-382q-4 -71 47.5 -105.5t124.5 -34.5q46 0 90.5 11t80.5 30l-13 -81q-73 -34 -172 -34q-60 0 -114 24zM431 272q5 18 5 36q0 45 -30 77.5t-96 32.5q-67 0 -121.5 -39.5t-69.5 -106.5
h312z" />
    <glyph glyph-name="uni0436" unicode="&#x436;" horiz-adv-x="753" 
d="M193 244l-130 236h84l114 -205h74l32 205h80l-32 -205h73l177 205h91l-210 -242l154 -238h-88l-132 201h-77l-32 -201h-80l32 201h-75l-194 -201h-94z" />
    <glyph glyph-name="uni0437" unicode="&#x437;" horiz-adv-x="485" 
d="M-2 26l12 75q29 -17 72.5 -28t87.5 -11q76 0 118.5 18t49.5 63q1 4 1 12q0 31 -26.5 41.5t-68.5 10.5h-117l12 74h113q44 0 73.5 16.5t34.5 50.5l1 9q0 31 -35 46.5t-88 15.5q-46 0 -92 -10.5t-84 -28.5l12 77q84 36 171 36q92 0 144.5 -33t52.5 -91q0 -49 -28.5 -81.5
t-78.5 -42.5q36 -10 59 -36.5t23 -65.5q0 -5 -2 -19q-21 -136 -245 -136q-98 0 -172 38z" />
    <glyph glyph-name="uni0438" unicode="&#x438;" horiz-adv-x="589" 
d="M104 480h80l-54 -346l347 346h69l-76 -480h-80l54 345l-347 -345h-69z" />
    <glyph glyph-name="uni0439" unicode="&#x439;" horiz-adv-x="589" 
d="M104 480h80l-54 -346l347 346h69l-76 -480h-80l54 345l-347 -345h-69zM205 596l12 78q33 -24 63 -34t68 -10t73.5 10t75.5 34l-12 -78q-66 -42 -145 -42q-83 0 -135 42z" />
    <glyph glyph-name="uni045D" unicode="&#x45d;" horiz-adv-x="589" 
d="M104 480h80l-54 -346l347 346h69l-76 -480h-80l54 345l-347 -345h-69zM233 697h98l68 -147h-85z" />
    <glyph glyph-name="uni043A" unicode="&#x43a;" horiz-adv-x="521" 
d="M104 480h80l-30 -190h101l177 190h95l-219 -234l161 -246h-90l-141 216h-96l-34 -216h-80z" />
    <glyph glyph-name="uni045C" unicode="&#x45c;" horiz-adv-x="521" 
d="M104 480h80l-30 -190h101l177 190h95l-219 -234l161 -246h-90l-141 216h-96l-34 -216h-80zM347 697h102l-127 -147h-89z" />
    <glyph glyph-name="uni043B" unicode="&#x43b;" horiz-adv-x="591" 
d="M-32 4l10 65q14 -9 45 -9q42 0 71 48.5t50.5 133.5t51.5 238h352l-76 -480h-80l64 406h-195q-33 -149 -59 -232.5t-66 -132.5t-100 -49q-39 0 -68 12z" />
    <glyph glyph-name="uni043C" unicode="&#x43c;" horiz-adv-x="679" 
d="M104 480h81l139 -266l216 266h96l-76 -480h-80l58 363l-186 -229h-67l-119 228l-58 -362h-80z" />
    <glyph glyph-name="uni043D" unicode="&#x43d;" horiz-adv-x="585" 
d="M104 480h80l-32 -203h278l32 203h80l-76 -480h-80l32 203h-278l-32 -203h-80z" />
    <glyph glyph-name="uni043E" unicode="&#x43e;" horiz-adv-x="592" 
d="M140.5 13q-50.5 25 -81 72.5t-30.5 113.5q0 14 4 46q12 78 57 133.5t107.5 84.5t128.5 29q59 0 109.5 -24.5t81 -72.5t30.5 -113q0 -26 -4 -47q-12 -78 -56.5 -134t-107.5 -84.5t-129 -28.5q-59 0 -109.5 25zM350.5 86q44.5 22 75 63t39.5 96q3 18 3 33q0 65 -41 101.5
t-107 36.5q-50 0 -94.5 -22t-75 -63t-39.5 -96q-3 -18 -3 -33q0 -65 41 -101.5t107 -36.5q50 0 94.5 22z" />
    <glyph glyph-name="uni043F" unicode="&#x43f;" horiz-adv-x="585" 
d="M104 480h438l-76 -480h-80l64 406h-278l-64 -406h-80z" />
    <glyph glyph-name="uni0440" unicode="&#x440;" horiz-adv-x="620" 
d="M104 480h72l-14 -85q84 97 206 97q61 0 108 -27t73 -75t26 -109q0 -14 -4 -46q-11 -70 -50.5 -126.5t-98.5 -88.5t-126 -32q-66 0 -108.5 26.5t-66.5 69.5l-48 -304h-80zM382 83.5q43 21.5 72.5 62t38.5 94.5q3 18 3 34q0 65 -39.5 104.5t-101.5 39.5q-63 0 -116 -34.5
t-84 -86.5l-19 -120q14 -49 54.5 -82t100.5 -33q48 0 91 21.5z" />
    <glyph glyph-name="uni0441" unicode="&#x441;" horiz-adv-x="495" 
d="M143.5 11.5q-51.5 23.5 -82.5 71t-31 115.5q0 26 4 50q13 83 58.5 138t108 80.5t128.5 25.5q83 0 148 -44l-13 -75q-49 45 -129 45t-144 -44t-79 -134q-3 -18 -3 -35q0 -71 46 -107t119 -36q70 0 153 43l-13 -83q-76 -34 -158 -34q-61 0 -112.5 23.5z" />
    <glyph glyph-name="uni0442" unicode="&#x442;" horiz-adv-x="465" 
d="M211 406h-177l12 74h433l-12 -74h-176l-64 -406h-80z" />
    <glyph glyph-name="uni0443" unicode="&#x443;" horiz-adv-x="538" 
d="M-29 -224l11 67q15 -5 37 -5q41 0 76 29.5t70 89.5l26 44l-151 479h80l119 -395l227 395h87l-323 -554q-49 -83 -99.5 -120.5t-104.5 -37.5q-28 0 -55 8z" />
    <glyph glyph-name="uni045E" unicode="&#x45e;" horiz-adv-x="538" 
d="M-29 -224l11 67q15 -5 37 -5q41 0 76 29.5t70 89.5l26 44l-151 479h80l119 -395l227 395h87l-323 -554q-49 -83 -99.5 -120.5t-104.5 -37.5q-28 0 -55 8zM167 596l12 78q33 -24 63 -34t68 -10t73.5 10t75.5 34l-12 -78q-66 -42 -145 -42q-83 0 -135 42z" />
    <glyph glyph-name="uni0444" unicode="&#x444;" horiz-adv-x="720" 
d="M273 -12q-68 2 -123.5 29t-88 76t-32.5 113q0 20 3 39q12 73 57 128.5t113.5 86t150.5 32.5l33 208h78l-33 -208q68 -2 123.5 -29t88 -75.5t32.5 -112.5q0 -19 -3 -40q-11 -73 -56 -128.5t-114 -86t-151 -32.5l-33 -208h-78zM342 422q-92 -3 -155.5 -51t-76.5 -131
q-3 -16 -3 -32q0 -67 47 -107t130 -43zM517.5 109q63.5 48 76.5 131q3 17 3 32q0 67 -47 107t-130 43l-58 -364q92 3 155.5 51z" />
    <glyph glyph-name="uni0445" unicode="&#x445;" horiz-adv-x="488" 
d="M192 247l-139 233h90l101 -178l160 178h94l-217 -235l149 -245h-90l-110 190l-171 -190h-94z" />
    <glyph glyph-name="uni0447" unicode="&#x447;" horiz-adv-x="520" 
d="M347 165q-34 -12 -66.5 -17.5t-75.5 -5.5q-75 0 -120 36t-45 105q0 16 3 34l26 163h80l-26 -163q-2 -18 -2 -25q0 -43 27.5 -59.5t83.5 -16.5q58 0 127 22l38 242h80l-76 -480h-80z" />
    <glyph glyph-name="uni0446" unicode="&#x446;" horiz-adv-x="601" 
d="M444 0h-416l76 480h80l-64 -406h263l64 406h80l-64 -406h71l-32 -204h-78z" />
    <glyph glyph-name="uni0448" unicode="&#x448;" horiz-adv-x="817" 
d="M104 480h80l-64 -406h215l64 406h80l-64 -406h215l64 406h80l-76 -480h-670z" />
    <glyph glyph-name="uni0449" unicode="&#x449;" horiz-adv-x="847" 
d="M690 0h-662l76 480h80l-64 -406h215l64 406h80l-64 -406h215l64 406h80l-64 -406h70l-32 -204h-78z" />
    <glyph glyph-name="uni045F" unicode="&#x45f;" horiz-adv-x="570" 
d="M199 0h-171l76 480h80l-65 -406h263l65 406h80l-76 -480h-174l-20 -130h-78z" />
    <glyph glyph-name="uni044C" unicode="&#x44c;" horiz-adv-x="517" 
d="M104 480h80l-26 -168h156q71 0 112.5 -37.5t41.5 -97.5q0 -8 -2 -26q-11 -68 -65 -109.5t-143 -41.5h-230zM256 72q57 0 90.5 22.5t40.5 66.5q1 5 1 14q0 33 -24.5 49t-67.5 16h-150l-26 -168h136z" />
    <glyph glyph-name="uni044A" unicode="&#x44a;" horiz-adv-x="590" 
d="M166 410h-131l11 70h211l-26 -168h156q71 0 112.5 -37.5t41.5 -97.5q0 -8 -2 -26q-11 -68 -65 -109.5t-143 -41.5h-230zM329 72q57 0 90.5 22.5t40.5 66.5q1 5 1 14q0 33 -24.5 49t-67.5 16h-150l-26 -168h136z" />
    <glyph glyph-name="uni044B" unicode="&#x44b;" horiz-adv-x="734" 
d="M104 480h80l-26 -168h156q71 0 112.5 -37.5t41.5 -97.5q0 -8 -2 -26q-11 -68 -65 -109.5t-143 -41.5h-230zM611 480h80l-76 -480h-80zM256 72q57 0 90.5 22.5t40.5 66.5q1 5 1 14q0 33 -24.5 49t-67.5 16h-150l-26 -168h136z" />
    <glyph glyph-name="uni0459" unicode="&#x459;" horiz-adv-x="869" 
d="M775 259.5q44 -30.5 44 -86.5q0 -79 -56.5 -126t-152.5 -47h-223l64 406h-190q-33 -149 -59 -232.5t-66 -132.5t-100 -49q-39 0 -68 12l10 65q14 -9 45 -9q42 0 71 48.5t50.5 133.5t51.5 238h347l-30 -190h130q88 0 132 -30.5zM737 161q0 32 -24 45t-74 13h-137l-24 -148
h137q122 0 122 90z" />
    <glyph glyph-name="uni045A" unicode="&#x45a;" horiz-adv-x="854" 
d="M760 259.5q44 -30.5 44 -86.5q0 -79 -56.5 -126t-152.5 -47h-223l34 217h-264l-34 -217h-80l76 480h80l-31 -190h264l31 190h80l-30 -190h130q88 0 132 -30.5zM722 161q0 32 -24 45t-74 13h-137l-24 -148h137q122 0 122 90z" />
    <glyph glyph-name="uni0455" unicode="&#x455;" horiz-adv-x="466" 
d="M90.5 1.5q-46.5 13.5 -78.5 36.5l12 78q33 -25 78 -39.5t92 -14.5q123 0 133 64q4 29 -24 45.5t-87 34.5q-53 17 -85 31.5t-55.5 40.5t-23.5 65q0 12 1 18q9 66 69 98.5t136 32.5q47 0 89.5 -11.5t75.5 -30.5l-12 -74q-29 20 -70.5 32t-84.5 12q-49 0 -84 -16.5
t-39 -49.5q-3 -29 24.5 -45.5t87.5 -34.5q52 -17 84.5 -31t55.5 -39t23 -64q0 -6 -2 -22q-11 -68 -71.5 -99t-143.5 -31q-54 0 -100.5 13.5z" />
    <glyph glyph-name="uni0454" unicode="&#x454;" horiz-adv-x="506" 
d="M95.5 48q-63.5 60 -63.5 161q0 81 39 145.5t107.5 101t153.5 36.5q95 0 156 -43l-12 -73q-26 20 -62 31t-79 11q-80 0 -136 -37.5t-74 -103.5h248l-11 -74h-248q-4 -68 37 -104.5t121 -36.5q44 0 86.5 11t79.5 32l-12 -78q-82 -39 -160 -39q-107 0 -170.5 60z" />
    <glyph glyph-name="uni044D" unicode="&#x44d;" horiz-adv-x="504" 
d="M78.5 -1.5q-38.5 10.5 -76.5 32.5l12 75q30 -21 67 -32.5t75 -11.5q85 0 139.5 33t72.5 111l-249 -3l12 74l248 3q3 72 -46.5 105t-120.5 33q-40 0 -81 -11.5t-75 -32.5l12 77q72 41 157 41q59 0 112 -23.5t86.5 -72t33.5 -119.5q0 -26 -4 -49q-13 -82 -55.5 -136
t-102.5 -79t-127 -25q-51 0 -89.5 10.5z" />
    <glyph glyph-name="uni0456" unicode="&#x456;" horiz-adv-x="232" 
d="M131 594q-14 12 -14 34q0 27 17 41.5t41 14.5q21 0 34.5 -12.5t13.5 -33.5l-1 -10q-4 -23 -19.5 -34.5t-36.5 -11.5t-35 12zM106 480h80l-76 -480h-80z" />
    <glyph glyph-name="uni0457" unicode="&#x457;" horiz-adv-x="232" 
d="M20.5 577q-14.5 15 -14.5 36q0 23 18.5 41t41.5 18q21 0 36 -15.5t15 -36.5q0 -24 -18 -41t-42 -17q-22 0 -36.5 15zM222.5 577q-14.5 15 -14.5 36q0 23 18.5 41t41.5 18q21 0 36 -15.5t15 -36.5q0 -24 -18 -41t-42 -17q-22 0 -36.5 15zM106 480h80l-76 -480h-80z" />
    <glyph glyph-name="uni0458" unicode="&#x458;" horiz-adv-x="233" 
d="M132 594q-14 12 -14 34q0 27 17 41.5t41 14.5q21 0 34.5 -12.5t13.5 -33.5l-1 -10q-4 -23 -19.5 -34.5t-36.5 -11.5t-35 12zM-137 -216l11 70q23 -12 52 -12q36 0 61 20t32 64l88 554h80l-91 -572q-12 -74 -56.5 -107t-99.5 -33q-43 0 -77 16z" />
    <glyph glyph-name="uni045B" unicode="&#x45b;" horiz-adv-x="652" 
d="M176 561h-59l9 60h59l13 79h80l-13 -79h178l-9 -60h-178l-24 -147q37 35 84.5 56.5t96.5 21.5q78 0 123.5 -44.5t45.5 -117.5q0 -17 -3 -37l-46 -293h-81l46 289q2 11 2 30q0 50 -29 74.5t-78 24.5q-48 0 -95.5 -29t-80.5 -70l-50 -319h-80z" />
    <glyph glyph-name="uni044E" unicode="&#x44e;" horiz-adv-x="823" 
d="M371 13.5q-51 25.5 -81.5 74t-29.5 115.5h-120l-32 -203h-80l76 480h80l-32 -203h119q18 68 62.5 116.5t103.5 73.5t120 25q59 0 109.5 -24.5t81 -72.5t30.5 -113q0 -26 -4 -47q-12 -78 -56.5 -134t-107.5 -84.5t-129 -28.5q-59 0 -110 25.5zM581.5 86q44.5 22 75 63
t39.5 96q3 18 3 33q0 65 -41 101.5t-107 36.5q-50 0 -94.5 -22t-75 -63t-39.5 -96q-3 -18 -3 -33q0 -65 41 -101.5t107 -36.5q50 0 94.5 22z" />
    <glyph glyph-name="uni044F" unicode="&#x44f;" horiz-adv-x="539" 
d="M496 480l-76 -480h-80l27 168h-134l-159 -168h-91l166 178q-48 14 -71 47t-23 77q0 48 24.5 88.5t72 65t112.5 24.5h232zM405 408h-141q-59 0 -94 -27.5t-35 -74.5q0 -32 26 -49t72 -17h145z" />
    <glyph glyph-name="uni0452" unicode="&#x452;" horiz-adv-x="652" 
d="M284 -216l11 70q23 -12 52 -12q36 0 61 20t32 64l58 363q2 11 2 30q0 50 -29 74.5t-78 24.5q-48 0 -95.5 -29t-80.5 -70l-50 -319h-80l89 561h-59l9 60h59l13 79h80l-13 -79h178l-9 -60h-178l-24 -147q37 35 84.5 56.5t96.5 21.5q78 0 123.5 -44t45.5 -117q0 -18 -3 -38
l-62 -385q-12 -74 -56.5 -107t-99.5 -33q-43 0 -77 16z" />
    <glyph glyph-name="uni0432.loclBGR" horiz-adv-x="580" 
d="M497 456q-28 -35 -87 -60q56 -15 87.5 -59.5t31.5 -105.5q0 -18 -3 -36q-10 -60 -44.5 -107t-89.5 -73.5t-124 -26.5q-97 0 -156.5 53t-59.5 153q0 25 5 60l22 143q25 154 96 234.5t188 80.5q52 0 90.5 -20.5t59.5 -55t21 -75.5q0 -8 -2 -24q-7 -46 -35 -81zM452 555
q0 34 -23 58.5t-69 24.5q-163 0 -201 -241l-2 -13l150 32q74 16 105.5 48t38.5 76q1 5 1 15zM418 312q-30 35 -83 35q-19 0 -36 -4l-153 -33l-8 -56q-5 -33 -5 -55q0 -137 136 -137q79 0 129 44t50 118q0 53 -30 88z" />
    <glyph glyph-name="uni0433.loclBGR" horiz-adv-x="476" 
d="M59 18.5q-51 30.5 -51 93.5q0 14 1 21q7 46 36.5 73t67.5 40t98 25q70 13 106.5 29.5t42.5 53.5q1 3 1 9q0 29 -29 42t-74 13q-46 0 -93.5 -12.5t-88.5 -35.5l12 76q89 46 187 46q71 0 119.5 -30.5t48.5 -90.5q0 -7 -2 -23q-8 -50 -39.5 -78.5t-70.5 -41.5t-102 -25
q-48 -9 -76 -17.5t-46.5 -24.5t-18.5 -44q0 -32 31 -43.5t92 -11.5q46 0 98 14.5t92 40.5l-12 -82q-37 -22 -90 -34.5t-104 -12.5q-85 0 -136 30.5z" />
    <glyph glyph-name="uni0434.loclBGR" horiz-adv-x="621" 
d="M16 -182l12 76q35 -26 79 -39t102 -13q83 0 141 40t71 121l11 68q-35 -36 -84.5 -59.5t-111.5 -23.5q-61 0 -108 27t-73 75t-26 109q0 14 4 46q11 70 50.5 126.5t98.5 88.5t126 32q121 0 181 -99l14 87h74l-76 -483q-18 -116 -98 -172.5t-188 -56.5q-123 0 -199 50z
M364.5 95q53.5 33 83.5 80l21 128q-14 49 -55 82t-101 33q-48 0 -91 -21.5t-72.5 -62t-38.5 -94.5q-3 -18 -3 -34q0 -65 39.5 -104.5t101.5 -39.5t115.5 33z" />
    <glyph glyph-name="uni0436.loclBGR" horiz-adv-x="753" 
d="M193 244l-130 236h84l114 -205h74l67 425h80l-67 -425h73l177 205h91l-210 -242l154 -238h-88l-132 201h-77l-32 -201h-80l32 201h-75l-194 -201h-94z" />
    <glyph glyph-name="uni0438.loclBGR" horiz-adv-x="585" 
d="M95 32.5q-47 44.5 -47 118.5q0 19 3 38l46 291h80l-46 -289q-3 -16 -3 -32q0 -49 28.5 -73t79.5 -24q53 0 98 27.5t77 70.5l51 320h80l-76 -480h-71l12 75q-31 -38 -81 -62.5t-103 -24.5q-81 0 -128 44.5z" />
    <glyph glyph-name="uni0439.loclBGR" horiz-adv-x="585" 
d="M95 32.5q-47 44.5 -47 118.5q0 19 3 38l46 291h80l-46 -289q-3 -16 -3 -32q0 -49 28.5 -73t79.5 -24q53 0 98 27.5t77 70.5l51 320h80l-76 -480h-71l12 75q-31 -38 -81 -62.5t-103 -24.5q-81 0 -128 44.5zM191 596l12 78q33 -24 63 -34t68 -10t73.5 10t75.5 34l-12 -78
q-66 -42 -145 -42q-83 0 -135 42z" />
    <glyph glyph-name="uni045D.loclBGR" horiz-adv-x="585" 
d="M95 32.5q-47 44.5 -47 118.5q0 19 3 38l46 291h80l-46 -289q-3 -16 -3 -32q0 -49 28.5 -73t79.5 -24q53 0 98 27.5t77 70.5l51 320h80l-76 -480h-71l12 75q-31 -38 -81 -62.5t-103 -24.5q-81 0 -128 44.5zM219 697h98l68 -147h-85z" />
    <glyph glyph-name="uni043A.loclBGR" horiz-adv-x="518" 
d="M137 700h80l-66 -422h66l214 202h95l-246 -235l190 -245h-92l-173 208h-65l-33 -208h-80z" />
    <glyph glyph-name="uni043B.loclBGR" horiz-adv-x="535" 
d="M256 480h84l136 -480h-85l-104 390l-227 -390h-92z" />
    <glyph glyph-name="uni043F.loclBGR" horiz-adv-x="587" 
d="M104 480h71l-12 -75q39 39 88.5 63t103.5 24q77 0 122.5 -44.5t45.5 -117.5q0 -17 -3 -37l-47 -293h-80l46 289q2 11 2 30q0 50 -29 74.5t-78 24.5q-48 0 -95.5 -28.5t-80.5 -69.5l-50 -320h-80z" />
    <glyph glyph-name="uni0442.loclBGR" horiz-adv-x="890" 
d="M104 480h71l-11 -67q30 31 76 55t98 24q53 0 89 -21t54 -59q91 80 186 80q77 0 118 -43.5t41 -115.5q0 -19 -3 -40l-47 -293h-80l48 301q2 18 2 26q0 43 -24 67t-68 24q-45 0 -85.5 -24.5t-71.5 -57.5q0 -20 -3 -43l-47 -293h-80l48 301q2 18 2 26q0 43 -24 67t-68 24
q-80 0 -164 -89l-53 -329h-80z" />
    <glyph glyph-name="uni0446.loclBGR" horiz-adv-x="617" 
d="M465 -5q-27 4 -44.5 21.5t-19.5 49.5v2q-32 -35 -80 -57.5t-98 -22.5q-81 0 -128 44.5t-47 118.5q0 19 3 38l46 291h80l-46 -289q-3 -16 -3 -32q0 -49 28.5 -73t79.5 -24q53 0 98 27.5t77 70.5l51 320h80l-61 -383l-1 -9q0 -15 8.5 -20t24.5 -5h37l-31 -193h-74z" />
    <glyph glyph-name="uni0448.loclBGR" horiz-adv-x="889" 
d="M90.5 32q-41.5 44 -41.5 115q0 19 3 40l46 293h80l-48 -301q-2 -18 -2 -26q0 -43 24 -67t68 -24q80 0 158 83q0 21 3 42l46 293h80l-48 -301q-2 -18 -2 -26q0 -43 24 -67t68 -24q49 0 91.5 25t72.5 57l53 336h80l-76 -480h-72l10 65q-28 -29 -73.5 -53t-98.5 -24
q-52 0 -88.5 22.5t-54.5 61.5q-40 -39 -87.5 -61.5t-98.5 -22.5q-75 0 -116.5 44z" />
    <glyph glyph-name="uni0449.loclBGR" horiz-adv-x="921" 
d="M769 -5q-25 4 -42 18.5t-21 40.5l-1 7q-30 -29 -74 -51t-95 -22q-52 0 -88.5 22.5t-54.5 61.5q-40 -39 -87.5 -61.5t-98.5 -22.5q-75 0 -116.5 44t-41.5 115q0 19 3 40l46 293h80l-48 -301q-2 -18 -2 -26q0 -43 24 -67t68 -24q80 0 158 83q0 21 3 42l46 293h80l-48 -301
q-2 -18 -2 -26q0 -43 24 -67t68 -24q49 0 91.5 25t72.5 57l53 336h80l-61 -388q-2 -17 6 -23t25 -6h38l-31 -193h-74z" />
    <glyph glyph-name="uni044E.loclBGR" horiz-adv-x="822" 
d="M370 13.5q-51 25.5 -81.5 74t-29.5 115.5h-120l-32 -203h-80l111 700h80l-67 -423h119q18 68 62.5 116.5t103.5 73.5t120 25q59 0 109.5 -24.5t81 -72.5t30.5 -113q0 -26 -4 -47q-12 -78 -56.5 -134t-107.5 -84.5t-129 -28.5q-59 0 -110 25.5zM580.5 86q44.5 22 75 63
t39.5 96q3 18 3 33q0 65 -41 101.5t-107 36.5q-50 0 -94.5 -22t-75 -63t-39.5 -96q-3 -18 -3 -33q0 -65 41 -101.5t107 -36.5q50 0 94.5 22z" />
    <glyph glyph-name="uni0430.ss01" horiz-adv-x="542" 
d="M89.5 4.5q-36.5 16.5 -58.5 48.5t-22 76q0 90 69.5 128.5t159.5 38.5q79 0 145 -17l4 25q2 16 2 24q0 46 -34 68t-104 22q-39 0 -83 -10.5t-83 -26.5l13 80q32 12 78.5 21.5t86.5 9.5q100 0 152 -39.5t52 -118.5q0 -24 -4 -47l-30 -190q-1 -4 -1 -11q0 -13 7.5 -18
t21.5 -5q21 0 42 7l-10 -66q-27 -10 -58 -10q-30 0 -51.5 13t-28.5 40l-1 4q-76 -63 -186 -63q-42 0 -78.5 16.5zM278 75.5q47 18.5 80 50.5l15 91q-57 12 -127 12q-61 0 -108 -22t-47 -75q0 -35 26 -55t67 -20q47 0 94 18.5z" />
    <glyph glyph-name="uni0437.ss01" horiz-adv-x="460" 
d="M19 -220.5q-45 11.5 -78 35.5l12 76q31 -24 69.5 -37t77.5 -13q80 0 136.5 33t67.5 104q2 10 2 29q0 52 -30 86.5t-83 34.5q-19 0 -36 -4l-70 -15l11 74l81 17q66 16 94.5 47.5t35.5 73.5q1 6 1 17q0 39 -29.5 59.5t-73.5 20.5q-90 0 -169 -52l12 85q45 23 83 32.5
t81 9.5q48 0 88.5 -18.5t65 -53t24.5 -79.5q0 -8 -2 -26q-15 -96 -118 -141q53 -17 84 -63.5t31 -107.5q0 -18 -3 -36q-16 -103 -91 -151.5t-183 -48.5q-46 0 -91 11.5z" />
    <glyph glyph-name="uni0443.ss01" horiz-adv-x="586" 
d="M88 -221q-48 11 -78 29l12 76q62 -42 165 -42q78 0 132.5 37t67.5 124l9 60q-33 -32 -78.5 -53.5t-94.5 -21.5q-83 0 -129 43.5t-46 116.5q0 18 3 39l46 293h80l-46 -289q-3 -21 -3 -37q0 -49 27 -70.5t81 -21.5q50 0 94.5 27.5t80.5 67.5l51 323h80l-76 -483
q-22 -120 -98 -174.5t-175 -54.5q-57 0 -105 11z" />
    <glyph glyph-name="uni0432.ss02" horiz-adv-x="580" 
d="M497 456q-28 -35 -87 -60q56 -15 87.5 -59.5t31.5 -105.5q0 -18 -3 -36q-10 -60 -44.5 -107t-89.5 -73.5t-124 -26.5q-97 0 -156.5 53t-59.5 153q0 25 5 60l22 143q25 154 96 234.5t188 80.5q52 0 90.5 -20.5t59.5 -55t21 -75.5q0 -8 -2 -24q-7 -46 -35 -81zM452 555
q0 34 -23 58.5t-69 24.5q-163 0 -201 -241l-2 -13l150 32q74 16 105.5 48t38.5 76q1 5 1 15zM418 312q-30 35 -83 35q-19 0 -36 -4l-153 -33l-8 -56q-5 -33 -5 -55q0 -137 136 -137q79 0 129 44t50 118q0 53 -30 88z" />
    <glyph glyph-name="uni0433.ss02" horiz-adv-x="476" 
d="M59 18.5q-51 30.5 -51 93.5q0 14 1 21q7 46 36.5 73t67.5 40t98 25q70 13 106.5 29.5t42.5 53.5q1 3 1 9q0 29 -29 42t-74 13q-46 0 -93.5 -12.5t-88.5 -35.5l12 76q89 46 187 46q71 0 119.5 -30.5t48.5 -90.5q0 -7 -2 -23q-8 -50 -39.5 -78.5t-70.5 -41.5t-102 -25
q-48 -9 -76 -17.5t-46.5 -24.5t-18.5 -44q0 -32 31 -43.5t92 -11.5q46 0 98 14.5t92 40.5l-12 -82q-37 -22 -90 -34.5t-104 -12.5q-85 0 -136 30.5z" />
    <glyph glyph-name="uni0434.ss02" horiz-adv-x="621" 
d="M16 -182l12 76q35 -26 79 -39t102 -13q83 0 141 40t71 121l11 68q-35 -36 -84.5 -59.5t-111.5 -23.5q-61 0 -108 27t-73 75t-26 109q0 14 4 46q11 70 50.5 126.5t98.5 88.5t126 32q121 0 181 -99l14 87h74l-76 -483q-18 -116 -98 -172.5t-188 -56.5q-123 0 -199 50z
M364.5 95q53.5 33 83.5 80l21 128q-14 49 -55 82t-101 33q-48 0 -91 -21.5t-72.5 -62t-38.5 -94.5q-3 -18 -3 -34q0 -65 39.5 -104.5t101.5 -39.5t115.5 33z" />
    <glyph glyph-name="uni0436.ss02" horiz-adv-x="753" 
d="M193 244l-130 236h84l114 -205h74l67 425h80l-67 -425h73l177 205h91l-210 -242l154 -238h-88l-132 201h-77l-32 -201h-80l32 201h-75l-194 -201h-94z" />
    <glyph glyph-name="uni0438.ss02" horiz-adv-x="585" 
d="M95 32.5q-47 44.5 -47 118.5q0 19 3 38l46 291h80l-46 -289q-3 -16 -3 -32q0 -49 28.5 -73t79.5 -24q53 0 98 27.5t77 70.5l51 320h80l-76 -480h-71l12 75q-31 -38 -81 -62.5t-103 -24.5q-81 0 -128 44.5z" />
    <glyph glyph-name="uni0439.ss02" horiz-adv-x="585" 
d="M95 32.5q-47 44.5 -47 118.5q0 19 3 38l46 291h80l-46 -289q-3 -16 -3 -32q0 -49 28.5 -73t79.5 -24q53 0 98 27.5t77 70.5l51 320h80l-76 -480h-71l12 75q-31 -38 -81 -62.5t-103 -24.5q-81 0 -128 44.5zM191 596l12 78q33 -24 63 -34t68 -10t73.5 10t75.5 34l-12 -78
q-66 -42 -145 -42q-83 0 -135 42z" />
    <glyph glyph-name="uni045D.ss02" horiz-adv-x="585" 
d="M95 32.5q-47 44.5 -47 118.5q0 19 3 38l46 291h80l-46 -289q-3 -16 -3 -32q0 -49 28.5 -73t79.5 -24q53 0 98 27.5t77 70.5l51 320h80l-76 -480h-71l12 75q-31 -38 -81 -62.5t-103 -24.5q-81 0 -128 44.5zM219 697h98l68 -147h-85z" />
    <glyph glyph-name="uni043A.ss02" horiz-adv-x="518" 
d="M137 700h80l-66 -422h66l214 202h95l-246 -235l190 -245h-92l-173 208h-65l-33 -208h-80z" />
    <glyph glyph-name="uni043B.ss02" horiz-adv-x="535" 
d="M256 480h84l136 -480h-85l-104 390l-227 -390h-92z" />
    <glyph glyph-name="uni043F.ss02" horiz-adv-x="587" 
d="M104 480h71l-12 -75q39 39 88.5 63t103.5 24q77 0 122.5 -44.5t45.5 -117.5q0 -17 -3 -37l-47 -293h-80l46 289q2 11 2 30q0 50 -29 74.5t-78 24.5q-48 0 -95.5 -28.5t-80.5 -69.5l-50 -320h-80z" />
    <glyph glyph-name="uni0442.ss02" horiz-adv-x="890" 
d="M104 480h71l-11 -67q30 31 76 55t98 24q53 0 89 -21t54 -59q91 80 186 80q77 0 118 -43.5t41 -115.5q0 -19 -3 -40l-47 -293h-80l48 301q2 18 2 26q0 43 -24 67t-68 24q-45 0 -85.5 -24.5t-71.5 -57.5q0 -20 -3 -43l-47 -293h-80l48 301q2 18 2 26q0 43 -24 67t-68 24
q-80 0 -164 -89l-53 -329h-80z" />
    <glyph glyph-name="uni0446.ss02" horiz-adv-x="617" 
d="M465 -5q-27 4 -44.5 21.5t-19.5 49.5v2q-32 -35 -80 -57.5t-98 -22.5q-81 0 -128 44.5t-47 118.5q0 19 3 38l46 291h80l-46 -289q-3 -16 -3 -32q0 -49 28.5 -73t79.5 -24q53 0 98 27.5t77 70.5l51 320h80l-61 -383l-1 -9q0 -15 8.5 -20t24.5 -5h37l-31 -193h-74z" />
    <glyph glyph-name="uni0448.ss02" horiz-adv-x="889" 
d="M90.5 32q-41.5 44 -41.5 115q0 19 3 40l46 293h80l-48 -301q-2 -18 -2 -26q0 -43 24 -67t68 -24q80 0 158 83q0 21 3 42l46 293h80l-48 -301q-2 -18 -2 -26q0 -43 24 -67t68 -24q49 0 91.5 25t72.5 57l53 336h80l-76 -480h-72l10 65q-28 -29 -73.5 -53t-98.5 -24
q-52 0 -88.5 22.5t-54.5 61.5q-40 -39 -87.5 -61.5t-98.5 -22.5q-75 0 -116.5 44z" />
    <glyph glyph-name="uni0449.ss02" horiz-adv-x="921" 
d="M769 -5q-25 4 -42 18.5t-21 40.5l-1 7q-30 -29 -74 -51t-95 -22q-52 0 -88.5 22.5t-54.5 61.5q-40 -39 -87.5 -61.5t-98.5 -22.5q-75 0 -116.5 44t-41.5 115q0 19 3 40l46 293h80l-48 -301q-2 -18 -2 -26q0 -43 24 -67t68 -24q80 0 158 83q0 21 3 42l46 293h80l-48 -301
q-2 -18 -2 -26q0 -43 24 -67t68 -24q49 0 91.5 25t72.5 57l53 336h80l-61 -388q-2 -17 6 -23t25 -6h38l-31 -193h-74z" />
    <glyph glyph-name="uni044E.ss02" horiz-adv-x="822" 
d="M370 13.5q-51 25.5 -81.5 74t-29.5 115.5h-120l-32 -203h-80l111 700h80l-67 -423h119q18 68 62.5 116.5t103.5 73.5t120 25q59 0 109.5 -24.5t81 -72.5t30.5 -113q0 -26 -4 -47q-12 -78 -56.5 -134t-107.5 -84.5t-129 -28.5q-59 0 -110 25.5zM580.5 86q44.5 22 75 63
t39.5 96q3 18 3 33q0 65 -41 101.5t-107 36.5q-50 0 -94.5 -22t-75 -63t-39.5 -96q-3 -18 -3 -33q0 -65 41 -101.5t107 -36.5q50 0 94.5 22z" />
    <glyph glyph-name="zero" unicode="0" horiz-adv-x="701" 
d="M117 63q-65 75 -65 199q0 42 7 83q24 157 114 252t237 95q124 0 189.5 -75t65.5 -199q0 -42 -7 -83q-24 -157 -114 -252t-238 -95q-124 0 -189 75zM488 138q66 70 87 202q7 49 7 79q0 93 -44 143t-133 50q-111 0 -176.5 -70t-86.5 -202q-7 -49 -7 -80q0 -92 43.5 -142
t132.5 -50q111 0 177 70z" />
    <glyph glyph-name="one" unicode="1" horiz-adv-x="428" 
d="M20 80h144l81 511l-152 -54l13 80l175 63h62l-95 -600h127l-13 -80h-355z" />
    <glyph glyph-name="two" unicode="2" horiz-adv-x="575" 
d="M7 43q12 78 50 130.5t88.5 86.5t132.5 74q59 29 96 51.5t64 54.5t34 74q1 5 1 16q0 41 -35.5 62.5t-101.5 21.5q-108 0 -229 -76l14 89q105 65 227 65q92 0 150 -42t58 -115q0 -20 -2 -30q-9 -54 -38.5 -95.5t-74.5 -73.5t-113 -68q-20 -10 -29 -16q-61 -31 -97.5 -53.5
t-63.5 -52.5t-34 -66h388l-13 -80h-479z" />
    <glyph glyph-name="three" unicode="3" horiz-adv-x="587" 
d="M117.5 -0.5q-55.5 11.5 -103.5 34.5l12 78q45 -24 97.5 -35t119.5 -11q78 0 133 31.5t66 96.5q2 16 2 23q0 94 -148 94h-106l13 78h93q52 0 90.5 17.5t58.5 48.5t20 68q0 43 -36.5 67t-105.5 24q-54 0 -106.5 -13t-111.5 -39l13 83q100 47 221 47q60 0 107 -20.5
t73.5 -58t26.5 -85.5q0 -59 -35 -107t-90 -66q42 -13 72.5 -48.5t30.5 -93.5q0 -15 -3 -33q-10 -62 -50.5 -105.5t-99.5 -65t-126 -21.5q-72 0 -127.5 11.5z" />
    <glyph glyph-name="four" unicode="4" horiz-adv-x="645" 
d="M383 151h-379l11 74l443 455h93l-72 -451h127l-12 -78h-127l-24 -151h-84zM395 229l54 337l-329 -337h275z" />
    <glyph glyph-name="five" unicode="5" horiz-adv-x="579" 
d="M110.5 0.5q-55.5 12.5 -96.5 34.5l12 76q36 -21 88.5 -33t106.5 -12q94 0 155.5 43.5t61.5 123.5q0 61 -49 87.5t-129 26.5q-87 0 -183 -33l78 366h407l-12 -80h-329l-44 -191q52 14 116 14q59 0 111.5 -19.5t85.5 -61.5t33 -106q0 -19 -3 -40q-11 -66 -53 -113
t-105.5 -71t-135.5 -24q-60 0 -115.5 12.5z" />
    <glyph glyph-name="six" unicode="6" horiz-adv-x="620" 
d="M465.5 403q47.5 -21 77 -62.5t29.5 -98.5q0 -18 -3 -36q-11 -69 -51 -118.5t-98.5 -74.5t-125.5 -25q-119 0 -181.5 67.5t-62.5 189.5q0 39 8 89q19 120 71 200.5t127 119t164 38.5q41 0 83.5 -10.5t76.5 -29.5l-12 -76q-63 36 -151 36q-94 0 -166.5 -60t-102.5 -190
q56 33 108 47.5t110 14.5q52 0 99.5 -21zM487 239q0 58 -40 82.5t-106 24.5q-52 0 -105 -18.5t-99 -53.5l-1 -29q0 -94 36.5 -136.5t120.5 -42.5q75 0 127.5 35.5t64.5 110.5q2 20 2 27z" />
    <glyph glyph-name="seven" unicode="7" horiz-adv-x="539" 
d="M471 600h-398l13 80h491l-12 -76l-380 -604h-92z" />
    <glyph glyph-name="eight" unicode="8" horiz-adv-x="646" 
d="M149 12q-58 24 -87.5 65t-29.5 91q0 54 36.5 109.5t109.5 95.5q-70 47 -70 120q0 18 2 28q7 44 38.5 83t88.5 63.5t137 24.5q69 0 122 -25.5t81.5 -67t28.5 -88.5q0 -106 -119 -181q41 -21 66.5 -57t25.5 -84q0 -54 -31.5 -100t-96.5 -73.5t-161 -27.5q-83 0 -141 24z
M521 491q1 5 1 15q0 46 -40 77t-112 31q-74 0 -121.5 -27.5t-54.5 -70.5q-1 -6 -1 -17q0 -33 20.5 -55t47.5 -33.5t77 -27.5q34 -8 80 -22q90 55 103 130zM432 95q54 29 61 77q1 6 1 17q0 34 -20.5 55t-49 32.5t-86.5 30.5q-44 11 -92 29q-63 -29 -96.5 -71t-33.5 -88
q0 -52 48.5 -81.5t135.5 -29.5q78 0 132 29z" />
    <glyph glyph-name="nine" unicode="9" horiz-adv-x="619" 
d="M522.5 624.5q62.5 -67.5 62.5 -189.5q0 -39 -8 -89q-19 -120 -71 -200.5t-127 -119t-164 -38.5q-88 0 -160 40l12 77q31 -19 70.5 -28t80.5 -9q94 0 166.5 60t102.5 190q-56 -33 -108 -47.5t-110 -14.5q-52 0 -99.5 21t-77 62.5t-29.5 98.5q0 18 3 36q11 69 51 118.5
t98.5 74.5t125.5 25q119 0 181.5 -67.5zM148 442q0 -58 40.5 -83t105.5 -25q52 0 105 18.5t99 53.5l1 29q0 94 -36.5 136.5t-120.5 42.5q-75 0 -127.5 -35.5t-64.5 -109.5q-2 -20 -2 -27z" />
    <glyph glyph-name="zero.osf" horiz-adv-x="649" 
d="M148 21q-56 33 -83.5 87t-27.5 116q0 22 3 43q11 67 53 128t109.5 99t151.5 38q80 0 136 -33t84 -87.5t28 -116.5q0 -21 -3 -42q-11 -67 -51.5 -128t-108 -99t-155.5 -38q-80 0 -136 33zM397 94q49 26 79.5 70t38.5 96q3 18 3 35q0 67 -42.5 112t-121.5 45
q-63 0 -112 -26t-79.5 -70t-38.5 -96q-3 -18 -3 -35q0 -67 42.5 -112t121.5 -45q63 0 112 26z" />
    <glyph glyph-name="one.osf" horiz-adv-x="431" 
d="M22 80h143l55 351l-151 -54l13 80l174 63h62l-69 -440h127l-13 -80h-354z" />
    <glyph glyph-name="two.osf" horiz-adv-x="531" 
d="M7 53q8 53 39 87.5t70.5 55t103.5 44.5l27 11q54 21 81 33.5t50.5 34t28.5 51.5q1 4 1 13q0 33 -31 52t-83 19q-50 0 -101 -15.5t-108 -46.5l13 86q54 28 104.5 41t102.5 13q83 0 134.5 -39.5t51.5 -106.5q0 -58 -33 -97t-74 -60.5t-114 -51.5l-26 -11q-69 -28 -104 -47
t-38 -39h348l-13 -80h-439z" />
    <glyph glyph-name="three.osf" horiz-adv-x="541" 
d="M72 -160.5q-51 11.5 -95 34.5l13 80q42 -25 88.5 -36t109.5 -11q69 0 124.5 32t65.5 95q2 16 2 23q0 50 -36 72t-92 22h-96l13 80l83 -1q57 -1 98 32t49 83q2 12 2 18q0 43 -34 67t-93 24q-101 0 -201 -53l14 84q97 47 202 47q86 0 139 -44t53 -116q0 -60 -35 -109.5
t-89 -67.5q42 -13 72 -48.5t30 -92.5q0 -16 -3 -34q-10 -62 -50.5 -105.5t-97.5 -65t-117 -21.5q-68 0 -119 11.5z" />
    <glyph glyph-name="four.osf" horiz-adv-x="594" 
d="M323 -9h-349l11 75l412 454h92l-71 -451h118l-12 -78h-118l-24 -151h-83zM335 69l54 334l-303 -334h249z" />
    <glyph glyph-name="five.osf" horiz-adv-x="535" 
d="M-19 -125l12 78q80 -47 174 -47q90 0 150.5 45t60.5 125q0 61 -44.5 86t-113.5 25q-38 0 -84 -9t-89 -24l77 366h378l-12 -80h-301l-40 -191q49 14 104 14q50 0 98 -19.5t79.5 -61t31.5 -103.5q0 -18 -3 -39q-10 -66 -51 -114t-103 -73t-132 -25q-103 0 -192 47z" />
    <glyph glyph-name="six.osf" horiz-adv-x="593" 
d="M242 547q-61 -65 -91 -179q92 56 192 56q50 0 95.5 -21t74 -62t28.5 -98q0 -17 -3 -37q-11 -69 -49.5 -118.5t-94 -74.5t-117.5 -25q-112 0 -170 66t-58 186q0 41 8 94q19 119 72 199.5t126.5 119.5t153.5 39q83 0 152 -40l-12 -77q-34 20 -68.5 28.5t-74.5 8.5
q-103 0 -164 -65zM456 239q0 57 -38.5 82t-97.5 25q-46 0 -94.5 -19t-94.5 -57q-2 -14 -2 -39q0 -81 39.5 -123t103.5 -42q68 0 119 36t63 110q2 20 2 27z" />
    <glyph glyph-name="seven.osf" horiz-adv-x="494" 
d="M408 440h-367l12 80h460l-11 -76l-369 -604h-92z" />
    <glyph glyph-name="eight.osf" horiz-adv-x="616" 
d="M141 11q-54 23 -82 63t-28 90q0 18 2 28q7 49 43.5 97.5t100.5 83.5q-70 46 -70 122q0 8 2 26q7 44 38 83t86.5 63.5t129.5 24.5q64 0 112.5 -23.5t75 -63t26.5 -85.5q0 -52 -30.5 -102t-90.5 -88q94 -49 94 -135q0 -53 -30.5 -100.5t-94 -77t-156.5 -29.5q-74 0 -128 23
zM465 431q28 40 28 80q0 45 -36.5 74t-98.5 29q-65 0 -112.5 -29.5t-54.5 -72.5q-1 -6 -1 -18q0 -37 30 -61.5t101 -51.5l29 -8q24 -8 37 -11q50 29 78 69zM403 96.5q55 30.5 62 77.5q2 16 2 21q0 27 -14.5 44.5t-42 31t-93.5 39.5q-21 6 -72 26q-62 -29 -96.5 -75
t-34.5 -90q0 -51 42.5 -78t117.5 -27q74 0 129 30.5z" />
    <glyph glyph-name="nine.osf" horiz-adv-x="580" 
d="M468.5 465q58.5 -67 58.5 -187q0 -41 -8 -92q-19 -119 -72 -199.5t-125.5 -119.5t-152.5 -39q-82 0 -154 40l11 78q65 -38 144 -38q51 0 102 25t93 80t63 140q-92 -57 -196 -57q-50 0 -95.5 21.5t-73.5 63.5t-28 99q0 19 3 38q11 69 49 117t93.5 72.5t117.5 24.5
q112 0 170.5 -67zM120 283q0 -57 39 -83t97 -26q97 0 186 73q1 10 1 30q0 82 -34.5 129.5t-106.5 47.5q-69 0 -118.5 -34t-61.5 -108q-2 -10 -2 -29z" />
    <glyph glyph-name="zero.sinf" horiz-adv-x="433" 
d="M40 -63q-39 45 -39 120q0 28 4 52q15 91 71.5 149t140.5 58q79 0 118 -45t39 -120q0 -28 -4 -52q-15 -91 -71.5 -149t-140.5 -58q-79 0 -118 45zM301 104q4 23 4 47q0 99 -90 99q-118 0 -141 -146q-4 -23 -4 -47q0 -99 90 -99q118 0 141 146z" />
    <glyph glyph-name="one.sinf" horiz-adv-x="276" 
d="M-17 -34h86l43 270l-88 -33l11 67l105 38h52l-54 -342h69l-10 -66h-224z" />
    <glyph glyph-name="two.sinf" horiz-adv-x="361" 
d="M-25 -65q7 46 30 77.5t52.5 51t76.5 42.5q48 23 75 47t32 51l1 8q0 20 -18 29.5t-46 9.5q-39 0 -73.5 -11.5t-71.5 -35.5l11 73q31 19 66.5 29t70.5 10q53 0 92 -27.5t39 -73.5q0 -5 -2 -19q-15 -81 -133 -141q-57 -29 -83.5 -47.5t-31.5 -41.5h214l-11 -66h-295z" />
    <glyph glyph-name="three.sinf" horiz-adv-x="362" 
d="M-25 -79l11 68q53 -31 125 -31q110 0 110 77q0 24 -19.5 33t-55.5 9h-67l10 66h56q37 0 60 15.5t28 43.5q4 25 -17 36.5t-57 11.5q-65 0 -130 -34l11 71q60 29 130 29q54 0 92 -29t38 -73q0 -35 -19.5 -62t-52.5 -39q24 -9 41.5 -30t17.5 -54q0 -67 -50 -102t-122 -35
q-79 0 -140 29z" />
    <glyph glyph-name="four.sinf" horiz-adv-x="400" 
d="M192 -16h-220l10 64l254 260h75l-41 -259h70l-10 -65h-70l-13 -84h-68zM202 49l26 164l-160 -164h134z" />
    <glyph glyph-name="five.sinf" horiz-adv-x="360" 
d="M-23 -79l10 64q47 -27 112 -27q54 0 87.5 22t33.5 67q0 33 -26.5 44.5t-71.5 11.5q-48 0 -107 -21l47 226h252l-11 -66h-186l-20 -82q21 5 52 5q56 0 99 -29t43 -89q0 -49 -25.5 -84.5t-68 -53t-91.5 -17.5q-74 0 -129 29z" />
    <glyph glyph-name="six.sinf" horiz-adv-x="389" 
d="M285.5 128.5q38.5 -30.5 38.5 -82.5q0 -6 -2 -22q-10 -63 -58 -97.5t-111 -34.5q-74 0 -113.5 42.5t-39.5 118.5q0 21 5 53q11 69 43.5 116t78.5 70.5t96 23.5q54 0 104 -25l-10 -64q-35 23 -94 23q-45 0 -84.5 -29t-58.5 -91q31 17 56.5 23t59.5 6q51 0 89.5 -30.5z
M253 40q0 55 -77 55q-60 0 -106 -32q-3 -52 15.5 -79t64.5 -27q43 0 69.5 14.5t32.5 54.5q1 5 1 14z" />
    <glyph glyph-name="seven.sinf" horiz-adv-x="328" 
d="M225 242h-216l11 66h292l-10 -64l-210 -344h-76z" />
    <glyph glyph-name="eight.sinf" horiz-adv-x="401" 
d="M28.5 -76.5q-40.5 31.5 -40.5 78.5q0 27 18 60t61 60q-35 28 -35 73q0 10 1 16q7 42 50 73.5t115 31.5q66 0 104.5 -32t38.5 -79q0 -24 -15.5 -53.5t-47.5 -52.5q20 -13 33.5 -33t13.5 -46q0 -53 -44.5 -90.5t-136.5 -37.5q-75 0 -115.5 31.5zM258.5 163.5
q11.5 19.5 11.5 35.5q0 24 -19 38t-56 14q-42 0 -68 -15.5t-26 -40.5q0 -21 15 -31.5t34 -17.5t26 -10q38 -8 45 -10q26 18 37.5 37.5zM220.5 -29.5q29.5 13.5 33.5 38.5q1 3 1 9q0 20 -15 30t-35 17t-28 10q-31 7 -53 16q-29 -15 -46 -34.5t-19 -37.5q-1 -4 -1 -11
q0 -27 23 -39t67 -12q43 0 72.5 13.5z" />
    <glyph glyph-name="nine.sinf" horiz-adv-x="389" 
d="M292.5 274.5q38.5 -41.5 38.5 -115.5q0 -24 -5 -57q-11 -69 -44 -116t-78.5 -70.5t-96.5 -23.5q-56 0 -104 25l10 65q39 -24 95 -24q54 0 88.5 31.5t51.5 87.5q-29 -17 -54.5 -22.5t-58.5 -5.5q-51 0 -89.5 30.5t-38.5 82.5q0 6 2 22q10 63 57.5 97.5t111.5 34.5
q76 0 114.5 -41.5zM77 168q0 -55 78 -55q63 0 107 33l1 17q0 88 -82 88q-92 0 -103 -69q-1 -5 -1 -14z" />
    <glyph glyph-name="zero.tf" 
d="M101 63q-60 75 -60 198q0 43 7 84q16 101 59 179.5t111.5 123t155.5 44.5q109 0 169.5 -75t60.5 -198q0 -43 -7 -84q-16 -101 -59.5 -179.5t-111.5 -123t-156 -44.5q-109 0 -169 75zM431.5 139.5q62.5 71.5 82.5 200.5q7 41 7 82q0 91 -38.5 140.5t-113.5 49.5
q-93 0 -155.5 -71.5t-82.5 -200.5q-7 -41 -7 -82q0 -91 38.5 -140.5t112.5 -49.5q94 0 156.5 71.5z" />
    <glyph glyph-name="one.tf" 
d="M38 80h224l81 511l-203 -71l13 80l226 80h62l-95 -600h207l-13 -80h-515z" />
    <glyph glyph-name="two.tf" 
d="M24 43q11 71 45 119.5t79 79t125 72.5l34 18l27 14q59 31 93 53t58 52.5t24 69.5q0 43 -37.5 68t-108.5 25q-108 0 -229 -76l4 89q119 65 237 65q64 0 113 -20.5t76 -58.5t27 -88q0 -20 -2 -30q-8 -52 -38.5 -90.5t-74.5 -67t-121 -69.5l-33 -17q-62 -33 -98 -55t-64 -51
t-35 -65h404l-13 -80h-499z" />
    <glyph glyph-name="three.tf" 
d="M130 -0.5q-57 11.5 -105 34.5l12 78q44 -24 95.5 -35t121.5 -11q95 0 158 36t63 114q0 52 -41 73.5t-117 21.5h-116l13 78h103q86 0 132.5 38t46.5 96q0 44 -38.5 67.5t-113.5 23.5q-61 0 -115 -12.5t-113 -39.5l13 83q100 47 231 47q64 0 113.5 -20.5t76.5 -57.5t27 -86
q0 -59 -35 -107t-90 -66q42 -13 72.5 -48.5t30.5 -93.5q0 -15 -3 -33q-10 -62 -52 -105.5t-103.5 -65t-130.5 -21.5q-79 0 -136 11.5z" />
    <glyph glyph-name="four.tf" 
d="M380 151h-379l11 74l443 455h93l-72 -451h117l-12 -78h-117l-24 -151h-84zM392 229l54 337l-329 -337h275z" />
    <glyph glyph-name="five.tf" 
d="M127 0.5q-57 12.5 -98 34.5l12 76q37 -22 90.5 -33.5t114.5 -11.5q101 0 164 42.5t63 124.5q0 114 -188 114q-97 0 -193 -33l78 366h427l-12 -80h-349l-44 -191q52 14 126 14q63 0 117.5 -19.5t88.5 -61.5t34 -106q0 -19 -3 -40q-11 -66 -53.5 -113t-108 -71t-142.5 -24
q-67 0 -124 12.5z" />
    <glyph glyph-name="six.tf" 
d="M470.5 403q47.5 -21 77 -62.5t29.5 -98.5q0 -18 -3 -36q-11 -69 -51 -118.5t-98.5 -74.5t-125.5 -25q-119 0 -181 68t-62 190q0 45 7 88q19 120 71 200.5t127 119t164 38.5q41 0 83.5 -10.5t76.5 -29.5l-12 -76q-63 36 -151 36q-97 0 -173 -60.5t-98 -190.5
q56 34 109 48.5t111 14.5q52 0 99.5 -21zM492 239q0 58 -40 82.5t-106 24.5q-52 0 -105 -18.5t-99 -53.5l-1 -29q0 -94 36.5 -136.5t120.5 -42.5q75 0 128 36t64 110q2 20 2 27z" />
    <glyph glyph-name="seven.tf" 
d="M536 600h-438l13 80h531l-12 -76l-380 -604h-92z" />
    <glyph glyph-name="eight.tf" 
d="M141.5 11.5q-58.5 23.5 -88.5 63.5t-30 90q0 54 36.5 111.5t109.5 96.5q-70 47 -70 120q0 49 28.5 94.5t89.5 75t152 29.5q70 0 122 -25t79 -66.5t27 -88.5q0 -107 -119 -182q41 -21 66.5 -57t25.5 -84q0 -55 -30 -100.5t-95 -73t-164 -27.5q-81 0 -139.5 23.5z
M486.5 429.5q26.5 37.5 26.5 78.5q0 46 -37.5 76t-110.5 30q-77 0 -125 -27.5t-55 -70.5q-1 -6 -1 -17q0 -33 20.5 -55t47.5 -33.5t77 -27.5q34 -8 80 -22q51 31 77.5 68.5zM431.5 100q53.5 34 53.5 89q0 34 -20.5 55t-49 32.5t-86.5 30.5q-44 11 -92 29q-62 -29 -96 -71.5
t-34 -87.5q0 -53 48 -82t136 -29q87 0 140.5 34z" />
    <glyph glyph-name="nine.tf" 
d="M528.5 624.5q62.5 -67.5 62.5 -189.5q0 -39 -8 -89q-19 -120 -71 -200.5t-127 -119t-164 -38.5q-88 0 -160 40l12 77q31 -19 70.5 -28t80.5 -9q94 0 166.5 60t102.5 190q-56 -33 -108 -47.5t-110 -14.5q-52 0 -99.5 21t-77 62.5t-29.5 98.5q0 18 3 36q11 69 51 118.5
t98.5 74.5t125.5 25q119 0 181.5 -67.5zM154 442q0 -58 40.5 -83t105.5 -25q52 0 105 18.5t99 53.5l1 29q0 94 -36.5 136.5t-120.5 42.5q-75 0 -127.5 -35.5t-64.5 -109.5q-2 -20 -2 -27z" />
    <glyph glyph-name="zero.tosf" 
d="M142 21.5q-56 33.5 -85 87.5t-29 116q0 21 3 40q11 68 51.5 129t108 99.5t154.5 38.5q79 0 135 -33.5t84.5 -87.5t28.5 -116q0 -20 -3 -40q-11 -68 -51 -129t-107.5 -99.5t-154.5 -38.5q-79 0 -135 33.5zM389.5 94.5q48.5 26.5 78.5 70.5t38 96q3 17 3 34q0 67 -43.5 112
t-122.5 45q-63 0 -111.5 -26.5t-78.5 -70.5t-38 -96q-3 -18 -3 -34q0 -68 42.5 -112.5t123.5 -44.5q63 0 111.5 26.5z" />
    <glyph glyph-name="one.tosf" 
d="M37 80h224l55 351l-202 -71l13 80l225 80h62l-69 -440h207l-13 -80h-515z" />
    <glyph glyph-name="two.tosf" 
d="M32 53q10 60 47.5 97t83 55.5t114.5 37.5q7 2 13.5 4t11.5 3q87 25 128 51t48 69q1 4 1 12q0 35 -35 53.5t-95 18.5q-117 0 -240 -74l14 86q117 66 237 66q91 0 146.5 -39.5t55.5 -107.5q0 -8 -2 -26q-11 -69 -70.5 -109.5t-163.5 -69.5q-85 -24 -138.5 -47.5
t-58.5 -52.5h396l-13 -80h-489z" />
    <glyph glyph-name="three.tosf" 
d="M107.5 -160.5q-55.5 11.5 -103.5 34.5l12 78q45 -24 97.5 -35t119.5 -11q85 0 141.5 31.5t67.5 96.5q2 16 2 22q0 52 -41 73.5t-117 21.5h-106l13 78h93q85 -1 132 37.5t47 96.5q0 44 -38.5 67.5t-113.5 23.5q-54 0 -106.5 -13t-111.5 -39l13 83q100 47 221 47
q64 0 113.5 -20.5t76.5 -57.5t27 -86q0 -59 -35 -107t-90 -66q42 -13 72.5 -48.5t30.5 -93.5q0 -15 -3 -33q-15 -93 -95 -142.5t-191 -49.5q-72 0 -127.5 11.5z" />
    <glyph glyph-name="four.tosf" 
d="M350 -19h-379l11 74l443 455h93l-72 -451h127l-12 -78h-127l-24 -151h-84zM362 59l54 337l-329 -337h275z" />
    <glyph glyph-name="five.tosf" 
d="M106.5 -159.5q-55.5 12.5 -96.5 34.5l12 76q36 -21 88.5 -33t106.5 -12q101 0 164 42.5t63 124.5q0 114 -188 114q-87 0 -183 -33l78 366h417l-12 -80h-339l-44 -191q52 14 116 14q63 0 117.5 -19.5t88.5 -61.5t34 -106q0 -19 -3 -40q-11 -66 -53.5 -113t-108 -71
t-142.5 -24q-60 0 -115.5 12.5z" />
    <glyph glyph-name="six.tosf" 
d="M469.5 403q47.5 -21 77 -62.5t29.5 -98.5q0 -18 -3 -36q-11 -69 -51 -118.5t-98.5 -74.5t-125.5 -25q-119 0 -181.5 67.5t-62.5 189.5q0 39 8 89q19 120 71 200.5t127 119t164 38.5q41 0 83.5 -10.5t76.5 -29.5l-12 -76q-63 36 -151 36q-94 0 -166.5 -60t-102.5 -190
q56 33 108 47.5t110 14.5q52 0 99.5 -21zM491 239q0 58 -40 82.5t-106 24.5q-52 0 -105 -18.5t-99 -53.5l-1 -29q0 -94 36.5 -136.5t120.5 -42.5q75 0 127.5 35.5t64.5 110.5q2 20 2 27z" />
    <glyph glyph-name="seven.tosf" 
d="M506 440h-428l13 80h521l-12 -76l-380 -604h-92z" />
    <glyph glyph-name="eight.tosf" 
d="M141 12q-58 24 -87.5 65t-29.5 91q0 18 2 28q7 48 43.5 95t100.5 82q-70 47 -70 120q0 49 27.5 94.5t87.5 75t151 29.5q71 0 123.5 -25t80.5 -66.5t28 -88.5q0 -107 -119 -182q41 -21 66.5 -57t25.5 -84q0 -55 -31 -100.5t-96 -73t-162 -27.5q-83 0 -141 24zM513 491
q1 5 1 16q0 46 -39 76.5t-113 30.5q-84 0 -130.5 -32.5t-46.5 -82.5q0 -33 20.5 -55t47.5 -33.5t77 -27.5q34 -8 80 -22q90 55 103 130zM432.5 100q53.5 34 53.5 89q0 34 -20.5 55t-49 32.5t-86.5 30.5q-44 11 -92 29q-62 -29 -96 -71.5t-34 -87.5q0 -53 48 -82t136 -29
q87 0 140.5 34z" />
    <glyph glyph-name="nine.tosf" 
d="M502.5 464.5q62.5 -67.5 62.5 -189.5q0 -39 -8 -89q-19 -120 -71 -200.5t-127 -119t-164 -38.5q-88 0 -160 40l12 77q31 -19 70.5 -28t80.5 -9q94 0 166.5 60t102.5 190q-56 -33 -108 -47.5t-110 -14.5q-52 0 -99.5 21t-77 62.5t-29.5 98.5q0 18 3 36q11 69 51 118.5
t98.5 74.5t125.5 25q119 0 181.5 -67.5zM128 282q0 -58 40.5 -83t105.5 -25q52 0 105 18.5t99 53.5l1 29q0 94 -36.5 136.5t-120.5 42.5q-75 0 -127.5 -35.5t-64.5 -109.5q-2 -20 -2 -27z" />
    <glyph glyph-name="zero.dnom" horiz-adv-x="433" 
d="M56 37q-39 45 -39 120q0 28 4 52q15 91 71.5 149t140.5 58q79 0 118 -45t39 -120q0 -28 -4 -52q-15 -91 -71.5 -149t-140.5 -58q-79 0 -118 45zM317 204q4 23 4 47q0 99 -90 99q-118 0 -141 -146q-4 -23 -4 -47q0 -99 90 -99q118 0 141 146z" />
    <glyph glyph-name="one.dnom" horiz-adv-x="276" 
d="M-1 66h86l43 270l-88 -33l11 67l105 38h52l-54 -342h69l-10 -66h-224z" />
    <glyph glyph-name="two.dnom" horiz-adv-x="361" 
d="M-9 35q7 46 30 77.5t52.5 51t76.5 42.5q48 23 75 47t32 51l1 8q0 20 -18 29.5t-46 9.5q-39 0 -73.5 -11.5t-71.5 -35.5l11 73q31 19 66.5 29t70.5 10q53 0 92 -27.5t39 -73.5q0 -5 -2 -19q-15 -81 -133 -141q-57 -29 -83.5 -47.5t-31.5 -41.5h214l-11 -66h-295z" />
    <glyph glyph-name="three.dnom" horiz-adv-x="362" 
d="M-9 21l11 68q53 -31 125 -31q110 0 110 77q0 24 -19.5 33t-55.5 9h-67l10 66h56q37 0 60 15.5t28 43.5q4 25 -17 36.5t-57 11.5q-65 0 -130 -34l11 71q60 29 130 29q54 0 92 -29t38 -73q0 -35 -19.5 -62t-52.5 -39q24 -9 41.5 -30t17.5 -54q0 -67 -50 -102t-122 -35
q-79 0 -140 29z" />
    <glyph glyph-name="four.dnom" horiz-adv-x="400" 
d="M208 84h-220l10 64l254 260h75l-41 -259h70l-10 -65h-70l-13 -84h-68zM218 149l26 164l-160 -164h134z" />
    <glyph glyph-name="five.dnom" horiz-adv-x="360" 
d="M-7 21l10 64q47 -27 112 -27q54 0 87.5 22t33.5 67q0 33 -26.5 44.5t-71.5 11.5q-48 0 -107 -21l47 226h252l-11 -66h-186l-20 -82q21 5 52 5q56 0 99 -29t43 -89q0 -49 -25.5 -84.5t-68 -53t-91.5 -17.5q-74 0 -129 29z" />
    <glyph glyph-name="six.dnom" horiz-adv-x="389" 
d="M301.5 228.5q38.5 -30.5 38.5 -82.5q0 -6 -2 -22q-10 -63 -58 -97.5t-111 -34.5q-74 0 -113.5 42.5t-39.5 118.5q0 21 5 53q11 69 43.5 116t78.5 70.5t96 23.5q54 0 104 -25l-10 -64q-35 23 -94 23q-45 0 -84.5 -29t-58.5 -91q31 17 56.5 23t59.5 6q51 0 89.5 -30.5z
M269 140q0 55 -77 55q-60 0 -106 -32q-3 -52 15.5 -79t64.5 -27q43 0 69.5 14.5t32.5 54.5q1 5 1 14z" />
    <glyph glyph-name="seven.dnom" horiz-adv-x="328" 
d="M241 342h-216l11 66h292l-10 -64l-210 -344h-76z" />
    <glyph glyph-name="eight.dnom" horiz-adv-x="401" 
d="M44.5 23.5q-40.5 31.5 -40.5 78.5q0 27 18 60t61 60q-35 28 -35 73q0 10 1 16q7 42 50 73.5t115 31.5q66 0 104.5 -32t38.5 -79q0 -24 -15.5 -53.5t-47.5 -52.5q20 -13 33.5 -33t13.5 -46q0 -53 -44.5 -90.5t-136.5 -37.5q-75 0 -115.5 31.5zM274.5 263.5
q11.5 19.5 11.5 35.5q0 24 -19 38t-56 14q-42 0 -68 -15.5t-26 -40.5q0 -21 15 -31.5t34 -17.5t26 -10q38 -8 45 -10q26 18 37.5 37.5zM236.5 70.5q29.5 13.5 33.5 38.5q1 3 1 9q0 20 -15 30t-35 17t-28 10q-31 7 -53 16q-29 -15 -46 -34.5t-19 -37.5q-1 -4 -1 -11
q0 -27 23 -39t67 -12q43 0 72.5 13.5z" />
    <glyph glyph-name="nine.dnom" horiz-adv-x="389" 
d="M308.5 374.5q38.5 -41.5 38.5 -115.5q0 -24 -5 -57q-11 -69 -44 -116t-78.5 -70.5t-96.5 -23.5q-56 0 -104 25l10 65q39 -24 95 -24q54 0 88.5 31.5t51.5 87.5q-29 -17 -54.5 -22.5t-58.5 -5.5q-51 0 -89.5 30.5t-38.5 82.5q0 6 2 22q10 63 57.5 97.5t111.5 34.5
q76 0 114.5 -41.5zM93 268q0 -55 78 -55q63 0 107 33l1 17q0 88 -82 88q-92 0 -103 -69q-1 -5 -1 -14z" />
    <glyph glyph-name="zero.numr" horiz-adv-x="433" 
d="M100 313q-39 45 -39 120q0 28 4 52q15 91 71.5 149t140.5 58q79 0 118 -45t39 -120q0 -28 -4 -52q-15 -91 -71.5 -149t-140.5 -58q-79 0 -118 45zM361 480q4 23 4 47q0 99 -90 99q-118 0 -141 -146q-4 -23 -4 -47q0 -99 90 -99q118 0 141 146z" />
    <glyph glyph-name="one.numr" horiz-adv-x="276" 
d="M42 338h86l43 270l-88 -33l11 67l105 38h52l-54 -342h69l-10 -66h-224z" />
    <glyph glyph-name="two.numr" horiz-adv-x="361" 
d="M35 311q7 46 30 77.5t52.5 51t76.5 42.5q48 23 75 47t32 51l1 8q0 20 -18 29.5t-46 9.5q-39 0 -73.5 -11.5t-71.5 -35.5l11 73q31 19 66.5 29t70.5 10q53 0 92 -27.5t39 -73.5q0 -5 -2 -19q-15 -81 -133 -141q-57 -29 -83.5 -47.5t-31.5 -41.5h214l-11 -66h-295z" />
    <glyph glyph-name="three.numr" horiz-adv-x="362" 
d="M35 297l11 68q53 -31 125 -31q110 0 110 77q0 24 -19.5 33t-55.5 9h-67l10 66h56q37 0 60 15.5t28 43.5q4 25 -17 36.5t-57 11.5q-65 0 -130 -34l11 71q60 29 130 29q54 0 92 -29t38 -73q0 -35 -19.5 -62t-52.5 -39q24 -9 41.5 -30t17.5 -54q0 -67 -50 -102t-122 -35
q-79 0 -140 29z" />
    <glyph glyph-name="four.numr" horiz-adv-x="400" 
d="M251 356h-220l10 64l254 260h75l-41 -259h70l-10 -65h-70l-13 -84h-68zM261 421l26 164l-160 -164h134z" />
    <glyph glyph-name="five.numr" horiz-adv-x="360" 
d="M36 293l10 64q47 -27 112 -27q54 0 87.5 22t33.5 67q0 33 -26.5 44.5t-71.5 11.5q-48 0 -107 -21l47 226h252l-11 -66h-186l-20 -82q21 5 52 5q56 0 99 -29t43 -89q0 -49 -25.5 -84.5t-68 -53t-91.5 -17.5q-74 0 -129 29z" />
    <glyph glyph-name="six.numr" horiz-adv-x="389" 
d="M345.5 504.5q38.5 -30.5 38.5 -82.5q0 -6 -2 -22q-10 -63 -58 -97.5t-111 -34.5q-74 0 -113.5 42.5t-39.5 118.5q0 21 5 53q11 69 43.5 116t78.5 70.5t96 23.5q54 0 104 -25l-10 -64q-35 23 -94 23q-45 0 -84.5 -29t-58.5 -91q31 17 56.5 23t59.5 6q51 0 89.5 -30.5z
M313 416q0 55 -77 55q-60 0 -106 -32q-3 -52 15.5 -79t64.5 -27q43 0 69.5 14.5t32.5 54.5q1 5 1 14z" />
    <glyph glyph-name="seven.numr" horiz-adv-x="328" 
d="M284 614h-216l11 66h292l-10 -64l-210 -344h-76z" />
    <glyph glyph-name="eight.numr" horiz-adv-x="401" 
d="M88.5 299.5q-40.5 31.5 -40.5 78.5q0 27 18 60t61 60q-35 28 -35 73q0 10 1 16q7 42 50 73.5t115 31.5q66 0 104.5 -32t38.5 -79q0 -24 -15.5 -53.5t-47.5 -52.5q20 -13 33.5 -33t13.5 -46q0 -53 -44.5 -90.5t-136.5 -37.5q-75 0 -115.5 31.5zM318.5 539.5
q11.5 19.5 11.5 35.5q0 24 -19 38t-56 14q-42 0 -68 -15.5t-26 -40.5q0 -21 15 -31.5t34 -17.5t26 -10q38 -8 45 -10q26 18 37.5 37.5zM280.5 346.5q29.5 13.5 33.5 38.5q1 3 1 9q0 20 -15 30t-35 17t-28 10q-31 7 -53 16q-29 -15 -46 -34.5t-19 -37.5q-1 -4 -1 -11
q0 -27 23 -39t67 -12q43 0 72.5 13.5z" />
    <glyph glyph-name="nine.numr" horiz-adv-x="389" 
d="M352.5 650.5q38.5 -41.5 38.5 -115.5q0 -24 -5 -57q-11 -69 -44 -116t-78.5 -70.5t-96.5 -23.5q-56 0 -104 25l10 65q39 -24 95 -24q54 0 88.5 31.5t51.5 87.5q-29 -17 -54.5 -22.5t-58.5 -5.5q-51 0 -89.5 30.5t-38.5 82.5q0 6 2 22q10 63 57.5 97.5t111.5 34.5
q76 0 114.5 -41.5zM137 544q0 -55 78 -55q63 0 107 33l1 17q0 88 -82 88q-92 0 -103 -69q-1 -5 -1 -14z" />
    <glyph glyph-name="zero.sups" horiz-adv-x="433" 
d="M116 413q-39 45 -39 120q0 28 4 52q15 91 71.5 149t140.5 58q79 0 118 -45t39 -120q0 -28 -4 -52q-15 -91 -71.5 -149t-140.5 -58q-79 0 -118 45zM377 580q4 23 4 47q0 99 -90 99q-118 0 -141 -146q-4 -23 -4 -47q0 -99 90 -99q118 0 141 146z" />
    <glyph glyph-name="one.sups" horiz-adv-x="276" 
d="M58 438h86l43 270l-88 -33l11 67l105 38h52l-54 -342h69l-10 -66h-224z" />
    <glyph glyph-name="two.sups" horiz-adv-x="361" 
d="M51 411q7 46 30 77.5t52.5 51t76.5 42.5q48 23 75 47t32 51l1 8q0 20 -18 29.5t-46 9.5q-39 0 -73.5 -11.5t-71.5 -35.5l11 73q31 19 66.5 29t70.5 10q53 0 92 -27.5t39 -73.5q0 -5 -2 -19q-15 -81 -133 -141q-57 -29 -83.5 -47.5t-31.5 -41.5h214l-11 -66h-295z" />
    <glyph glyph-name="three.sups" horiz-adv-x="362" 
d="M51 397l11 68q53 -31 125 -31q110 0 110 77q0 24 -19.5 33t-55.5 9h-67l10 66h56q37 0 60 15.5t28 43.5q4 25 -17 36.5t-57 11.5q-65 0 -130 -34l11 71q60 29 130 29q54 0 92 -29t38 -73q0 -35 -19.5 -62t-52.5 -39q24 -9 41.5 -30t17.5 -54q0 -67 -50 -102t-122 -35
q-79 0 -140 29z" />
    <glyph glyph-name="four.sups" horiz-adv-x="400" 
d="M267 456h-220l10 64l254 260h75l-41 -259h70l-10 -65h-70l-13 -84h-68zM277 521l26 164l-160 -164h134z" />
    <glyph glyph-name="five.sups" horiz-adv-x="360" 
d="M52 393l10 64q47 -27 112 -27q54 0 87.5 22t33.5 67q0 33 -26.5 44.5t-71.5 11.5q-48 0 -107 -21l47 226h252l-11 -66h-186l-20 -82q21 5 52 5q56 0 99 -29t43 -89q0 -49 -25.5 -84.5t-68 -53t-91.5 -17.5q-74 0 -129 29z" />
    <glyph glyph-name="six.sups" horiz-adv-x="389" 
d="M361.5 604.5q38.5 -30.5 38.5 -82.5q0 -6 -2 -22q-10 -63 -58 -97.5t-111 -34.5q-74 0 -113.5 42.5t-39.5 118.5q0 21 5 53q11 69 43.5 116t78.5 70.5t96 23.5q54 0 104 -25l-10 -64q-35 23 -94 23q-45 0 -84.5 -29t-58.5 -91q31 17 56.5 23t59.5 6q51 0 89.5 -30.5z
M329 516q0 55 -77 55q-60 0 -106 -32q-3 -52 15.5 -79t64.5 -27q43 0 69.5 14.5t32.5 54.5q1 5 1 14z" />
    <glyph glyph-name="seven.sups" horiz-adv-x="328" 
d="M300 714h-216l11 66h292l-10 -64l-210 -344h-76z" />
    <glyph glyph-name="eight.sups" horiz-adv-x="401" 
d="M104.5 399.5q-40.5 31.5 -40.5 78.5q0 27 18 60t61 60q-35 28 -35 73q0 10 1 16q7 42 50 73.5t115 31.5q66 0 104.5 -32t38.5 -79q0 -24 -15.5 -53.5t-47.5 -52.5q20 -13 33.5 -33t13.5 -46q0 -53 -44.5 -90.5t-136.5 -37.5q-75 0 -115.5 31.5zM334.5 639.5
q11.5 19.5 11.5 35.5q0 24 -19 38t-56 14q-42 0 -68 -15.5t-26 -40.5q0 -21 15 -31.5t34 -17.5t26 -10q38 -8 45 -10q26 18 37.5 37.5zM296.5 446.5q29.5 13.5 33.5 38.5q1 3 1 9q0 20 -15 30t-35 17t-28 10q-31 7 -53 16q-29 -15 -46 -34.5t-19 -37.5q-1 -4 -1 -11
q0 -27 23 -39t67 -12q43 0 72.5 13.5z" />
    <glyph glyph-name="nine.sups" horiz-adv-x="389" 
d="M368.5 750.5q38.5 -41.5 38.5 -115.5q0 -24 -5 -57q-11 -69 -44 -116t-78.5 -70.5t-96.5 -23.5q-56 0 -104 25l10 65q39 -24 95 -24q54 0 88.5 31.5t51.5 87.5q-29 -17 -54.5 -22.5t-58.5 -5.5q-51 0 -89.5 30.5t-38.5 82.5q0 6 2 22q10 63 57.5 97.5t111.5 34.5
q76 0 114.5 -41.5zM153 644q0 -55 78 -55q63 0 107 33l1 17q0 88 -82 88q-92 0 -103 -69q-1 -5 -1 -14z" />
    <glyph glyph-name="fraction" unicode="&#x2044;" horiz-adv-x="171" 
d="M364 712h37l-573 -725h-37z" />
    <glyph glyph-name="onehalf" unicode="&#xbd;" horiz-adv-x="899" 
d="M730 712h37l-573 -725h-37zM55 338h86l43 270l-88 -33l11 67l105 38h52l-54 -342h69l-10 -66h-224zM524 35q7 46 30 77.5t52.5 51t76.5 42.5q48 23 75 47t32 51l1 8q0 20 -18 29.5t-46 9.5q-39 0 -73.5 -11.5t-71.5 -35.5l11 73q31 19 66.5 29t70.5 10q53 0 92 -27.5
t39 -73.5q0 -5 -2 -19q-15 -81 -133 -141q-57 -29 -83.5 -47.5t-31.5 -41.5h214l-11 -66h-295z" />
    <glyph glyph-name="onequarter" unicode="&#xbc;" horiz-adv-x="941" 
d="M735 712h37l-573 -725h-37zM60 338h86l43 270l-88 -33l11 67l105 38h52l-54 -342h69l-10 -66h-224zM736 84h-220l10 64l254 260h75l-41 -259h70l-10 -65h-70l-13 -84h-68zM746 149l26 164l-160 -164h134z" />
    <glyph glyph-name="threequarters" unicode="&#xbe;" horiz-adv-x="995" 
d="M799 712h37l-573 -725h-37zM50 297l11 68q53 -31 125 -31q110 0 110 77q0 24 -19.5 33t-55.5 9h-67l10 66h56q37 0 60 15.5t28 43.5q4 25 -17 36.5t-57 11.5q-65 0 -130 -34l11 71q60 29 130 29q54 0 92 -29t38 -73q0 -35 -19.5 -62t-52.5 -39q24 -9 41.5 -30t17.5 -54
q0 -67 -50 -102t-122 -35q-79 0 -140 29zM790 84h-220l10 64l254 260h75l-41 -259h70l-10 -65h-70l-13 -84h-68zM800 149l26 164l-160 -164h134z" />
    <glyph glyph-name="oneeighth" unicode="&#x215b;" horiz-adv-x="930" 
d="M723 712h37l-573 -725h-37zM58 338h86l43 270l-88 -33l11 67l105 38h52l-54 -342h69l-10 -66h-224zM569.5 23.5q-40.5 31.5 -40.5 78.5q0 27 18 60t61 60q-35 28 -35 73q0 10 1 16q7 42 50 73.5t115 31.5q66 0 104.5 -32t38.5 -79q0 -24 -15.5 -53.5t-47.5 -52.5
q20 -13 33.5 -33t13.5 -46q0 -53 -44.5 -90.5t-136.5 -37.5q-75 0 -115.5 31.5zM799.5 263.5q11.5 19.5 11.5 35.5q0 24 -19 38t-56 14q-42 0 -68 -15.5t-26 -40.5q0 -21 15 -31.5t34 -17.5t26 -10q38 -8 45 -10q26 18 37.5 37.5zM761.5 70.5q29.5 13.5 33.5 38.5q1 3 1 9
q0 20 -15 30t-35 17t-28 10q-31 7 -53 16q-29 -15 -46 -34.5t-19 -37.5q-1 -4 -1 -11q0 -27 23 -39t67 -12q43 0 72.5 13.5z" />
    <glyph glyph-name="threeeighths" unicode="&#x215c;" horiz-adv-x="965" 
d="M768 712h37l-573 -725h-37zM48 297l11 68q53 -31 125 -31q110 0 110 77q0 24 -19.5 33t-55.5 9h-67l10 66h56q37 0 60 15.5t28 43.5q4 25 -17 36.5t-57 11.5q-65 0 -130 -34l11 71q60 29 130 29q54 0 92 -29t38 -73q0 -35 -19.5 -62t-52.5 -39q24 -9 41.5 -30t17.5 -54
q0 -67 -50 -102t-122 -35q-79 0 -140 29zM604.5 23.5q-40.5 31.5 -40.5 78.5q0 27 18 60t61 60q-35 28 -35 73q0 10 1 16q7 42 50 73.5t115 31.5q66 0 104.5 -32t38.5 -79q0 -24 -15.5 -53.5t-47.5 -52.5q20 -13 33.5 -33t13.5 -46q0 -53 -44.5 -90.5t-136.5 -37.5
q-75 0 -115.5 31.5zM834.5 263.5q11.5 19.5 11.5 35.5q0 24 -19 38t-56 14q-42 0 -68 -15.5t-26 -40.5q0 -21 15 -31.5t34 -17.5t26 -10q38 -8 45 -10q26 18 37.5 37.5zM796.5 70.5q29.5 13.5 33.5 38.5q1 3 1 9q0 20 -15 30t-35 17t-28 10q-31 7 -53 16q-29 -15 -46 -34.5
t-19 -37.5q-1 -4 -1 -11q0 -27 23 -39t67 -12q43 0 72.5 13.5z" />
    <glyph glyph-name="fiveeighths" unicode="&#x215d;" horiz-adv-x="956" 
d="M759 712h37l-573 -725h-37zM46 293l10 64q46 -27 112 -27q54 0 87.5 22t33.5 67q0 33 -26.5 44.5t-71.5 11.5q-48 0 -107 -21l47 226h252l-11 -66h-186l-20 -82q21 5 52 5q56 0 99 -29t43 -89q0 -49 -25.5 -84.5t-68 -53t-91.5 -17.5q-74 0 -129 29zM595.5 23.5
q-40.5 31.5 -40.5 78.5q0 27 18 60t61 60q-35 28 -35 73q0 10 1 16q7 42 50 73.5t115 31.5q66 0 104.5 -32t38.5 -79q0 -24 -15.5 -53.5t-47.5 -52.5q20 -13 33.5 -33t13.5 -46q0 -53 -44.5 -90.5t-136.5 -37.5q-75 0 -115.5 31.5zM825.5 263.5q11.5 19.5 11.5 35.5
q0 24 -19 38t-56 14q-42 0 -68 -15.5t-26 -40.5q0 -21 15 -31.5t34 -17.5t26 -10q38 -8 45 -10q26 18 37.5 37.5zM787.5 70.5q29.5 13.5 33.5 38.5q1 3 1 9q0 20 -15 30t-35 17t-28 10q-31 7 -53 16q-29 -15 -46 -34.5t-19 -37.5q-1 -4 -1 -11q0 -27 23 -39t67 -12
q43 0 72.5 13.5z" />
    <glyph glyph-name="seveneighths" unicode="&#x215e;" horiz-adv-x="870" 
d="M667 712h37l-573 -725h-37zM302 614h-216l11 66h292l-10 -64l-210 -344h-76zM508.5 23.5q-40.5 31.5 -40.5 78.5q0 27 18 60t61 60q-35 28 -35 73q0 10 1 16q7 42 50 73.5t115 31.5q66 0 104.5 -32t38.5 -79q0 -24 -15.5 -53.5t-47.5 -52.5q20 -13 33.5 -33t13.5 -46
q0 -53 -44.5 -90.5t-136.5 -37.5q-75 0 -115.5 31.5zM738.5 263.5q11.5 19.5 11.5 35.5q0 24 -19 38t-56 14q-42 0 -68 -15.5t-26 -40.5q0 -21 15 -31.5t34 -17.5t26 -10q38 -8 45 -10q26 18 37.5 37.5zM700.5 70.5q29.5 13.5 33.5 38.5q1 3 1 9q0 20 -15 30t-35 17t-28 10
q-31 7 -53 16q-29 -15 -46 -34.5t-19 -37.5q-1 -4 -1 -11q0 -27 23 -39t67 -12q43 0 72.5 13.5z" />
    <glyph glyph-name="period" unicode="." horiz-adv-x="214" 
d="M33 3q-14 12 -14 33q0 7 1 11q3 22 19 33.5t37 11.5t34.5 -12t13.5 -32q0 -28 -16 -42.5t-40 -14.5q-21 0 -35 12z" />
    <glyph glyph-name="comma" unicode="," horiz-adv-x="226" 
d="M46 80h86l-112 -230h-66z" />
    <glyph glyph-name="colon" unicode=":" horiz-adv-x="231" 
d="M93 351q-14 12 -14 33q0 28 16.5 42.5t39.5 14.5q22 0 35.5 -12t13.5 -33q0 -28 -16.5 -42.5t-40.5 -14.5q-20 0 -34 12zM38 3q-14 12 -14 33q0 7 1 11q3 22 19 33.5t36 11.5q22 0 35.5 -12t13.5 -32q0 -28 -16.5 -42.5t-40.5 -14.5q-20 0 -34 12z" />
    <glyph glyph-name="semicolon" unicode=";" horiz-adv-x="284" 
d="M121.5 387.5q-14.5 12.5 -14.5 34.5q0 27 17 41t40 14q22 0 35.5 -12t13.5 -33q0 -28 -16.5 -42.5t-40.5 -14.5q-20 0 -34.5 12.5zM74 80h86l-112 -230h-66z" />
    <glyph glyph-name="ellipsis" unicode="&#x2026;" horiz-adv-x="588" 
d="M33 3q-14 12 -14 33q0 7 1 11q3 22 19 33.5t37 11.5t34.5 -12t13.5 -32q0 -28 -16 -42.5t-40 -14.5q-21 0 -35 12zM220 3q-14 12 -14 33q0 7 1 11q3 22 19 33.5t37 11.5t34.5 -12t13.5 -32q0 -28 -16 -42.5t-40 -14.5q-21 0 -35 12zM407 3q-14 12 -14 33q0 7 1 11
q3 22 19 33.5t36 11.5q22 0 35.5 -11.5t13.5 -32.5q0 -28 -16.5 -42.5t-40.5 -14.5q-20 0 -34 12z" />
    <glyph glyph-name="exclam" unicode="!" horiz-adv-x="231" 
d="M139 700h84l-86 -497h-70zM39 2q-14 12 -14 34q0 26 16.5 40t38.5 14q20 0 34 -12t14 -34q0 -26 -16.5 -40t-38.5 -14q-20 0 -34 12z" />
    <glyph glyph-name="exclamdown" unicode="&#xa1;" horiz-adv-x="217" 
d="M94.5 404q-13.5 12 -13.5 32q0 27 16 41.5t39 14.5q20 0 33.5 -12t13.5 -32q0 -27 -16 -41.5t-39 -14.5q-20 0 -33.5 12zM71 279h70l-71 -497h-84z" />
    <glyph glyph-name="question" unicode="?" horiz-adv-x="492" 
d="M214 298.5q31 40.5 89 94.5q55 51 82 86.5t27 77.5q0 41 -35 58t-102 17q-93 0 -194 -57l13 83q43 25 94.5 39.5t104.5 14.5q87 0 145.5 -38.5t58.5 -108.5q0 -40 -18 -75.5t-44 -63.5t-68 -67q-52 -48 -78.5 -81t-31.5 -70h-81q7 50 38 90.5zM152 3q-14 12 -14 33
q0 7 1 11q3 22 19 33.5t37 11.5t34.5 -12t13.5 -32q0 -28 -16 -42.5t-40 -14.5q-21 0 -35 12z" />
    <glyph glyph-name="questiondown" unicode="&#xbf;" horiz-adv-x="486" 
d="M243.5 403q-13.5 12 -13.5 32q0 28 16 42.5t40 14.5q21 0 35 -12t14 -33q0 -27 -16.5 -41.5t-40.5 -14.5q-21 0 -34.5 12zM33.5 -193q-58.5 39 -58.5 109q0 40 18.5 77t45.5 66.5t70 69.5q50 47 76 78.5t31 64.5h79q-7 -46 -37.5 -85t-85.5 -92q-56 -55 -83.5 -92
t-27.5 -80q0 -41 35 -58t102 -17q100 0 195 59l-14 -87q-97 -52 -199 -52q-88 0 -146.5 39z" />
    <glyph glyph-name="periodcentered" unicode="&#xb7;" horiz-adv-x="233" 
d="M70 200q-14 12 -14 33q0 28 16.5 42.5t40.5 14.5q21 0 34.5 -12t13.5 -33q0 -28 -16 -42.5t-40 -14.5q-21 0 -35 12z" />
    <glyph glyph-name="bullet" unicode="&#x2022;" horiz-adv-x="334" 
d="M113.5 289q-20.5 18 -20.5 51q0 44 26.5 66.5t63.5 22.5q33 0 53.5 -18t20.5 -51q0 -44 -26.5 -66.5t-64.5 -22.5q-32 0 -52.5 18z" />
    <glyph glyph-name="asterisk" unicode="*" horiz-adv-x="444" 
d="M105 414l102 106l-123 32l36 70l117 -49l12 127h74l-29 -127l132 49l15 -70l-137 -32l72 -106l-66 -42l-55 120l-94 -120z" />
    <glyph glyph-name="numbersign" unicode="#" horiz-adv-x="655" 
d="M98 171h-79l11 70h96l79 199h-93l11 70h109l67 170h80l-66 -170h181l67 170h80l-67 -170h77l-11 -70h-94l-79 -199h91l-11 -70h-107l-68 -171h-80l67 171h-180l-68 -171h-80zM387 241l79 199h-181l-79 -199h181z" />
    <glyph glyph-name="slash" unicode="/" horiz-adv-x="428" 
d="M405 758h62l-427 -816h-62z" />
    <glyph glyph-name="backslash" unicode="\" horiz-adv-x="422" 
d="M107 758h58l169 -816h-58z" />
    <glyph glyph-name="parenleft" unicode="(" horiz-adv-x="288" 
d="M65.5 9.5q-21.5 89.5 -21.5 183.5q0 59 9 116q19 119 77 239.5t140 214.5h79q-78 -96 -133 -220t-74 -244q-10 -61 -10 -132q0 -89 17.5 -172.5t52.5 -149.5h-76q-39 75 -60.5 164.5z" />
    <glyph glyph-name="parenright" unicode=")" horiz-adv-x="289" 
d="M91 65q55 124 74 244q10 61 10 133q0 88 -17.5 171.5t-51.5 149.5h75q39 -74 60.5 -164t21.5 -183q0 -58 -9 -117q-19 -118 -76.5 -238.5t-139.5 -215.5h-80q78 96 133 220z" />
    <glyph glyph-name="braceleft" unicode="{" horiz-adv-x="304" 
d="M147 -160q-48 0 -72.5 25t-24.5 70q0 19 2 29l37 232q2 16 2 22q0 31 -17 41.5t-52 10.5l12 73q38 0 61 18.5t30 63.5l37 232q9 55 40.5 84.5t84.5 29.5q23 0 50 -6l-11 -69q-6 1 -18 1q-30 0 -45.5 -20t-23.5 -65l-33 -211q-7 -42 -24.5 -65t-48.5 -31q20 -3 32.5 -20
t12.5 -49q0 -14 -3 -32l-34 -211q-3 -17 -3 -31q0 -24 11 -35.5t35 -11.5q12 0 18 1l-11 -71q-27 -5 -44 -5z" />
    <glyph glyph-name="braceright" unicode="}" horiz-adv-x="303" 
d="M-22 -81q20 -4 26 -4q25 0 39 17.5t19 53.5l37 232q13 83 81 91q-25 5 -39 23.5t-14 50.5q0 16 2 26l34 213q3 18 3 32q0 23 -9.5 34t-32.5 11q-5 0 -23 -2l11 68q27 5 44 5q47 0 71.5 -25t24.5 -70q0 -19 -2 -29l-36 -230q-2 -14 -2 -20q0 -59 67 -59l-11 -70
q-78 0 -91 -82l-36 -230q-9 -56 -39 -86.5t-82 -30.5q-26 0 -54 7z" />
    <glyph glyph-name="bracketleft" unicode="[" horiz-adv-x="285" 
d="M148 765h186l-12 -80h-103l-121 -760h103l-12 -80h-187z" />
    <glyph glyph-name="bracketright" unicode="]" horiz-adv-x="286" 
d="M-22 -75h104l120 760h-103l12 80h187l-145 -920h-187z" />
    <glyph glyph-name="parenleft.case" horiz-adv-x="288" 
d="M72.5 55.5q-21.5 89.5 -21.5 183.5q0 59 9 116q19 119 77 239.5t140 214.5h79q-78 -96 -133 -220t-74 -244q-10 -61 -10 -132q0 -89 17.5 -172.5t52.5 -149.5h-76q-39 75 -60.5 164.5z" />
    <glyph glyph-name="parenright.case" horiz-adv-x="289" 
d="M99 111q55 124 74 244q10 61 10 133q0 88 -17.5 171.5t-51.5 149.5h75q39 -74 60.5 -164t21.5 -183q0 -58 -9 -117q-19 -118 -76.5 -238.5t-139.5 -215.5h-80q78 96 133 220z" />
    <glyph glyph-name="braceleft.case" horiz-adv-x="304" 
d="M154 -116q-48 0 -72.5 25t-24.5 70q0 19 2 29l37 232q2 16 2 22q0 31 -17 41.5t-52 10.5l12 73q38 0 61 18.5t30 63.5l37 232q9 55 40.5 84.5t84.5 29.5q23 0 50 -6l-11 -69q-6 1 -18 1q-30 0 -45.5 -20t-23.5 -65l-33 -211q-7 -42 -24.5 -65t-48.5 -31q20 -3 32.5 -20
t12.5 -49q0 -14 -3 -32l-34 -211q-3 -16 -3 -31q0 -24 11 -35.5t35 -11.5q12 0 18 1l-11 -71q-27 -5 -44 -5z" />
    <glyph glyph-name="braceright.case" horiz-adv-x="303" 
d="M-14 -35q20 -4 26 -4q25 0 39 17.5t19 53.5l37 232q13 83 81 91q-25 5 -39 23.5t-14 50.5q0 16 2 26l34 213q3 18 3 32q0 23 -9.5 34t-32.5 11q-5 0 -23 -2l11 68q27 5 44 5q47 0 71.5 -25t24.5 -70q0 -19 -2 -29l-36 -230q-2 -14 -2 -20q0 -59 67 -59l-11 -70
q-78 0 -91 -82l-36 -230q-9 -56 -39 -86.5t-82 -30.5q-26 0 -54 7z" />
    <glyph glyph-name="bracketleft.case" horiz-adv-x="285" 
d="M156 810h186l-12 -80h-103l-121 -760h103l-12 -80h-187z" />
    <glyph glyph-name="bracketright.case" horiz-adv-x="285" 
d="M-15 -30h104l120 760h-103l12 80h187l-145 -920h-187z" />
    <glyph glyph-name="hyphen" unicode="-" horiz-adv-x="484" 
d="M62 286h357l-12 -76h-357z" />
    <glyph glyph-name="endash" unicode="&#x2013;" horiz-adv-x="573" 
d="M62 286h446l-12 -76h-446z" />
    <glyph glyph-name="emdash" unicode="&#x2014;" horiz-adv-x="761" 
d="M62 286h634l-12 -76h-634z" />
    <glyph glyph-name="underscore" unicode="_" horiz-adv-x="454" 
d="M-58 -73h454l-12 -76h-454z" />
    <glyph glyph-name="hyphen.case" horiz-adv-x="494" 
d="M83 388h357l-12 -76h-357z" />
    <glyph glyph-name="endash.case" horiz-adv-x="583" 
d="M83 388h446l-12 -76h-446z" />
    <glyph glyph-name="emdash.case" horiz-adv-x="771" 
d="M83 388h634l-12 -76h-634z" />
    <glyph glyph-name="quotesinglbase" unicode="&#x201a;" horiz-adv-x="226" 
d="M46 80h86l-112 -230h-66z" />
    <glyph glyph-name="quotedblbase" unicode="&#x201e;" horiz-adv-x="366" 
d="M46 80h86l-112 -230h-66zM186 80h86l-112 -230h-66z" />
    <glyph glyph-name="quotedblleft" unicode="&#x201c;" horiz-adv-x="366" 
d="M185 700h66l-91 -230h-86zM325 700h66l-91 -230h-86z" />
    <glyph glyph-name="quotedblright" unicode="&#x201d;" horiz-adv-x="361" 
d="M168 700h86l-111 -230h-66zM308 700h86l-111 -230h-66z" />
    <glyph glyph-name="quoteleft" unicode="&#x2018;" horiz-adv-x="226" 
d="M185 700h66l-91 -230h-86z" />
    <glyph glyph-name="quoteright" unicode="&#x2019;" horiz-adv-x="221" 
d="M168 700h86l-111 -230h-66z" />
    <glyph glyph-name="guillemotleft" unicode="&#xab;" horiz-adv-x="493" 
d="M36 232l3 19l148 171h88l-159 -182l99 -182h-84zM223 232l3 19l148 171h88l-158 -182l98 -182h-84z" />
    <glyph glyph-name="guillemotright" unicode="&#xbb;" horiz-adv-x="492" 
d="M173 240l-98 182h83l96 -174l-3 -19l-149 -171h-87zM360 240l-98 182h83l96 -174l-3 -19l-149 -171h-87z" />
    <glyph glyph-name="guilsinglleft" unicode="&#x2039;" horiz-adv-x="306" 
d="M36 232l3 19l148 171h88l-159 -182l99 -182h-84z" />
    <glyph glyph-name="guilsinglright" unicode="&#x203a;" horiz-adv-x="305" 
d="M173 240l-98 182h83l96 -174l-3 -19l-149 -171h-87z" />
    <glyph glyph-name="quotedbl" unicode="&#x22;" horiz-adv-x="319" 
d="M126 700h76l-49 -180h-56zM256 700h76l-49 -180h-56z" />
    <glyph glyph-name="quotesingle" unicode="'" horiz-adv-x="189" 
d="M126 700h76l-49 -180h-56z" />
    <glyph glyph-name="guillemotleft.case" horiz-adv-x="510" 
d="M60 342l3 19l148 171h88l-159 -182l99 -182h-84zM247 342l3 19l148 171h88l-158 -182l98 -182h-84z" />
    <glyph glyph-name="guillemotright.case" horiz-adv-x="509" 
d="M200 350l-98 182h83l96 -174l-3 -19l-149 -171h-87zM387 350l-98 182h83l96 -174l-3 -19l-149 -171h-87z" />
    <glyph glyph-name="guilsinglleft.case" horiz-adv-x="323" 
d="M60 342l3 19l148 171h88l-159 -182l99 -182h-84z" />
    <glyph glyph-name="guilsinglright.case" horiz-adv-x="322" 
d="M200 350l-98 182h83l96 -174l-3 -19l-149 -171h-87z" />
    <glyph glyph-name="cent" unicode="&#xa2;" horiz-adv-x="510" 
d="M216 -9q-80 13 -130.5 66t-50.5 140q0 27 4 51q17 110 89 170t167 72l17 110h70l-17 -110q64 -6 117 -42l-13 -75q-46 42 -116 45l-56 -355q60 4 135 42l-13 -83q-63 -29 -134 -33l-17 -109h-70zM282 412q-63 -14 -108 -56.5t-57 -115.5q-3 -19 -3 -36q0 -56 31 -91
t83 -46z" />
    <glyph glyph-name="currency" unicode="&#xa4;" horiz-adv-x="577" 
d="M43 178l72 63q-20 34 -20 80q0 16 3 34q11 64 50 108l-50 59l64 56l53 -63q49 26 109 26q59 0 105 -28l76 65l48 -56l-72 -63q19 -35 19 -79q0 -17 -3 -35q-11 -63 -50 -108l51 -59l-64 -56l-54 63q-48 -26 -109 -26q-58 0 -104 28l-76 -65zM370 266q39 33 48 89
q2 16 2 24q0 42 -26.5 65t-73.5 23q-56 0 -95 -33t-48 -89q-2 -16 -2 -23q0 -42 26.5 -65.5t73.5 -23.5q56 0 95 33z" />
    <glyph glyph-name="dollar" unicode="$" horiz-adv-x="588" 
d="M214 -10q-119 11 -198 59l13 82q46 -32 106.5 -47.5t123.5 -15.5q76 0 128.5 24t61.5 80q1 5 1 14q0 30 -21 51.5t-52 35.5t-86 34q-68 24 -110 45t-71.5 56t-29.5 88q0 15 3 31q13 75 81.5 117.5t159.5 46.5l19 119h70l-19 -120q96 -11 159 -51l-12 -79
q-36 25 -89.5 38.5t-114.5 13.5q-72 0 -121 -26.5t-49 -82.5q0 -32 22 -55.5t55 -39t89 -35.5q67 -24 107 -44t68 -53t28 -81q0 -9 -2 -27q-14 -89 -84 -132.5t-166 -47.5l-19 -118h-70z" />
    <glyph glyph-name="Euro" unicode="&#x20ac;" 
d="M276 18.5q-64 30.5 -108 87.5t-57 133h-93l11 70h78q0 35 6 62h-74l11 70h81q30 84 90 140t136.5 83.5t158.5 27.5q70 0 130 -21l-12 -75q-45 16 -125 16q-96 0 -173.5 -42t-115.5 -129h300l-11 -70h-311q-7 -31 -7 -62h308l-11 -70h-291q18 -80 81 -125.5t147 -45.5
q76 0 138 18l-12 -80q-61 -18 -139 -18q-72 0 -136 30.5z" />
    <glyph glyph-name="sterling" unicode="&#xa3;" horiz-adv-x="603" 
d="M7 80h35q31 0 54.5 24.5t28.5 61.5l21 130h-85l12 78h85l14 88q19 120 92 175t171 55q81 0 147 -39l-12 -78q-58 40 -139 40q-65 0 -113.5 -38.5t-62.5 -122.5l-13 -80h222l-12 -78h-222l-22 -136q-5 -33 -16 -52.5t-34 -29.5l374 2l-13 -80h-525z" />
    <glyph glyph-name="yen" unicode="&#xa5;" horiz-adv-x="675" 
d="M267 130h-167l11 70h167l10 56h-168l11 70h131l-169 354h90l157 -341l267 341h94l-280 -354h130l-11 -70h-168l-10 -56h169l-11 -70h-169l-21 -130h-84z" />
    <glyph glyph-name="cent.tf" 
d="M274 -8q-79 13 -129.5 66t-50.5 140q0 26 4 50q17 109 89 169.5t166 72.5l17 110h70l-17 -109q66 -8 118 -43l-13 -75q-46 42 -117 45l-56 -355q62 4 136 42l-13 -83q-67 -30 -135 -33l-17 -109h-70zM340 412q-62 -14 -107 -56.5t-57 -115.5q-3 -19 -3 -36
q0 -56 30.5 -90.5t82.5 -46.5z" />
    <glyph glyph-name="currency.tf" 
d="M69 178l72 63q-20 34 -20 80q0 16 3 34q11 64 50 108l-50 59l64 56l53 -63q49 26 109 26q59 0 105 -28l76 65l48 -56l-72 -63q19 -35 19 -79q0 -17 -3 -35q-11 -63 -50 -108l51 -59l-64 -56l-54 63q-48 -26 -109 -26q-58 0 -104 28l-76 -65zM396 266q39 33 48 89
q2 16 2 24q0 42 -26.5 65t-73.5 23q-56 0 -95 -33t-48 -89q-2 -16 -2 -23q0 -42 26.5 -65.5t73.5 -23.5q56 0 95 33z" />
    <glyph glyph-name="dollar.tf" 
d="M235 -10q-119 11 -198 59l13 82q46 -32 106.5 -47.5t123.5 -15.5q76 0 128.5 24t61.5 80q1 5 1 14q0 30 -21 51.5t-52 35.5t-86 34q-68 24 -110 45t-71.5 56t-29.5 88q0 15 3 31q13 75 81.5 117.5t159.5 46.5l19 119h70l-19 -120q96 -11 159 -51l-12 -79
q-36 25 -89.5 38.5t-114.5 13.5q-72 0 -121 -26.5t-49 -82.5q0 -32 22 -55.5t55 -39t89 -35.5q67 -24 107 -44t68 -53t28 -81q0 -9 -2 -27q-14 -89 -84 -132.5t-166 -47.5l-19 -118h-70z" />
    <glyph glyph-name="Euro.tf" 
d="M276 18.5q-64 30.5 -108 87.5t-57 133h-93l11 70h78q0 35 6 62h-74l11 70h81q30 84 90 140t136.5 83.5t158.5 27.5q70 0 130 -21l-12 -75q-45 16 -125 16q-96 0 -173.5 -42t-115.5 -129h300l-11 -70h-311q-7 -31 -7 -62h308l-11 -70h-291q18 -80 81 -125.5t147 -45.5
q76 0 138 18l-12 -80q-61 -18 -139 -18q-72 0 -136 30.5z" />
    <glyph glyph-name="sterling.tf" 
d="M21 80h35q31 0 54.5 24.5t28.5 61.5l21 130h-85l12 78h85l14 88q19 120 92 175t171 55q81 0 147 -39l-12 -78q-58 40 -139 40q-65 0 -113.5 -38.5t-62.5 -122.5l-13 -80h222l-12 -78h-222l-22 -136q-5 -33 -16 -52.5t-34 -29.5l374 2l-13 -80h-525z" />
    <glyph glyph-name="yen.tf" 
d="M244 130h-167l11 70h167l10 56h-168l11 70h131l-169 354h90l157 -341l267 341h94l-280 -354h130l-11 -70h-168l-10 -56h169l-11 -70h-169l-21 -130h-84z" />
    <glyph glyph-name="plus" unicode="+" horiz-adv-x="532" 
d="M230 312h-184l12 76h185l29 185h76l-29 -185h185l-12 -76h-186l-29 -185h-76z" />
    <glyph glyph-name="minus" unicode="&#x2212;" horiz-adv-x="519" 
d="M82 383h382l-12 -76h-382z" />
    <glyph glyph-name="multiply" unicode="&#xd7;" horiz-adv-x="469" 
d="M45 224l148 128l-108 127l58 51l107 -127l148 127l44 -51l-148 -127l108 -128l-58 -51l-107 128l-148 -128z" />
    <glyph glyph-name="divide" unicode="&#xf7;" horiz-adv-x="613" 
d="M312.5 534q-13.5 12 -13.5 33q0 28 16 42t40 14q22 0 35 -11.5t13 -32.5q0 -28 -16 -42.5t-40 -14.5q-21 0 -34.5 12zM82 388h480l-12 -76h-480zM241.5 87q-13.5 12 -13.5 33q0 28 16 42t40 14q22 0 35 -11.5t13 -32.5q0 -28 -16 -42.5t-40 -14.5q-21 0 -34.5 12z" />
    <glyph glyph-name="equal" unicode="=" horiz-adv-x="558" 
d="M97 479h423l-12 -76h-423zM68 297h423l-12 -76h-423z" />
    <glyph glyph-name="notequal" unicode="&#x2260;" horiz-adv-x="558" 
d="M155 221h-99l12 76h144l80 106h-207l12 76h252l76 101h72l-76 -101h99l-12 -76h-144l-80 -106h207l-12 -76h-252l-76 -101h-72z" />
    <glyph glyph-name="greater" unicode="&#x3e;" horiz-adv-x="502" 
d="M72 235l314 115l-277 115l12 78l352 -153l-13 -80l-400 -153z" />
    <glyph glyph-name="less" unicode="&#x3c;" horiz-adv-x="501" 
d="M47 310l13 80l400 153l-12 -78l-313 -115l276 -115l-12 -78z" />
    <glyph glyph-name="greaterequal" unicode="&#x2265;" horiz-adv-x="523" 
d="M77 259l313 115l-276 115l12 78l352 -153l-13 -80l-400 -153zM48 76h376l-12 -76h-376z" />
    <glyph glyph-name="lessequal" unicode="&#x2264;" horiz-adv-x="526" 
d="M76 334l13 80l400 153l-12 -78l-314 -115l277 -115l-12 -78zM35 76h376l-12 -76h-376z" />
    <glyph glyph-name="plusminus" unicode="&#xb1;" horiz-adv-x="574" 
d="M260 346h-185l12 76h185l29 185h76l-29 -185h185l-12 -76h-185l-29 -185h-76zM32 76h446l-12 -76h-446z" />
    <glyph glyph-name="approxequal" unicode="&#x2248;" horiz-adv-x="589" 
d="M380.5 377q-26.5 7 -64.5 21q-35 13 -59.5 20t-46.5 7t-36 -11.5t-14 -33.5h-75q3 58 37 89t83 31q27 0 52.5 -7t63.5 -21q36 -13 60 -19.5t47 -6.5q22 0 36 11t14 33h75q-2 -57 -36 -88.5t-85 -31.5q-25 0 -51.5 7zM356.5 225q-26.5 7 -64.5 21q-35 13 -59.5 20t-46.5 7
t-36 -11.5t-14 -33.5h-75q3 58 37 89t83 31q27 0 52.5 -7t63.5 -21q36 -13 60 -19.5t47 -6.5q22 0 36 11t14 33h75q-2 -57 -36 -88.5t-85 -31.5q-25 0 -51.5 7z" />
    <glyph glyph-name="asciitilde" unicode="~" horiz-adv-x="587" 
d="M362.5 272q-26.5 7 -64.5 21q-35 13 -59.5 20t-46.5 7t-36 -11.5t-14 -33.5h-75q3 58 37 89t83 31q27 0 52.5 -7t63.5 -21q36 -13 60 -19.5t47 -6.5q22 0 36 11t14 33h75q-2 -57 -36 -88.5t-85 -31.5q-25 0 -51.5 7z" />
    <glyph glyph-name="logicalnot" unicode="&#xac;" horiz-adv-x="573" 
d="M439 404h-366l12 76h446l-33 -209h-80z" />
    <glyph glyph-name="asciicircum" unicode="^" horiz-adv-x="533" 
d="M298 700h70l136 -320h-86l-95 231l-168 -231h-93z" />
    <glyph glyph-name="emptyset" unicode="&#x2205;" horiz-adv-x="814" 
d="M248 8q-54 20 -96 57l-66 -65h-51l92 91q-37 42 -57.5 96t-20.5 115q0 25 5 58q16 97 77 178t151 127.5t188 46.5q61 0 115 -20t95 -57l66 65h51l-92 -90q38 -43 58.5 -97t20.5 -115q0 -25 -5 -58q-16 -97 -77 -178t-151 -127.5t-188 -46.5q-61 0 -115 20zM650 606
q-35 31 -81 47.5t-98 16.5q-88 0 -169.5 -43t-136.5 -116.5t-69 -160.5q-4 -23 -4 -50q0 -51 17 -97.5t48 -82.5zM531.5 73q81.5 43 136.5 116.5t69 160.5q4 23 4 50q0 52 -17 98t-48 83l-494 -486q36 -31 82 -48t98 -17q88 0 169.5 43z" />
    <glyph glyph-name="infinity" unicode="&#x221e;" horiz-adv-x="852" 
d="M142 194q-35 19 -56.5 54t-21.5 81q0 16 3 34q9 55 38 95t71.5 61.5t90.5 21.5q59 0 103 -34t75 -87q51 58 100.5 89.5t110.5 31.5q40 0 75 -19t56.5 -54t21.5 -81q0 -16 -3 -34q-9 -55 -38 -95t-71.5 -61.5t-90.5 -21.5q-59 0 -103.5 34t-74.5 87q-51 -58 -100.5 -89.5
t-110.5 -31.5q-40 0 -75 19zM312 279.5q37 28.5 81 81.5q-28 52 -53.5 78t-64.5 26q-50 0 -86 -26.5t-44 -80.5q-2 -16 -2 -23q0 -41 25 -62.5t65 -21.5q42 0 79 28.5zM683 279.5q36 28.5 45 83.5q2 16 2 22q0 41 -24.5 60.5t-65.5 19.5q-42 0 -79 -28t-82 -82
q27 -51 53.5 -77.5t65.5 -26.5q49 0 85 28.5z" />
    <glyph glyph-name="integral" unicode="&#x222b;" horiz-adv-x="422" 
d="M-69 -216l11 74q23 -14 58 -14q45 0 76 17t38 66l113 714q13 81 63.5 116t114.5 35q43 0 83 -16l-12 -74q-24 14 -67 14q-90 0 -104 -83l-113 -715q-13 -81 -63.5 -115.5t-114.5 -34.5q-43 0 -83 16z" />
    <glyph glyph-name="product" unicode="&#x220f;" horiz-adv-x="755" 
d="M185 620h-95l13 80h680l-13 -80h-95l-133 -840h-84l133 840h-322l-133 -840h-84z" />
    <glyph glyph-name="summation" unicode="&#x2211;" horiz-adv-x="566" 
d="M0 47l314 305l-217 302l7 46h477l-13 -80h-346l187 -261l-4 -25l-261 -254h339l-13 -80h-477z" />
    <glyph glyph-name="radical" unicode="&#x221a;" horiz-adv-x="739" 
d="M141 400h-101l13 80h144l102 -382l428 682h90l-494 -780h-75z" />
    <glyph glyph-name="partialdiff" unicode="&#x2202;" horiz-adv-x="590" 
d="M134 12.5q-50 24.5 -78 69.5t-28 104q0 19 3 40q10 62 48 112t93.5 78t115.5 28q69 0 120.5 -29.5t68.5 -75.5q2 20 2 27q-4 92 -48 150.5t-110 84t-139 25.5q-20 0 -30 -1l12 75q96 0 182 -33t142.5 -109.5t56.5 -199.5q0 -39 -8 -92q-21 -135 -100 -206.5t-191 -71.5
q-62 0 -112 24.5zM372.5 103.5q48.5 39.5 69.5 106.5q2 18 2 25q0 61 -39.5 98t-106.5 37q-53 0 -96.5 -24t-69 -65.5t-25.5 -92.5q0 -57 38 -90.5t105 -33.5q74 0 122.5 39.5z" />
    <glyph glyph-name="percent" unicode="%" horiz-adv-x="898" 
d="M687 760h82l-539 -820h-82zM116.5 434.5q-42.5 36.5 -42.5 98.5q0 9 2 27q11 71 64.5 111.5t120.5 40.5q59 0 101 -36t42 -97q0 -56 -26.5 -97.5t-69 -62.5t-89.5 -21q-60 0 -102.5 36.5zM299.5 498q29.5 30 29.5 73q0 30 -18.5 50.5t-52.5 20.5q-49 0 -79 -29.5
t-30 -73.5q0 -31 18.5 -51t54.5 -20q48 0 77.5 30zM554.5 24.5q-42.5 36.5 -42.5 98.5q0 9 2 27q11 71 64.5 111.5t120.5 40.5q59 0 101 -36t42 -97q0 -56 -26.5 -97.5t-69 -62.5t-89.5 -21q-60 0 -102.5 36.5zM737.5 88q29.5 30 29.5 73q0 30 -18.5 50.5t-52.5 20.5
q-49 0 -79 -29.5t-30 -73.5q0 -31 18.5 -51t54.5 -20q48 0 77.5 30z" />
    <glyph glyph-name="perthousand" unicode="&#x2030;" horiz-adv-x="1285" 
d="M687 760h82l-539 -820h-82zM116.5 434.5q-42.5 36.5 -42.5 98.5q0 9 2 27q11 71 64.5 111.5t120.5 40.5q59 0 101 -36t42 -97q0 -56 -26.5 -97.5t-69 -62.5t-89.5 -21q-60 0 -102.5 36.5zM299.5 498q29.5 30 29.5 73q0 30 -18.5 50.5t-52.5 20.5q-49 0 -79 -29.5
t-30 -73.5q0 -31 18.5 -51t54.5 -20q48 0 77.5 30zM554.5 24.5q-42.5 36.5 -42.5 98.5q0 9 2 27q11 71 64.5 111.5t120.5 40.5q59 0 101 -36t42 -97q0 -56 -26.5 -97.5t-69 -62.5t-89.5 -21q-60 0 -102.5 36.5zM943.5 24.5q-42.5 36.5 -42.5 98.5q0 9 2 27q11 71 64.5 111.5
t120.5 40.5q59 0 101 -36t42 -97q0 -56 -26.5 -97.5t-69 -62.5t-89.5 -21q-60 0 -102.5 36.5zM737.5 88q29.5 30 29.5 73q0 30 -18.5 50.5t-52.5 20.5q-49 0 -79 -29.5t-30 -73.5q0 -31 18.5 -51t54.5 -20q48 0 77.5 30zM1126.5 88q29.5 30 29.5 73q0 30 -18.5 50.5
t-52.5 20.5q-49 0 -79 -29.5t-30 -73.5q0 -31 18.5 -51t54.5 -20q48 0 77.5 30z" />
    <glyph glyph-name="lozenge" unicode="&#x25ca;" horiz-adv-x="565" 
d="M45 350l257 350h89l148 -350l-257 -350h-89zM451 356l-112 266l-205 -279l112 -266z" />
    <glyph glyph-name="at" unicode="@" horiz-adv-x="1052" 
d="M257 -184q-103 48 -164.5 140t-61.5 217q0 33 7 82q19 122 94 226.5t195.5 167.5t270.5 63q131 0 223 -55.5t138.5 -143.5t46.5 -184q0 -31 -4 -55q-21 -131 -84.5 -198.5t-151.5 -67.5q-60 0 -97.5 27.5t-44.5 76.5q-30 -41 -72 -62t-89 -21t-86 23t-61.5 63.5
t-22.5 91.5q0 17 3 35q9 58 41.5 105t80.5 73.5t103 26.5q46 0 81.5 -23.5t51.5 -58.5l11 72h78l-42 -265q-2 -10 -2 -28q0 -33 16.5 -49.5t54.5 -16.5q58 0 96.5 57t52.5 149q4 30 4 47q0 77 -38 146t-113 112t-179 43q-126 0 -228 -52.5t-165 -141t-80 -193.5
q-5 -29 -5 -66q0 -102 50 -177t135.5 -114.5t189.5 -39.5q117 0 228 37l-13 -83q-99 -34 -222 -34t-226 48zM570 133q42 30 58 71l12 72q-4 40 -33.5 68.5t-79.5 28.5q-39 0 -74.5 -20t-57.5 -56.5t-22 -83.5q0 -49 29 -79.5t74 -30.5q52 0 94 30z" />
    <glyph glyph-name="ampersand" unicode="&#x26;" horiz-adv-x="696" 
d="M131 9.5q-49 21.5 -75.5 58.5t-26.5 84q0 74 53 126t129 92q-28 31 -44.5 68.5t-16.5 78.5q0 53 31.5 98t85.5 71t117 26q47 0 87.5 -18t65 -50t24.5 -73q0 -54 -35.5 -96.5t-80.5 -69t-112 -58.5l157 -170q52 66 63 150h83q-8 -57 -32 -110t-61 -97l111 -120h-97l-65 70
q-103 -82 -246 -82q-66 0 -115 21.5zM420.5 477.5q58.5 40.5 58.5 89.5q0 32 -29.5 50.5t-68.5 18.5q-73 0 -112 -34.5t-39 -86.5q0 -51 51 -113q81 35 139.5 75.5zM439 126l-176 188q-66 -32 -108 -68.5t-42 -88.5q0 -43 40 -68t108 -25q102 0 178 62z" />
    <glyph glyph-name="paragraph" unicode="&#xb6;" horiz-adv-x="639" 
d="M254 280q-92 0 -143 45t-51 125q0 24 4 45q15 97 81.5 151t171.5 54h304l-146 -920h-84l133 840h-134l-133 -840h-83z" />
    <glyph glyph-name="section" unicode="&#xa7;" horiz-adv-x="500" 
d="M99 -21q-48 13 -78 35l12 74q32 -24 76 -38t82 -14q59 0 95 15t42 53q3 22 -11.5 37t-39 24.5t-70.5 23.5q-69 20 -107 46.5t-38 78.5q0 43 23.5 80.5t78.5 72.5q-54 31 -54 90q0 54 30.5 88.5t78 50.5t98.5 16q41 0 82 -11.5t73 -30.5l-11 -73q-26 20 -63.5 32.5
t-78.5 12.5q-51 0 -89.5 -20.5t-38.5 -59.5q0 -20 16 -33.5t39 -22t71 -22.5q69 -20 107 -46.5t38 -78.5q0 -43 -24 -80t-78 -73q48 -32 48 -87q0 -7 -2 -23q-10 -68 -69.5 -99t-144.5 -31q-45 0 -93 13zM358 286q25 31 25 58t-22.5 41.5t-71.5 32.5q-21 7 -37 11
q-9 1 -20 5q-36 -14 -61 -41t-29 -53q-1 -4 -1 -11q0 -27 22.5 -41.5t71.5 -32.5q6 -3 16 -5t15 -4q18 -4 27 -7q40 16 65 47z" />
    <glyph glyph-name="copyright" unicode="&#xa9;" horiz-adv-x="848" 
d="M222 23.5q-75 35.5 -122.5 104.5t-47.5 165q0 25 5 62q18 114 84.5 194.5t159 121.5t186.5 41q83 0 158 -35.5t122.5 -104.5t47.5 -165q0 -25 -5 -62q-18 -114 -84.5 -194.5t-159 -121.5t-186.5 -41q-83 0 -158 35.5zM552.5 54.5q86.5 36.5 148.5 110.5t79 180q5 35 5 59
q0 87 -41.5 150t-109 95.5t-144.5 32.5q-89 0 -175.5 -36.5t-148.5 -110.5t-79 -180q-5 -35 -5 -59q0 -87 41.5 -150t109 -95.5t144.5 -32.5q89 0 175.5 36.5zM333.5 166q-40.5 18 -66 55t-25.5 90q0 17 3 36q11 69 48.5 115t89 68t104.5 22q72 0 121 -35l-5 -59
q-46 32 -107 32q-67 0 -119.5 -36t-64.5 -114q-2 -10 -2 -28q0 -55 35.5 -78.5t91.5 -23.5q62 0 128 33l-6 -62q-35 -17 -68 -25t-72 -8q-45 0 -85.5 18z" />
    <glyph glyph-name="registered" unicode="&#xae;" horiz-adv-x="848" 
d="M222 23.5q-75 35.5 -122.5 104.5t-47.5 165q0 25 5 62q18 114 84.5 194.5t159 121.5t186.5 41q83 0 158 -35.5t122.5 -104.5t47.5 -165q0 -25 -5 -62q-18 -114 -84.5 -194.5t-159 -121.5t-186.5 -41q-83 0 -158 35.5zM552.5 54.5q86.5 36.5 148.5 110.5t79 180q5 35 5 59
q0 87 -41.5 150t-109 95.5t-144.5 32.5q-89 0 -175.5 -36.5t-148.5 -110.5t-79 -180q-5 -35 -5 -59q0 -87 41.5 -150t109 -95.5t144.5 -32.5q89 0 175.5 36.5zM323 547h167q53 0 93 -24t40 -79q0 -104 -104 -135l84 -155h-67l-78 147h-13h-101l-23 -147h-60zM454 359
q41 0 72 13t38 57q1 5 1 13q0 23 -13 33t-29 12t-44 2h-105l-21 -130h101z" />
    <glyph glyph-name="trademark" unicode="&#x2122;" horiz-adv-x="666" 
d="M183 656h-85l7 44h218l-7 -44h-85l-33 -210h-49zM368 700h53l67 -134l109 134h58l-40 -254h-48l30 184l-102 -120h-27l-63 120l-30 -184h-48z" />
    <glyph glyph-name="degree" unicode="&#xb0;" horiz-adv-x="393" 
d="M121.5 445q-40.5 35 -40.5 95q0 18 2 27q7 44 33.5 77t64 50.5t77.5 17.5q56 0 96 -35t40 -93q0 -18 -2 -27q-11 -68 -61 -107.5t-113 -39.5q-56 0 -96.5 35zM295.5 494q31.5 25 38.5 68q1 6 1 16q0 34 -21 54.5t-57 20.5q-45 0 -77 -24t-39 -67q-1 -6 -1 -16
q0 -35 21.5 -56t57.5 -21q45 0 76.5 25z" />
    <glyph glyph-name="bar" unicode="|" horiz-adv-x="224" 
d="M152 810h84l-144 -910h-84z" />
    <glyph glyph-name="brokenbar" unicode="&#xa6;" horiz-adv-x="240" 
d="M160 810h84l-56 -357h-84zM73 257h84l-57 -357h-84z" />
    <glyph glyph-name="dagger" unicode="&#x2020;" horiz-adv-x="514" 
d="M232 400h-183l13 80h183l35 220h84l-35 -220h182l-13 -80h-182l-98 -620h-84z" />
    <glyph glyph-name="daggerdbl" unicode="&#x2021;" horiz-adv-x="569" 
d="M210 74h-182l13 80h182l38 246h-181l13 80h181l35 220h84l-35 -220h182l-13 -80h-182l-38 -246h182l-13 -80h-182l-47 -294h-84z" />
    <glyph glyph-name="uni0308" unicode="&#x308;" horiz-adv-x="0" 
d="M-456.5 797q-14.5 15 -14.5 36q0 23 18.5 41t41.5 18q21 0 36 -15.5t15 -36.5q0 -24 -18 -41t-42 -17q-22 0 -36.5 15zM-254.5 797q-14.5 15 -14.5 36q0 23 18.5 41t41.5 18q21 0 36 -15.5t15 -36.5q0 -24 -18 -41t-42 -17q-22 0 -36.5 15z" />
    <glyph glyph-name="uni0307" unicode="&#x307;" horiz-adv-x="0" 
d="M-360.5 781.5q-15.5 13.5 -15.5 37.5q0 32 19 49t46 17q24 0 39.5 -13.5t15.5 -36.5q0 -33 -18.5 -50t-46.5 -17q-24 0 -39.5 13.5z" />
    <glyph glyph-name="gravecomb" unicode="&#x300;" horiz-adv-x="0" 
d="M-421 917h98l68 -147h-85z" />
    <glyph glyph-name="acutecomb" unicode="&#x301;" horiz-adv-x="0" 
d="M-262 917h102l-127 -147h-89z" />
    <glyph glyph-name="uni030B" unicode="&#x30b;" horiz-adv-x="0" 
d="M-347 927h92l-97 -147h-87zM-192 927h92l-97 -147h-87z" />
    <glyph glyph-name="uni0302" unicode="&#x302;" horiz-adv-x="0" 
d="M-335 917h72l109 -146h-86l-65 86l-91 -86h-94z" />
    <glyph glyph-name="uni030C" unicode="&#x30c;" horiz-adv-x="0" 
d="M-469 907h88l63 -86l89 86h96l-155 -146h-72z" />
    <glyph glyph-name="uni0306" unicode="&#x306;" horiz-adv-x="0" 
d="M-452 816l12 78q33 -24 63 -34t68 -10t73.5 10t75.5 34l-12 -78q-66 -42 -145 -42q-83 0 -135 42z" />
    <glyph glyph-name="uni030A" unicode="&#x30a;" horiz-adv-x="0" 
d="M-389 770.5q-30 26.5 -30 70.5q0 36 18.5 64.5t48.5 43.5t63 15q43 0 72.5 -26.5t29.5 -69.5q0 -12 -1 -18q-8 -48 -45 -77t-83 -29q-43 0 -73 26.5zM-266.5 816q20.5 17 20.5 47q0 20 -13 33t-31 13q-25 0 -44.5 -14.5t-23.5 -40.5q-1 -4 -1 -11q0 -20 12.5 -32
t31.5 -12q28 0 48.5 17z" />
    <glyph glyph-name="tildecomb" unicode="&#x303;" horiz-adv-x="0" 
d="M-282 769.5q-21 6.5 -47 18.5q-14 7 -28.5 12t-25.5 5q-18 0 -27.5 -9.5t-8.5 -26.5h-69q1 52 28.5 79t64.5 27q23 0 43.5 -6.5t46.5 -18.5q38 -17 56 -17q38 0 36 36h69q-1 -53 -28.5 -79.5t-65.5 -26.5q-23 0 -44 6.5z" />
    <glyph glyph-name="uni0304" unicode="&#x304;" horiz-adv-x="0" 
d="M-451 857h300l-12 -73h-300z" />
    <glyph glyph-name="uni0326" unicode="&#x326;" horiz-adv-x="0" 
d="M-474 -41h80l-65 -190h-70z" />
    <glyph glyph-name="uni0327" unicode="&#x327;" horiz-adv-x="0" 
d="M-577 -212l11 65q18 -9 42 -14.5t46 -5.5q37 0 57 9.5t20 26.5q0 14 -16.5 21t-43.5 7q-21 0 -51 -5l40 108h68l-24 -58q43 2 69 -17t26 -54q0 -8 -1 -12q-7 -46 -44 -68.5t-94 -22.5q-53 0 -105 20z" />
    <glyph glyph-name="uni0328" unicode="&#x328;" horiz-adv-x="0" 
d="M-509 -211.5q-23 21.5 -23 55.5q0 36 27.5 79.5t77.5 76.5h86q-47 -29 -78 -64.5t-35 -63.5q-1 -3 -1 -9q0 -13 9 -22t26 -9q35 0 68 19l-11 -69q-31 -15 -80 -15q-43 0 -66 21.5z" />
    <glyph glyph-name="acute" unicode="&#xb4;" horiz-adv-x="253" 
d="M228 917h102l-127 -147h-89z" />
    <glyph glyph-name="breve" unicode="&#x2d8;" horiz-adv-x="341" 
d="M122 816l12 78q33 -24 63 -34t68 -10t73.5 10t75.5 34l-12 -78q-66 -42 -145 -42q-83 0 -135 42z" />
    <glyph glyph-name="caron" unicode="&#x2c7;" horiz-adv-x="396" 
d="M136 907h88l63 -86l89 86h96l-155 -146h-72z" />
    <glyph glyph-name="cedilla" unicode="&#xb8;" horiz-adv-x="291" 
d="M-42 -212l11 65q18 -9 42 -14.5t46 -5.5q37 0 57 9.5t20 26.5q0 14 -16.5 21t-43.5 7q-21 0 -51 -5l40 108h68l-24 -58q43 2 69 -17t26 -54q0 -8 -1 -12q-7 -46 -44 -68.5t-94 -22.5q-53 0 -105 20z" />
    <glyph glyph-name="circumflex" unicode="&#x2c6;" horiz-adv-x="396" 
d="M269 917h72l109 -146h-86l-65 86l-91 -86h-94z" />
    <glyph glyph-name="dieresis" unicode="&#xa8;" horiz-adv-x="372" 
d="M138.5 797q-14.5 15 -14.5 36q0 23 18.5 41t41.5 18q21 0 36 -15.5t15 -36.5q0 -24 -18 -41t-42 -17q-22 0 -36.5 15zM340.5 797q-14.5 15 -14.5 36q0 23 18.5 41t41.5 18q21 0 36 -15.5t15 -36.5q0 -24 -18 -41t-42 -17q-22 0 -36.5 15z" />
    <glyph glyph-name="dotaccent" unicode="&#x2d9;" horiz-adv-x="180" 
d="M138.5 781.5q-15.5 13.5 -15.5 37.5q0 32 19 49t46 17q24 0 39.5 -13.5t15.5 -36.5q0 -33 -18.5 -50t-46.5 -17q-24 0 -39.5 13.5z" />
    <glyph glyph-name="grave" unicode="`" horiz-adv-x="249" 
d="M137 917h98l68 -147h-85z" />
    <glyph glyph-name="hungarumlaut" unicode="&#x2dd;" horiz-adv-x="376" 
d="M208 927h92l-97 -147h-87zM363 927h92l-97 -147h-87z" />
    <glyph glyph-name="macron" unicode="&#xaf;" horiz-adv-x="360" 
d="M128 857h300l-12 -73h-300z" />
    <glyph glyph-name="ogonek" unicode="&#x2db;" horiz-adv-x="241" 
d="M-8 -211.5q-23 21.5 -23 55.5q0 36 27.5 79.5t77.5 76.5h86q-47 -29 -78 -64.5t-35 -63.5q-1 -3 -1 -9q0 -13 9 -22t26 -9q35 0 68 19l-11 -69q-31 -15 -80 -15q-43 0 -66 21.5z" />
    <glyph glyph-name="ring" unicode="&#x2da;" horiz-adv-x="291" 
d="M157 770.5q-30 26.5 -30 70.5q0 36 18.5 64.5t48.5 43.5t63 15q43 0 72.5 -26.5t29.5 -69.5q0 -12 -1 -18q-8 -48 -45 -77t-83 -29q-43 0 -73 26.5zM279.5 816q20.5 17 20.5 47q0 20 -13 33t-31 13q-25 0 -44.5 -14.5t-23.5 -40.5q-1 -4 -1 -11q0 -20 12.5 -32t31.5 -12
q28 0 48.5 17z" />
    <glyph glyph-name="tilde" unicode="&#x2dc;" horiz-adv-x="391" 
d="M321 769.5q-21 6.5 -47 18.5q-14 7 -28.5 12t-25.5 5q-18 0 -27.5 -9.5t-8.5 -26.5h-69q1 52 28.5 79t64.5 27q23 0 43.5 -6.5t46.5 -18.5q38 -17 56 -17q38 0 36 36h69q-1 -53 -28.5 -79.5t-65.5 -26.5q-23 0 -44 6.5z" />
    </font>
</defs>
</svg>
